M48
; DRILL file {KiCad 8.0.1} date 2024-04-25T22:53:39+0200
; FORMAT={-:-/ absolute / metric / decimal}
; #@! TF.CreationDate,2024-04-25T22:53:39+02:00
; #@! TF.GenerationSoftware,Kicad,Pcbnew,8.0.1
; #@! TF.FileFunction,MixedPlating,1,2
FMAT,2
METRIC
; #@! TA.AperFunction,Plated,PTH,ViaDrill
T1C0.300
; #@! TA.AperFunction,Plated,PTH,ComponentDrill
T2C0.700
; #@! TA.AperFunction,Plated,PTH,ComponentDrill
T3C1.000
; #@! TA.AperFunction,Plated,PTH,ComponentDrill
T4C1.100
; #@! TA.AperFunction,Plated,PTH,ComponentDrill
T5C1.300
; #@! TA.AperFunction,Plated,PTH,ComponentDrill
T6C1.700
; #@! TA.AperFunction,Plated,PTH,ComponentDrill
T7C4.400
; #@! TA.AperFunction,NonPlated,NPTH,ComponentDrill
T8C3.200
%
G90
G05
T1
X109.1Y-98.4
X111.0Y-85.0
X111.0Y-87.0
X111.0Y-89.0
X111.5Y-86.0
X111.9Y-95.9
X112.0Y-85.0
X112.0Y-87.0
X112.5Y-80.0
X112.5Y-82.5
X112.5Y-86.0
X113.0Y-85.0
X113.0Y-87.0
X117.0Y-68.0
X117.5Y-80.0
X117.5Y-82.5
X118.7Y-98.4
X120.0Y-68.0
X122.0Y-111.4
X122.5Y-80.0
X122.5Y-82.5
X122.7Y-98.4
X123.0Y-68.0
X123.0Y-111.8
X123.3Y-113.8
X123.3Y-116.7
X124.0Y-54.0
X124.0Y-58.0
X124.0Y-85.0
X124.0Y-87.0
X124.0Y-89.0
X124.5Y-86.0
X124.63Y-107.355
X124.75Y-115.275
X125.0Y-85.0
X125.0Y-87.0
X125.4Y-95.9
X125.5Y-86.0
X126.0Y-85.0
X126.0Y-87.0
X126.2Y-113.8
X126.2Y-116.7
X126.7Y-111.8
X126.73Y-107.355
X127.0Y-54.0
X127.0Y-58.0
X127.5Y-80.0
X127.5Y-82.5
X127.7Y-111.3
X128.93Y-107.355
X130.0Y-54.0
X130.0Y-58.0
X131.0Y-68.0
X132.3Y-98.4
X132.5Y-80.0
X132.5Y-82.5
X134.0Y-68.0
X134.43Y-109.355
X136.105Y-98.375
X136.33Y-107.355
X137.0Y-68.0
X137.0Y-85.0
X137.0Y-87.0
X137.0Y-89.0
X137.5Y-80.0
X137.5Y-82.5
X137.5Y-86.0
X138.0Y-54.0
X138.0Y-56.0
X138.0Y-58.0
X138.0Y-85.0
X138.0Y-87.0
X138.5Y-86.0
X138.805Y-95.975
X139.0Y-85.0
X139.0Y-87.0
X139.5Y-86.0
X140.0Y-54.0
X140.0Y-56.0
X140.0Y-58.0
X140.0Y-85.0
X140.0Y-87.0
X142.0Y-54.0
X142.0Y-56.0
X142.0Y-58.0
X142.5Y-80.0
X142.5Y-82.5
X144.0Y-68.0
X144.0Y-112.8
X145.705Y-98.375
X147.0Y-68.0
X147.0Y-98.4
X147.5Y-80.0
X147.5Y-82.5
X149.6Y-105.4
X150.0Y-68.0
X151.0Y-54.0
X151.0Y-56.0
X151.0Y-58.0
X151.0Y-85.0
X151.0Y-87.0
X151.0Y-89.0
X151.5Y-86.0
X152.0Y-85.0
X152.0Y-87.0
X152.4Y-95.9
X152.5Y-80.0
X152.5Y-82.5
X152.5Y-86.0
X153.0Y-54.0
X153.0Y-56.0
X153.0Y-58.0
X153.0Y-85.0
X153.0Y-87.0
X153.7Y-107.5
X155.0Y-54.0
X155.0Y-56.0
X155.0Y-58.0
X157.0Y-68.0
X157.3Y-112.8
X157.5Y-80.0
X157.5Y-82.5
X159.3Y-98.4
X160.0Y-68.0
X160.4Y-99.6
X162.5Y-80.0
X162.5Y-82.5
X163.0Y-68.0
X165.0Y-54.0
X165.0Y-56.0
X165.0Y-58.0
X166.0Y-61.0
X166.0Y-63.0
X166.0Y-65.0
X166.0Y-67.0
X166.5Y-99.6
X167.0Y-54.0
X167.0Y-56.0
X167.0Y-58.0
X167.5Y-70.0
X167.5Y-72.5
X167.5Y-75.0
X167.5Y-77.5
X167.5Y-80.0
X167.5Y-82.5
X168.0Y-61.0
X168.0Y-63.0
X168.0Y-65.0
X168.0Y-67.0
X168.3Y-96.7
X169.0Y-54.0
X169.0Y-56.0
X169.0Y-58.0
X170.0Y-61.0
X170.0Y-67.0
X171.0Y-96.9
X172.5Y-70.0
X172.5Y-72.5
X172.5Y-75.0
X172.5Y-77.5
X172.5Y-80.0
X172.5Y-82.5
X176.0Y-61.0
X176.0Y-67.0
X183.2Y-103.8
X188.0Y-103.8
T2
X159.0Y-109.2
X164.0Y-109.2
T3
X102.047Y-102.38
X102.047Y-104.92
X102.047Y-107.46
X102.047Y-110.0
X104.4Y-84.9
X104.4Y-87.44
X104.4Y-89.98
X106.94Y-84.9
X106.94Y-87.44
X106.94Y-89.98
X109.667Y-102.38
X109.667Y-104.92
X109.667Y-107.46
X109.667Y-110.0
X167.76Y-92.85
X170.3Y-92.85
X172.84Y-92.85
T4
X185.0Y-71.0
X185.0Y-74.5
X185.0Y-78.0
X185.0Y-81.5
X185.0Y-85.0
X185.0Y-88.5
X185.0Y-92.0
T5
X132.3Y-118.85
X132.3Y-141.15
X134.84Y-118.85
X134.84Y-141.15
X137.38Y-118.85
X137.38Y-141.15
X139.92Y-118.85
X139.92Y-141.15
X142.46Y-118.85
X142.46Y-141.15
X145.0Y-118.85
X145.0Y-141.15
X147.54Y-118.85
X147.54Y-141.15
X150.08Y-118.85
X150.08Y-141.15
X152.62Y-118.85
X152.62Y-141.15
X155.16Y-118.85
X155.16Y-141.15
X157.7Y-118.85
X157.7Y-141.15
T6
X120.0Y-70.5
X120.0Y-77.26
X120.0Y-86.85
X120.0Y-93.61
X133.5Y-70.5
X133.5Y-77.26
X133.5Y-86.85
X133.5Y-93.61
X147.0Y-70.5
X147.0Y-77.26
X147.0Y-86.85
X147.0Y-93.61
X160.5Y-70.5
X160.5Y-77.26
X160.5Y-86.85
X160.5Y-93.61
T7
X120.0Y-56.4
X120.0Y-63.6
X133.5Y-56.4
X133.5Y-63.6
X147.0Y-56.4
X147.0Y-63.6
X160.5Y-56.4
X160.5Y-63.6
X173.0Y-56.4
X173.0Y-63.6
T8
X105.0Y-140.0
X107.5Y-57.5
X182.5Y-57.5
X185.0Y-140.0
M30
