%TF.GenerationSoftware,KiCad,Pcbnew,8.0.1*%
%TF.CreationDate,2024-04-25T22:53:37+02:00*%
%TF.ProjectId,xt60_parallelizer,78743630-5f70-4617-9261-6c6c656c697a,rev?*%
%TF.SameCoordinates,Original*%
%TF.FileFunction,Copper,L2,Bot*%
%TF.FilePolarity,Positive*%
%FSLAX46Y46*%
G04 Gerber Fmt 4.6, Leading zero omitted, Abs format (unit mm)*
G04 Created by KiCad (PCBNEW 8.0.1) date 2024-04-25 22:53:37*
%MOMM*%
%LPD*%
G01*
G04 APERTURE LIST*
G04 Aperture macros list*
%AMRoundRect*
0 Rectangle with rounded corners*
0 $1 Rounding radius*
0 $2 $3 $4 $5 $6 $7 $8 $9 X,Y pos of 4 corners*
0 Add a 4 corners polygon primitive as box body*
4,1,4,$2,$3,$4,$5,$6,$7,$8,$9,$2,$3,0*
0 Add four circle primitives for the rounded corners*
1,1,$1+$1,$2,$3*
1,1,$1+$1,$4,$5*
1,1,$1+$1,$6,$7*
1,1,$1+$1,$8,$9*
0 Add four rect primitives between the rounded corners*
20,1,$1+$1,$2,$3,$4,$5,0*
20,1,$1+$1,$4,$5,$6,$7,0*
20,1,$1+$1,$6,$7,$8,$9,0*
20,1,$1+$1,$8,$9,$2,$3,0*%
G04 Aperture macros list end*
%TA.AperFunction,ComponentPad*%
%ADD10C,1.900000*%
%TD*%
%TA.AperFunction,ComponentPad*%
%ADD11C,6.000000*%
%TD*%
%TA.AperFunction,ComponentPad*%
%ADD12RoundRect,0.250000X0.600000X0.600000X-0.600000X0.600000X-0.600000X-0.600000X0.600000X-0.600000X0*%
%TD*%
%TA.AperFunction,ComponentPad*%
%ADD13C,1.700000*%
%TD*%
%TA.AperFunction,ComponentPad*%
%ADD14RoundRect,0.675000X-0.675000X0.675000X-0.675000X-0.675000X0.675000X-0.675000X0.675000X0.675000X0*%
%TD*%
%TA.AperFunction,ComponentPad*%
%ADD15C,2.700000*%
%TD*%
%TA.AperFunction,ComponentPad*%
%ADD16R,1.700000X1.700000*%
%TD*%
%TA.AperFunction,ComponentPad*%
%ADD17C,1.300000*%
%TD*%
%TA.AperFunction,ComponentPad*%
%ADD18RoundRect,0.250000X1.400000X-0.650000X1.400000X0.650000X-1.400000X0.650000X-1.400000X-0.650000X0*%
%TD*%
%TA.AperFunction,ComponentPad*%
%ADD19O,3.300000X1.800000*%
%TD*%
%TA.AperFunction,ComponentPad*%
%ADD20R,2.000000X2.000000*%
%TD*%
%TA.AperFunction,ComponentPad*%
%ADD21C,2.000000*%
%TD*%
%TA.AperFunction,ViaPad*%
%ADD22C,0.700000*%
%TD*%
%TA.AperFunction,Conductor*%
%ADD23C,1.000000*%
%TD*%
%TA.AperFunction,Conductor*%
%ADD24C,0.200000*%
%TD*%
G04 APERTURE END LIST*
D10*
%TO.P,U11,1,COM2*%
%TO.N,/DISP_COM4*%
X132300000Y-141150000D03*
%TO.P,U11,2,COM3*%
%TO.N,/DISP_COM3*%
X134840000Y-141150000D03*
%TO.P,U11,3,3*%
%TO.N,Net-(U9-SEG0)*%
X137380000Y-141150000D03*
%TO.P,U11,4,4*%
%TO.N,Net-(U9-SEG1)*%
X139920000Y-141150000D03*
%TO.P,U11,5,5*%
%TO.N,Net-(U9-SEG2)*%
X142460000Y-141150000D03*
%TO.P,U11,6,6*%
%TO.N,Net-(U9-SEG3)*%
X145000000Y-141150000D03*
%TO.P,U11,7,7*%
%TO.N,Net-(U9-SEG4)*%
X147540000Y-141150000D03*
%TO.P,U11,8,8*%
%TO.N,Net-(U9-SEG5)*%
X150080000Y-141150000D03*
%TO.P,U11,9,9*%
%TO.N,Net-(U9-SEG6)*%
X152620000Y-141150000D03*
%TO.P,U11,10,10*%
%TO.N,Net-(U9-SEG7)*%
X155160000Y-141150000D03*
%TO.P,U11,11,11*%
%TO.N,Net-(U9-SEG8)*%
X157700000Y-141150000D03*
%TO.P,U11,12,12*%
%TO.N,Net-(U9-SEG9)*%
X157700000Y-118850000D03*
%TO.P,U11,13,13*%
%TO.N,Net-(U9-SEG10)*%
X155160000Y-118850000D03*
%TO.P,U11,14,14*%
%TO.N,Net-(U9-SEG11)*%
X152620000Y-118850000D03*
%TO.P,U11,15,15*%
%TO.N,Net-(U9-SEG12)*%
X150080000Y-118850000D03*
%TO.P,U11,16,16*%
%TO.N,Net-(U9-SEG13)*%
X147540000Y-118850000D03*
%TO.P,U11,17,17*%
%TO.N,Net-(U9-SEG14)*%
X145000000Y-118850000D03*
%TO.P,U11,18,18*%
%TO.N,Net-(U9-SEG15)*%
X142460000Y-118850000D03*
%TO.P,U11,19,19*%
%TO.N,Net-(U9-SEG16)*%
X139920000Y-118850000D03*
%TO.P,U11,20,20*%
%TO.N,Net-(U9-SEG17)*%
X137380000Y-118850000D03*
%TO.P,U11,21,COM0*%
%TO.N,/DISP_COM2*%
X134840000Y-118850000D03*
%TO.P,U11,22,COM1*%
%TO.N,/DISP_COM1*%
X132300000Y-118850000D03*
%TD*%
D11*
%TO.P,BT1,1,+*%
%TO.N,Net-(BT1-+)*%
X120000000Y-63600000D03*
%TO.P,BT1,2,-*%
%TO.N,GND*%
X120000000Y-56400000D03*
%TD*%
D12*
%TO.P,J2,1,DATA*%
%TO.N,/UPDI*%
X106940000Y-89980000D03*
D13*
%TO.P,J2,2,VCC*%
%TO.N,+5V*%
X104400000Y-89980000D03*
%TO.P,J2,3,NC*%
%TO.N,unconnected-(J2-NC-Pad3)*%
X106940000Y-87440000D03*
%TO.P,J2,4,NC*%
%TO.N,unconnected-(J2-NC-Pad4)*%
X104400000Y-87440000D03*
%TO.P,J2,5,NC*%
%TO.N,unconnected-(J2-NC-Pad5)*%
X106940000Y-84900000D03*
%TO.P,J2,6,GND*%
%TO.N,GND*%
X104400000Y-84900000D03*
%TD*%
D14*
%TO.P,F4,1*%
%TO.N,Net-(BT4-+)*%
X160500000Y-70500000D03*
X160500000Y-77260000D03*
D15*
%TO.P,F4,2*%
%TO.N,Net-(F4-Pad2)*%
X160500000Y-86850000D03*
X160500000Y-93610000D03*
%TD*%
D11*
%TO.P,BT2,1,+*%
%TO.N,Net-(BT2-+)*%
X133500000Y-63600000D03*
%TO.P,BT2,2,-*%
%TO.N,GND*%
X133500000Y-56400000D03*
%TD*%
%TO.P,BT3,1,+*%
%TO.N,Net-(BT3-+)*%
X147000000Y-63600000D03*
%TO.P,BT3,2,-*%
%TO.N,GND*%
X147000000Y-56400000D03*
%TD*%
%TO.P,BT4,1,+*%
%TO.N,Net-(BT4-+)*%
X160500000Y-63600000D03*
%TO.P,BT4,2,-*%
%TO.N,GND*%
X160500000Y-56400000D03*
%TD*%
D14*
%TO.P,F3,1*%
%TO.N,Net-(BT3-+)*%
X147000000Y-70500000D03*
X147000000Y-77260000D03*
D15*
%TO.P,F3,2*%
%TO.N,Net-(F3-Pad2)*%
X147000000Y-86850000D03*
X147000000Y-93610000D03*
%TD*%
D16*
%TO.P,U5,1,VIN*%
%TO.N,VCC*%
X172840000Y-92850000D03*
D13*
%TO.P,U5,2,GND*%
%TO.N,GND*%
X170300000Y-92850000D03*
%TO.P,U5,3,+VO*%
%TO.N,+5V*%
X167760000Y-92850000D03*
%TD*%
D11*
%TO.P,J3,1,Pin_1*%
%TO.N,/XT60 Channel/+VOUT*%
X173000000Y-63600000D03*
%TO.P,J3,2,Pin_2*%
%TO.N,GND*%
X173000000Y-56400000D03*
%TD*%
D17*
%TO.P,BZ1,1,-*%
%TO.N,/BUZZER*%
X159000000Y-109200000D03*
%TO.P,BZ1,2,+*%
%TO.N,GND*%
X164000000Y-109200000D03*
%TD*%
D14*
%TO.P,F2,1*%
%TO.N,Net-(BT2-+)*%
X133500000Y-70500000D03*
X133500000Y-77260000D03*
D15*
%TO.P,F2,2*%
%TO.N,Net-(F2-Pad2)*%
X133500000Y-86850000D03*
X133500000Y-93610000D03*
%TD*%
D14*
%TO.P,F1,1*%
%TO.N,Net-(BT1-+)*%
X120000000Y-70500000D03*
X120000000Y-77260000D03*
D15*
%TO.P,F1,2*%
%TO.N,Net-(F1-Pad2)*%
X120000000Y-86850000D03*
X120000000Y-93610000D03*
%TD*%
D18*
%TO.P,J1,1,Pin_1*%
%TO.N,Net-(J1-Pin_1)*%
X185000000Y-92000000D03*
D19*
%TO.P,J1,2,Pin_2*%
%TO.N,Net-(J1-Pin_2)*%
X185000000Y-88500000D03*
%TO.P,J1,3,Pin_3*%
%TO.N,Net-(J1-Pin_3)*%
X185000000Y-85000000D03*
%TO.P,J1,4,Pin_4*%
%TO.N,Net-(J1-Pin_4)*%
X185000000Y-81500000D03*
%TO.P,J1,5,Pin_5*%
%TO.N,Net-(J1-Pin_5)*%
X185000000Y-78000000D03*
%TO.P,J1,6,Pin_6*%
%TO.N,Net-(J1-Pin_6)*%
X185000000Y-74500000D03*
%TO.P,J1,7,Pin_7*%
%TO.N,GND*%
X185000000Y-71000000D03*
%TD*%
D20*
%TO.P,SW1,1*%
%TO.N,/SW_DIP1*%
X109667500Y-110000000D03*
D21*
%TO.P,SW1,2*%
%TO.N,/SW_DIP2*%
X109667500Y-107460000D03*
%TO.P,SW1,3*%
%TO.N,/SW_DIP3*%
X109667500Y-104920000D03*
%TO.P,SW1,4*%
%TO.N,/SW_DIP4*%
X109667500Y-102380000D03*
%TO.P,SW1,5*%
%TO.N,GND*%
X102047500Y-102380000D03*
%TO.P,SW1,6*%
X102047500Y-104920000D03*
%TO.P,SW1,7*%
X102047500Y-107460000D03*
%TO.P,SW1,8*%
X102047500Y-110000000D03*
%TD*%
D22*
%TO.N,Net-(BT1-+)*%
X123000000Y-68000000D03*
X117000000Y-68000000D03*
X120000000Y-68000000D03*
%TO.N,GND*%
X169000000Y-56000000D03*
X127000000Y-58000000D03*
X167000000Y-54000000D03*
X118700000Y-98400000D03*
X165000000Y-54000000D03*
X128930000Y-107355000D03*
X142000000Y-58000000D03*
X140000000Y-54000000D03*
X132300000Y-98400000D03*
X136330000Y-107355000D03*
X153000000Y-56000000D03*
X126200000Y-116700000D03*
X167000000Y-58000000D03*
X147000000Y-98400000D03*
X124750000Y-115275000D03*
X142000000Y-56000000D03*
X169000000Y-54000000D03*
X122700000Y-98400000D03*
X138000000Y-58000000D03*
X125400000Y-95900000D03*
X171000000Y-96900000D03*
X159300000Y-98400000D03*
X111900000Y-95900000D03*
X136105000Y-98375000D03*
X167000000Y-56000000D03*
X138000000Y-54000000D03*
X145705000Y-98375000D03*
X109100000Y-98400000D03*
X188000000Y-103800000D03*
X124000000Y-54000000D03*
X160400000Y-99600000D03*
X151000000Y-54000000D03*
X134430000Y-109355000D03*
X165000000Y-56000000D03*
X153000000Y-54000000D03*
X155000000Y-58000000D03*
X124000000Y-58000000D03*
X152400000Y-95900000D03*
X124630000Y-107355000D03*
X144000000Y-112800000D03*
X151000000Y-56000000D03*
X169000000Y-58000000D03*
X183200000Y-103800000D03*
X155000000Y-56000000D03*
X130000000Y-54000000D03*
X140000000Y-58000000D03*
X123300000Y-113800000D03*
X126730000Y-107355000D03*
X155000000Y-54000000D03*
X138000000Y-56000000D03*
X130000000Y-58000000D03*
X157300000Y-112800000D03*
X166500000Y-99600000D03*
X151000000Y-58000000D03*
X123300000Y-116700000D03*
X127000000Y-54000000D03*
X140000000Y-56000000D03*
X142000000Y-54000000D03*
X153000000Y-58000000D03*
X138805000Y-95975000D03*
X168300000Y-96700000D03*
X165000000Y-58000000D03*
X126200000Y-113800000D03*
%TO.N,Net-(BT2-+)*%
X137000000Y-68000000D03*
X131000000Y-68000000D03*
X134000000Y-68000000D03*
%TO.N,Net-(BT3-+)*%
X147000000Y-68000000D03*
X144000000Y-68000000D03*
X150000000Y-68000000D03*
%TO.N,Net-(BT4-+)*%
X160000000Y-68000000D03*
X157000000Y-68000000D03*
X163000000Y-68000000D03*
%TO.N,+5V*%
X149600000Y-105400000D03*
X153700000Y-107500000D03*
%TO.N,/SPI_SCL*%
X123000000Y-111800000D03*
X126700000Y-111800000D03*
%TO.N,/SPI_nCS*%
X122000000Y-111400000D03*
X127700000Y-111300000D03*
%TO.N,/XT60 Channel/+VOUT*%
X137500000Y-82500000D03*
X126000000Y-87000000D03*
X127500000Y-80000000D03*
X166000000Y-67000000D03*
X167500000Y-75000000D03*
X137500000Y-80000000D03*
X138500000Y-86000000D03*
X112000000Y-87000000D03*
X111000000Y-89000000D03*
X151000000Y-87000000D03*
X112500000Y-82500000D03*
X167500000Y-70000000D03*
X112000000Y-85000000D03*
X140000000Y-85000000D03*
X176000000Y-67000000D03*
X172500000Y-82500000D03*
X152000000Y-85000000D03*
X122500000Y-80000000D03*
X112500000Y-80000000D03*
X172500000Y-80000000D03*
X167500000Y-80000000D03*
X139000000Y-85000000D03*
X137000000Y-89000000D03*
X112500000Y-86000000D03*
X152500000Y-86000000D03*
X137000000Y-87000000D03*
X124000000Y-89000000D03*
X167500000Y-77500000D03*
X168000000Y-63000000D03*
X172500000Y-75000000D03*
X125000000Y-87000000D03*
X168000000Y-67000000D03*
X153000000Y-87000000D03*
X111000000Y-85000000D03*
X138000000Y-87000000D03*
X153000000Y-85000000D03*
X162500000Y-82500000D03*
X162500000Y-80000000D03*
X137500000Y-86000000D03*
X170000000Y-67000000D03*
X142500000Y-80000000D03*
X124500000Y-86000000D03*
X157500000Y-80000000D03*
X170000000Y-61000000D03*
X172500000Y-77500000D03*
X139000000Y-87000000D03*
X151500000Y-86000000D03*
X172500000Y-72500000D03*
X152500000Y-80000000D03*
X151000000Y-85000000D03*
X167500000Y-82500000D03*
X125500000Y-86000000D03*
X122500000Y-82500000D03*
X113000000Y-87000000D03*
X124000000Y-87000000D03*
X152500000Y-82500000D03*
X166000000Y-63000000D03*
X111000000Y-87000000D03*
X139500000Y-86000000D03*
X151000000Y-89000000D03*
X167500000Y-72500000D03*
X166000000Y-61000000D03*
X117500000Y-82500000D03*
X152000000Y-87000000D03*
X140000000Y-87000000D03*
X138000000Y-85000000D03*
X147500000Y-80000000D03*
X172500000Y-70000000D03*
X125000000Y-85000000D03*
X113000000Y-85000000D03*
X168000000Y-65000000D03*
X127500000Y-82500000D03*
X147500000Y-82500000D03*
X126000000Y-85000000D03*
X117500000Y-80000000D03*
X157500000Y-82500000D03*
X132500000Y-80000000D03*
X137000000Y-85000000D03*
X168000000Y-61000000D03*
X166000000Y-65000000D03*
X111500000Y-86000000D03*
X142500000Y-82500000D03*
X176000000Y-61000000D03*
X124000000Y-85000000D03*
X132500000Y-82500000D03*
%TD*%
D23*
%TO.N,+5V*%
X149600000Y-105400000D02*
X151700000Y-107500000D01*
X151700000Y-107500000D02*
X153700000Y-107500000D01*
D24*
%TO.N,/SPI_SCL*%
X123000000Y-111800000D02*
X126700000Y-111800000D01*
%TO.N,/SPI_nCS*%
X127400000Y-111000000D02*
X127700000Y-111300000D01*
X122000000Y-111400000D02*
X122400000Y-111000000D01*
X125800000Y-111000000D02*
X127400000Y-111000000D01*
X122400000Y-111000000D02*
X125800000Y-111000000D01*
%TD*%
%TA.AperFunction,Conductor*%
%TO.N,GND*%
G36*
X169000000Y-59400000D02*
G01*
X116024000Y-59400000D01*
X115956961Y-59380315D01*
X115911206Y-59327511D01*
X115900000Y-59276000D01*
X115900000Y-52324000D01*
X115919685Y-52256961D01*
X115972489Y-52211206D01*
X116024000Y-52200000D01*
X169000000Y-52200000D01*
X169000000Y-59400000D01*
G37*
%TD.AperFunction*%
%TD*%
%TA.AperFunction,Conductor*%
%TO.N,Net-(BT2-+)*%
G36*
X137543039Y-60619685D02*
G01*
X137588794Y-60672489D01*
X137600000Y-60724000D01*
X137600000Y-78476000D01*
X137580315Y-78543039D01*
X137527511Y-78588794D01*
X137476000Y-78600000D01*
X129524000Y-78600000D01*
X129456961Y-78580315D01*
X129411206Y-78527511D01*
X129400000Y-78476000D01*
X129400000Y-60724000D01*
X129419685Y-60656961D01*
X129472489Y-60611206D01*
X129524000Y-60600000D01*
X137476000Y-60600000D01*
X137543039Y-60619685D01*
G37*
%TD.AperFunction*%
%TD*%
%TA.AperFunction,Conductor*%
%TO.N,Net-(BT1-+)*%
G36*
X124043039Y-60619685D02*
G01*
X124088794Y-60672489D01*
X124100000Y-60724000D01*
X124100000Y-78476000D01*
X124080315Y-78543039D01*
X124027511Y-78588794D01*
X123976000Y-78600000D01*
X116024000Y-78600000D01*
X115956961Y-78580315D01*
X115911206Y-78527511D01*
X115900000Y-78476000D01*
X115900000Y-60724000D01*
X115919685Y-60656961D01*
X115972489Y-60611206D01*
X116024000Y-60600000D01*
X123976000Y-60600000D01*
X124043039Y-60619685D01*
G37*
%TD.AperFunction*%
%TD*%
%TA.AperFunction,Conductor*%
%TO.N,Net-(BT3-+)*%
G36*
X151043039Y-60619685D02*
G01*
X151088794Y-60672489D01*
X151100000Y-60724000D01*
X151100000Y-78476000D01*
X151080315Y-78543039D01*
X151027511Y-78588794D01*
X150976000Y-78600000D01*
X143024000Y-78600000D01*
X142956961Y-78580315D01*
X142911206Y-78527511D01*
X142900000Y-78476000D01*
X142900000Y-60724000D01*
X142919685Y-60656961D01*
X142972489Y-60611206D01*
X143024000Y-60600000D01*
X150976000Y-60600000D01*
X151043039Y-60619685D01*
G37*
%TD.AperFunction*%
%TD*%
%TA.AperFunction,Conductor*%
%TO.N,Net-(BT4-+)*%
G36*
X164543039Y-60619685D02*
G01*
X164588794Y-60672489D01*
X164600000Y-60724000D01*
X164600000Y-78476000D01*
X164580315Y-78543039D01*
X164527511Y-78588794D01*
X164476000Y-78600000D01*
X156524000Y-78600000D01*
X156456961Y-78580315D01*
X156411206Y-78527511D01*
X156400000Y-78476000D01*
X156400000Y-60724000D01*
X156419685Y-60656961D01*
X156472489Y-60611206D01*
X156524000Y-60600000D01*
X164476000Y-60600000D01*
X164543039Y-60619685D01*
G37*
%TD.AperFunction*%
%TD*%
%TA.AperFunction,Conductor*%
%TO.N,/XT60 Channel/+VOUT*%
G36*
X177243039Y-60619685D02*
G01*
X177288794Y-60672489D01*
X177300000Y-60724000D01*
X177300000Y-78648638D01*
X177280315Y-78715677D01*
X177263681Y-78736319D01*
X170936319Y-85063681D01*
X170874996Y-85097166D01*
X170848638Y-85100000D01*
X154200000Y-85100000D01*
X154200000Y-90876000D01*
X154180315Y-90943039D01*
X154127511Y-90988794D01*
X154076000Y-91000000D01*
X150224000Y-91000000D01*
X150156961Y-90980315D01*
X150111206Y-90927511D01*
X150100000Y-90876000D01*
X150100000Y-85100000D01*
X140700000Y-85100000D01*
X140700000Y-90876000D01*
X140680315Y-90943039D01*
X140627511Y-90988794D01*
X140576000Y-91000000D01*
X136624000Y-91000000D01*
X136556961Y-90980315D01*
X136511206Y-90927511D01*
X136500000Y-90876000D01*
X136500000Y-85100000D01*
X127200000Y-85100000D01*
X127200000Y-90876000D01*
X127180315Y-90943039D01*
X127127511Y-90988794D01*
X127076000Y-91000000D01*
X123224000Y-91000000D01*
X123156961Y-90980315D01*
X123111206Y-90927511D01*
X123100000Y-90876000D01*
X123100000Y-85100000D01*
X113700000Y-85100000D01*
X113700000Y-90876000D01*
X113680315Y-90943039D01*
X113627511Y-90988794D01*
X113576000Y-91000000D01*
X111451362Y-91000000D01*
X111384323Y-90980315D01*
X111363681Y-90963681D01*
X110336319Y-89936319D01*
X110302834Y-89874996D01*
X110300000Y-89848638D01*
X110300000Y-79374000D01*
X110319685Y-79306961D01*
X110372489Y-79261206D01*
X110424000Y-79250000D01*
X165750000Y-79250000D01*
X165750000Y-60724000D01*
X165769685Y-60656961D01*
X165822489Y-60611206D01*
X165874000Y-60600000D01*
X177176000Y-60600000D01*
X177243039Y-60619685D01*
G37*
%TD.AperFunction*%
%TD*%
%TA.AperFunction,Conductor*%
%TO.N,GND*%
G36*
X186715677Y-52219685D02*
G01*
X186736319Y-52236319D01*
X189463681Y-54963681D01*
X189497166Y-55025004D01*
X189500000Y-55051362D01*
X189500000Y-71876000D01*
X189480315Y-71943039D01*
X189427511Y-71988794D01*
X189376000Y-72000000D01*
X181500000Y-72000000D01*
X181500000Y-96000000D01*
X189376000Y-96000000D01*
X189443039Y-96019685D01*
X189488794Y-96072489D01*
X189500000Y-96124000D01*
X189500000Y-139948638D01*
X189480315Y-140015677D01*
X189463681Y-140036319D01*
X185036319Y-144463681D01*
X184974996Y-144497166D01*
X184948638Y-144500000D01*
X105051362Y-144500000D01*
X104984323Y-144480315D01*
X104963681Y-144463681D01*
X100621288Y-140121288D01*
X103149500Y-140121288D01*
X103181161Y-140361785D01*
X103243947Y-140596104D01*
X103336773Y-140820205D01*
X103336776Y-140820212D01*
X103458064Y-141030289D01*
X103458066Y-141030292D01*
X103458067Y-141030293D01*
X103605733Y-141222736D01*
X103605739Y-141222743D01*
X103777256Y-141394260D01*
X103777262Y-141394265D01*
X103969711Y-141541936D01*
X104179788Y-141663224D01*
X104403900Y-141756054D01*
X104638211Y-141818838D01*
X104818586Y-141842584D01*
X104878711Y-141850500D01*
X104878712Y-141850500D01*
X105121289Y-141850500D01*
X105169388Y-141844167D01*
X105361789Y-141818838D01*
X105596100Y-141756054D01*
X105820212Y-141663224D01*
X106030289Y-141541936D01*
X106222738Y-141394265D01*
X106394265Y-141222738D01*
X106450079Y-141150000D01*
X131144571Y-141150000D01*
X131164244Y-141362310D01*
X131222596Y-141567392D01*
X131222596Y-141567394D01*
X131317632Y-141758253D01*
X131446127Y-141928406D01*
X131446128Y-141928407D01*
X131603698Y-142072052D01*
X131784981Y-142184298D01*
X131983802Y-142261321D01*
X132193390Y-142300500D01*
X132193392Y-142300500D01*
X132406608Y-142300500D01*
X132406610Y-142300500D01*
X132616198Y-142261321D01*
X132815019Y-142184298D01*
X132996302Y-142072052D01*
X133153872Y-141928407D01*
X133282366Y-141758255D01*
X133283463Y-141756052D01*
X133377403Y-141567394D01*
X133377403Y-141567393D01*
X133377405Y-141567389D01*
X133435756Y-141362310D01*
X133446529Y-141246047D01*
X133472315Y-141181111D01*
X133514622Y-141150804D01*
X133623130Y-141150804D01*
X133659503Y-141171668D01*
X133691693Y-141233681D01*
X133693471Y-141246048D01*
X133704244Y-141362310D01*
X133762596Y-141567392D01*
X133762596Y-141567394D01*
X133857632Y-141758253D01*
X133986127Y-141928406D01*
X133986128Y-141928407D01*
X134143698Y-142072052D01*
X134324981Y-142184298D01*
X134523802Y-142261321D01*
X134733390Y-142300500D01*
X134733392Y-142300500D01*
X134946608Y-142300500D01*
X134946610Y-142300500D01*
X135156198Y-142261321D01*
X135355019Y-142184298D01*
X135536302Y-142072052D01*
X135693872Y-141928407D01*
X135822366Y-141758255D01*
X135823463Y-141756052D01*
X135917403Y-141567394D01*
X135917403Y-141567393D01*
X135917405Y-141567389D01*
X135975756Y-141362310D01*
X135986529Y-141246047D01*
X136012315Y-141181111D01*
X136054622Y-141150804D01*
X136163130Y-141150804D01*
X136199503Y-141171668D01*
X136231693Y-141233681D01*
X136233471Y-141246048D01*
X136244244Y-141362310D01*
X136302596Y-141567392D01*
X136302596Y-141567394D01*
X136397632Y-141758253D01*
X136526127Y-141928406D01*
X136526128Y-141928407D01*
X136683698Y-142072052D01*
X136864981Y-142184298D01*
X137063802Y-142261321D01*
X137273390Y-142300500D01*
X137273392Y-142300500D01*
X137486608Y-142300500D01*
X137486610Y-142300500D01*
X137696198Y-142261321D01*
X137895019Y-142184298D01*
X138076302Y-142072052D01*
X138233872Y-141928407D01*
X138362366Y-141758255D01*
X138363463Y-141756052D01*
X138457403Y-141567394D01*
X138457403Y-141567393D01*
X138457405Y-141567389D01*
X138515756Y-141362310D01*
X138526529Y-141246047D01*
X138552315Y-141181111D01*
X138594622Y-141150804D01*
X138703130Y-141150804D01*
X138739503Y-141171668D01*
X138771693Y-141233681D01*
X138773471Y-141246048D01*
X138784244Y-141362310D01*
X138842596Y-141567392D01*
X138842596Y-141567394D01*
X138937632Y-141758253D01*
X139066127Y-141928406D01*
X139066128Y-141928407D01*
X139223698Y-142072052D01*
X139404981Y-142184298D01*
X139603802Y-142261321D01*
X139813390Y-142300500D01*
X139813392Y-142300500D01*
X140026608Y-142300500D01*
X140026610Y-142300500D01*
X140236198Y-142261321D01*
X140435019Y-142184298D01*
X140616302Y-142072052D01*
X140773872Y-141928407D01*
X140902366Y-141758255D01*
X140903463Y-141756052D01*
X140997403Y-141567394D01*
X140997403Y-141567393D01*
X140997405Y-141567389D01*
X141055756Y-141362310D01*
X141066529Y-141246047D01*
X141092315Y-141181111D01*
X141134622Y-141150804D01*
X141243130Y-141150804D01*
X141279503Y-141171668D01*
X141311693Y-141233681D01*
X141313471Y-141246048D01*
X141324244Y-141362310D01*
X141382596Y-141567392D01*
X141382596Y-141567394D01*
X141477632Y-141758253D01*
X141606127Y-141928406D01*
X141606128Y-141928407D01*
X141763698Y-142072052D01*
X141944981Y-142184298D01*
X142143802Y-142261321D01*
X142353390Y-142300500D01*
X142353392Y-142300500D01*
X142566608Y-142300500D01*
X142566610Y-142300500D01*
X142776198Y-142261321D01*
X142975019Y-142184298D01*
X143156302Y-142072052D01*
X143313872Y-141928407D01*
X143442366Y-141758255D01*
X143443463Y-141756052D01*
X143537403Y-141567394D01*
X143537403Y-141567393D01*
X143537405Y-141567389D01*
X143595756Y-141362310D01*
X143606529Y-141246047D01*
X143632315Y-141181111D01*
X143674622Y-141150804D01*
X143783130Y-141150804D01*
X143819503Y-141171668D01*
X143851693Y-141233681D01*
X143853471Y-141246048D01*
X143864244Y-141362310D01*
X143922596Y-141567392D01*
X143922596Y-141567394D01*
X144017632Y-141758253D01*
X144146127Y-141928406D01*
X144146128Y-141928407D01*
X144303698Y-142072052D01*
X144484981Y-142184298D01*
X144683802Y-142261321D01*
X144893390Y-142300500D01*
X144893392Y-142300500D01*
X145106608Y-142300500D01*
X145106610Y-142300500D01*
X145316198Y-142261321D01*
X145515019Y-142184298D01*
X145696302Y-142072052D01*
X145853872Y-141928407D01*
X145982366Y-141758255D01*
X145983463Y-141756052D01*
X146077403Y-141567394D01*
X146077403Y-141567393D01*
X146077405Y-141567389D01*
X146135756Y-141362310D01*
X146146529Y-141246047D01*
X146172315Y-141181111D01*
X146214622Y-141150804D01*
X146323130Y-141150804D01*
X146359503Y-141171668D01*
X146391693Y-141233681D01*
X146393471Y-141246048D01*
X146404244Y-141362310D01*
X146462596Y-141567392D01*
X146462596Y-141567394D01*
X146557632Y-141758253D01*
X146686127Y-141928406D01*
X146686128Y-141928407D01*
X146843698Y-142072052D01*
X147024981Y-142184298D01*
X147223802Y-142261321D01*
X147433390Y-142300500D01*
X147433392Y-142300500D01*
X147646608Y-142300500D01*
X147646610Y-142300500D01*
X147856198Y-142261321D01*
X148055019Y-142184298D01*
X148236302Y-142072052D01*
X148393872Y-141928407D01*
X148522366Y-141758255D01*
X148523463Y-141756052D01*
X148617403Y-141567394D01*
X148617403Y-141567393D01*
X148617405Y-141567389D01*
X148675756Y-141362310D01*
X148686529Y-141246047D01*
X148712315Y-141181111D01*
X148754622Y-141150804D01*
X148863130Y-141150804D01*
X148899503Y-141171668D01*
X148931693Y-141233681D01*
X148933471Y-141246048D01*
X148944244Y-141362310D01*
X149002596Y-141567392D01*
X149002596Y-141567394D01*
X149097632Y-141758253D01*
X149226127Y-141928406D01*
X149226128Y-141928407D01*
X149383698Y-142072052D01*
X149564981Y-142184298D01*
X149763802Y-142261321D01*
X149973390Y-142300500D01*
X149973392Y-142300500D01*
X150186608Y-142300500D01*
X150186610Y-142300500D01*
X150396198Y-142261321D01*
X150595019Y-142184298D01*
X150776302Y-142072052D01*
X150933872Y-141928407D01*
X151062366Y-141758255D01*
X151063463Y-141756052D01*
X151157403Y-141567394D01*
X151157403Y-141567393D01*
X151157405Y-141567389D01*
X151215756Y-141362310D01*
X151226529Y-141246047D01*
X151252315Y-141181111D01*
X151294622Y-141150804D01*
X151403130Y-141150804D01*
X151439503Y-141171668D01*
X151471693Y-141233681D01*
X151473471Y-141246048D01*
X151484244Y-141362310D01*
X151542596Y-141567392D01*
X151542596Y-141567394D01*
X151637632Y-141758253D01*
X151766127Y-141928406D01*
X151766128Y-141928407D01*
X151923698Y-142072052D01*
X152104981Y-142184298D01*
X152303802Y-142261321D01*
X152513390Y-142300500D01*
X152513392Y-142300500D01*
X152726608Y-142300500D01*
X152726610Y-142300500D01*
X152936198Y-142261321D01*
X153135019Y-142184298D01*
X153316302Y-142072052D01*
X153473872Y-141928407D01*
X153602366Y-141758255D01*
X153603463Y-141756052D01*
X153697403Y-141567394D01*
X153697403Y-141567393D01*
X153697405Y-141567389D01*
X153755756Y-141362310D01*
X153766529Y-141246047D01*
X153792315Y-141181111D01*
X153834622Y-141150804D01*
X153943130Y-141150804D01*
X153979503Y-141171668D01*
X154011693Y-141233681D01*
X154013471Y-141246048D01*
X154024244Y-141362310D01*
X154082596Y-141567392D01*
X154082596Y-141567394D01*
X154177632Y-141758253D01*
X154306127Y-141928406D01*
X154306128Y-141928407D01*
X154463698Y-142072052D01*
X154644981Y-142184298D01*
X154843802Y-142261321D01*
X155053390Y-142300500D01*
X155053392Y-142300500D01*
X155266608Y-142300500D01*
X155266610Y-142300500D01*
X155476198Y-142261321D01*
X155675019Y-142184298D01*
X155856302Y-142072052D01*
X156013872Y-141928407D01*
X156142366Y-141758255D01*
X156143463Y-141756052D01*
X156237403Y-141567394D01*
X156237403Y-141567393D01*
X156237405Y-141567389D01*
X156295756Y-141362310D01*
X156306529Y-141246047D01*
X156332315Y-141181111D01*
X156374622Y-141150804D01*
X156483130Y-141150804D01*
X156519503Y-141171668D01*
X156551693Y-141233681D01*
X156553471Y-141246048D01*
X156564244Y-141362310D01*
X156622596Y-141567392D01*
X156622596Y-141567394D01*
X156717632Y-141758253D01*
X156846127Y-141928406D01*
X156846128Y-141928407D01*
X157003698Y-142072052D01*
X157184981Y-142184298D01*
X157383802Y-142261321D01*
X157593390Y-142300500D01*
X157593392Y-142300500D01*
X157806608Y-142300500D01*
X157806610Y-142300500D01*
X158016198Y-142261321D01*
X158215019Y-142184298D01*
X158396302Y-142072052D01*
X158553872Y-141928407D01*
X158682366Y-141758255D01*
X158683463Y-141756052D01*
X158777403Y-141567394D01*
X158777403Y-141567393D01*
X158777405Y-141567389D01*
X158835756Y-141362310D01*
X158855429Y-141150000D01*
X158835756Y-140937690D01*
X158777405Y-140732611D01*
X158777403Y-140732606D01*
X158777403Y-140732605D01*
X158682367Y-140541746D01*
X158553872Y-140371593D01*
X158543113Y-140361785D01*
X158396302Y-140227948D01*
X158224041Y-140121288D01*
X183149500Y-140121288D01*
X183181161Y-140361785D01*
X183243947Y-140596104D01*
X183336773Y-140820205D01*
X183336776Y-140820212D01*
X183458064Y-141030289D01*
X183458066Y-141030292D01*
X183458067Y-141030293D01*
X183605733Y-141222736D01*
X183605739Y-141222743D01*
X183777256Y-141394260D01*
X183777262Y-141394265D01*
X183969711Y-141541936D01*
X184179788Y-141663224D01*
X184403900Y-141756054D01*
X184638211Y-141818838D01*
X184818586Y-141842584D01*
X184878711Y-141850500D01*
X184878712Y-141850500D01*
X185121289Y-141850500D01*
X185169388Y-141844167D01*
X185361789Y-141818838D01*
X185596100Y-141756054D01*
X185820212Y-141663224D01*
X186030289Y-141541936D01*
X186222738Y-141394265D01*
X186394265Y-141222738D01*
X186541936Y-141030289D01*
X186663224Y-140820212D01*
X186756054Y-140596100D01*
X186818838Y-140361789D01*
X186850500Y-140121288D01*
X186850500Y-139878712D01*
X186818838Y-139638211D01*
X186756054Y-139403900D01*
X186663224Y-139179788D01*
X186541936Y-138969711D01*
X186394265Y-138777262D01*
X186394260Y-138777256D01*
X186222743Y-138605739D01*
X186222736Y-138605733D01*
X186030293Y-138458067D01*
X186030292Y-138458066D01*
X186030289Y-138458064D01*
X185820212Y-138336776D01*
X185820205Y-138336773D01*
X185596104Y-138243947D01*
X185361785Y-138181161D01*
X185121289Y-138149500D01*
X185121288Y-138149500D01*
X184878712Y-138149500D01*
X184878711Y-138149500D01*
X184638214Y-138181161D01*
X184403895Y-138243947D01*
X184179794Y-138336773D01*
X184179785Y-138336777D01*
X183969706Y-138458067D01*
X183777263Y-138605733D01*
X183777256Y-138605739D01*
X183605739Y-138777256D01*
X183605733Y-138777263D01*
X183458067Y-138969706D01*
X183336777Y-139179785D01*
X183336773Y-139179794D01*
X183243947Y-139403895D01*
X183181161Y-139638214D01*
X183149500Y-139878711D01*
X183149500Y-140121288D01*
X158224041Y-140121288D01*
X158215019Y-140115702D01*
X158215017Y-140115701D01*
X158115608Y-140077190D01*
X158016198Y-140038679D01*
X157806610Y-139999500D01*
X157593390Y-139999500D01*
X157383802Y-140038679D01*
X157383799Y-140038679D01*
X157383799Y-140038680D01*
X157184982Y-140115701D01*
X157184980Y-140115702D01*
X157003699Y-140227947D01*
X156846127Y-140371593D01*
X156717632Y-140541746D01*
X156622596Y-140732605D01*
X156622596Y-140732607D01*
X156564244Y-140937689D01*
X156553471Y-141053951D01*
X156527685Y-141118888D01*
X156483130Y-141150804D01*
X156374622Y-141150804D01*
X156376869Y-141149194D01*
X156340497Y-141128331D01*
X156308307Y-141066318D01*
X156306529Y-141053951D01*
X156304336Y-141030289D01*
X156295756Y-140937690D01*
X156237405Y-140732611D01*
X156237403Y-140732606D01*
X156237403Y-140732605D01*
X156142367Y-140541746D01*
X156013872Y-140371593D01*
X156003113Y-140361785D01*
X155856302Y-140227948D01*
X155675019Y-140115702D01*
X155675017Y-140115701D01*
X155575608Y-140077190D01*
X155476198Y-140038679D01*
X155266610Y-139999500D01*
X155053390Y-139999500D01*
X154843802Y-140038679D01*
X154843799Y-140038679D01*
X154843799Y-140038680D01*
X154644982Y-140115701D01*
X154644980Y-140115702D01*
X154463699Y-140227947D01*
X154306127Y-140371593D01*
X154177632Y-140541746D01*
X154082596Y-140732605D01*
X154082596Y-140732607D01*
X154024244Y-140937689D01*
X154013471Y-141053951D01*
X153987685Y-141118888D01*
X153943130Y-141150804D01*
X153834622Y-141150804D01*
X153836869Y-141149194D01*
X153800497Y-141128331D01*
X153768307Y-141066318D01*
X153766529Y-141053951D01*
X153764336Y-141030289D01*
X153755756Y-140937690D01*
X153697405Y-140732611D01*
X153697403Y-140732606D01*
X153697403Y-140732605D01*
X153602367Y-140541746D01*
X153473872Y-140371593D01*
X153463113Y-140361785D01*
X153316302Y-140227948D01*
X153135019Y-140115702D01*
X153135017Y-140115701D01*
X153035608Y-140077190D01*
X152936198Y-140038679D01*
X152726610Y-139999500D01*
X152513390Y-139999500D01*
X152303802Y-140038679D01*
X152303799Y-140038679D01*
X152303799Y-140038680D01*
X152104982Y-140115701D01*
X152104980Y-140115702D01*
X151923699Y-140227947D01*
X151766127Y-140371593D01*
X151637632Y-140541746D01*
X151542596Y-140732605D01*
X151542596Y-140732607D01*
X151484244Y-140937689D01*
X151473471Y-141053951D01*
X151447685Y-141118888D01*
X151403130Y-141150804D01*
X151294622Y-141150804D01*
X151296869Y-141149194D01*
X151260497Y-141128331D01*
X151228307Y-141066318D01*
X151226529Y-141053951D01*
X151224336Y-141030289D01*
X151215756Y-140937690D01*
X151157405Y-140732611D01*
X151157403Y-140732606D01*
X151157403Y-140732605D01*
X151062367Y-140541746D01*
X150933872Y-140371593D01*
X150923113Y-140361785D01*
X150776302Y-140227948D01*
X150595019Y-140115702D01*
X150595017Y-140115701D01*
X150495608Y-140077190D01*
X150396198Y-140038679D01*
X150186610Y-139999500D01*
X149973390Y-139999500D01*
X149763802Y-140038679D01*
X149763799Y-140038679D01*
X149763799Y-140038680D01*
X149564982Y-140115701D01*
X149564980Y-140115702D01*
X149383699Y-140227947D01*
X149226127Y-140371593D01*
X149097632Y-140541746D01*
X149002596Y-140732605D01*
X149002596Y-140732607D01*
X148944244Y-140937689D01*
X148933471Y-141053951D01*
X148907685Y-141118888D01*
X148863130Y-141150804D01*
X148754622Y-141150804D01*
X148756869Y-141149194D01*
X148720497Y-141128331D01*
X148688307Y-141066318D01*
X148686529Y-141053951D01*
X148684336Y-141030289D01*
X148675756Y-140937690D01*
X148617405Y-140732611D01*
X148617403Y-140732606D01*
X148617403Y-140732605D01*
X148522367Y-140541746D01*
X148393872Y-140371593D01*
X148383113Y-140361785D01*
X148236302Y-140227948D01*
X148055019Y-140115702D01*
X148055017Y-140115701D01*
X147955608Y-140077190D01*
X147856198Y-140038679D01*
X147646610Y-139999500D01*
X147433390Y-139999500D01*
X147223802Y-140038679D01*
X147223799Y-140038679D01*
X147223799Y-140038680D01*
X147024982Y-140115701D01*
X147024980Y-140115702D01*
X146843699Y-140227947D01*
X146686127Y-140371593D01*
X146557632Y-140541746D01*
X146462596Y-140732605D01*
X146462596Y-140732607D01*
X146404244Y-140937689D01*
X146393471Y-141053951D01*
X146367685Y-141118888D01*
X146323130Y-141150804D01*
X146214622Y-141150804D01*
X146216869Y-141149194D01*
X146180497Y-141128331D01*
X146148307Y-141066318D01*
X146146529Y-141053951D01*
X146144336Y-141030289D01*
X146135756Y-140937690D01*
X146077405Y-140732611D01*
X146077403Y-140732606D01*
X146077403Y-140732605D01*
X145982367Y-140541746D01*
X145853872Y-140371593D01*
X145843113Y-140361785D01*
X145696302Y-140227948D01*
X145515019Y-140115702D01*
X145515017Y-140115701D01*
X145415608Y-140077190D01*
X145316198Y-140038679D01*
X145106610Y-139999500D01*
X144893390Y-139999500D01*
X144683802Y-140038679D01*
X144683799Y-140038679D01*
X144683799Y-140038680D01*
X144484982Y-140115701D01*
X144484980Y-140115702D01*
X144303699Y-140227947D01*
X144146127Y-140371593D01*
X144017632Y-140541746D01*
X143922596Y-140732605D01*
X143922596Y-140732607D01*
X143864244Y-140937689D01*
X143853471Y-141053951D01*
X143827685Y-141118888D01*
X143783130Y-141150804D01*
X143674622Y-141150804D01*
X143676869Y-141149194D01*
X143640497Y-141128331D01*
X143608307Y-141066318D01*
X143606529Y-141053951D01*
X143604336Y-141030289D01*
X143595756Y-140937690D01*
X143537405Y-140732611D01*
X143537403Y-140732606D01*
X143537403Y-140732605D01*
X143442367Y-140541746D01*
X143313872Y-140371593D01*
X143303113Y-140361785D01*
X143156302Y-140227948D01*
X142975019Y-140115702D01*
X142975017Y-140115701D01*
X142875608Y-140077190D01*
X142776198Y-140038679D01*
X142566610Y-139999500D01*
X142353390Y-139999500D01*
X142143802Y-140038679D01*
X142143799Y-140038679D01*
X142143799Y-140038680D01*
X141944982Y-140115701D01*
X141944980Y-140115702D01*
X141763699Y-140227947D01*
X141606127Y-140371593D01*
X141477632Y-140541746D01*
X141382596Y-140732605D01*
X141382596Y-140732607D01*
X141324244Y-140937689D01*
X141313471Y-141053951D01*
X141287685Y-141118888D01*
X141243130Y-141150804D01*
X141134622Y-141150804D01*
X141136869Y-141149194D01*
X141100497Y-141128331D01*
X141068307Y-141066318D01*
X141066529Y-141053951D01*
X141064336Y-141030289D01*
X141055756Y-140937690D01*
X140997405Y-140732611D01*
X140997403Y-140732606D01*
X140997403Y-140732605D01*
X140902367Y-140541746D01*
X140773872Y-140371593D01*
X140763113Y-140361785D01*
X140616302Y-140227948D01*
X140435019Y-140115702D01*
X140435017Y-140115701D01*
X140335608Y-140077190D01*
X140236198Y-140038679D01*
X140026610Y-139999500D01*
X139813390Y-139999500D01*
X139603802Y-140038679D01*
X139603799Y-140038679D01*
X139603799Y-140038680D01*
X139404982Y-140115701D01*
X139404980Y-140115702D01*
X139223699Y-140227947D01*
X139066127Y-140371593D01*
X138937632Y-140541746D01*
X138842596Y-140732605D01*
X138842596Y-140732607D01*
X138784244Y-140937689D01*
X138773471Y-141053951D01*
X138747685Y-141118888D01*
X138703130Y-141150804D01*
X138594622Y-141150804D01*
X138596869Y-141149194D01*
X138560497Y-141128331D01*
X138528307Y-141066318D01*
X138526529Y-141053951D01*
X138524336Y-141030289D01*
X138515756Y-140937690D01*
X138457405Y-140732611D01*
X138457403Y-140732606D01*
X138457403Y-140732605D01*
X138362367Y-140541746D01*
X138233872Y-140371593D01*
X138223113Y-140361785D01*
X138076302Y-140227948D01*
X137895019Y-140115702D01*
X137895017Y-140115701D01*
X137795608Y-140077190D01*
X137696198Y-140038679D01*
X137486610Y-139999500D01*
X137273390Y-139999500D01*
X137063802Y-140038679D01*
X137063799Y-140038679D01*
X137063799Y-140038680D01*
X136864982Y-140115701D01*
X136864980Y-140115702D01*
X136683699Y-140227947D01*
X136526127Y-140371593D01*
X136397632Y-140541746D01*
X136302596Y-140732605D01*
X136302596Y-140732607D01*
X136244244Y-140937689D01*
X136233471Y-141053951D01*
X136207685Y-141118888D01*
X136163130Y-141150804D01*
X136054622Y-141150804D01*
X136056869Y-141149194D01*
X136020497Y-141128331D01*
X135988307Y-141066318D01*
X135986529Y-141053951D01*
X135984336Y-141030289D01*
X135975756Y-140937690D01*
X135917405Y-140732611D01*
X135917403Y-140732606D01*
X135917403Y-140732605D01*
X135822367Y-140541746D01*
X135693872Y-140371593D01*
X135683113Y-140361785D01*
X135536302Y-140227948D01*
X135355019Y-140115702D01*
X135355017Y-140115701D01*
X135255608Y-140077190D01*
X135156198Y-140038679D01*
X134946610Y-139999500D01*
X134733390Y-139999500D01*
X134523802Y-140038679D01*
X134523799Y-140038679D01*
X134523799Y-140038680D01*
X134324982Y-140115701D01*
X134324980Y-140115702D01*
X134143699Y-140227947D01*
X133986127Y-140371593D01*
X133857632Y-140541746D01*
X133762596Y-140732605D01*
X133762596Y-140732607D01*
X133704244Y-140937689D01*
X133693471Y-141053951D01*
X133667685Y-141118888D01*
X133623130Y-141150804D01*
X133514622Y-141150804D01*
X133516869Y-141149194D01*
X133480497Y-141128331D01*
X133448307Y-141066318D01*
X133446529Y-141053951D01*
X133444336Y-141030289D01*
X133435756Y-140937690D01*
X133377405Y-140732611D01*
X133377403Y-140732606D01*
X133377403Y-140732605D01*
X133282367Y-140541746D01*
X133153872Y-140371593D01*
X133143113Y-140361785D01*
X132996302Y-140227948D01*
X132815019Y-140115702D01*
X132815017Y-140115701D01*
X132715608Y-140077190D01*
X132616198Y-140038679D01*
X132406610Y-139999500D01*
X132193390Y-139999500D01*
X131983802Y-140038679D01*
X131983799Y-140038679D01*
X131983799Y-140038680D01*
X131784982Y-140115701D01*
X131784980Y-140115702D01*
X131603699Y-140227947D01*
X131446127Y-140371593D01*
X131317632Y-140541746D01*
X131222596Y-140732605D01*
X131222596Y-140732607D01*
X131164244Y-140937689D01*
X131144571Y-141149999D01*
X131144571Y-141150000D01*
X106450079Y-141150000D01*
X106541936Y-141030289D01*
X106663224Y-140820212D01*
X106756054Y-140596100D01*
X106818838Y-140361789D01*
X106850500Y-140121288D01*
X106850500Y-139878712D01*
X106818838Y-139638211D01*
X106756054Y-139403900D01*
X106663224Y-139179788D01*
X106541936Y-138969711D01*
X106394265Y-138777262D01*
X106394260Y-138777256D01*
X106222743Y-138605739D01*
X106222736Y-138605733D01*
X106030293Y-138458067D01*
X106030292Y-138458066D01*
X106030289Y-138458064D01*
X105820212Y-138336776D01*
X105820205Y-138336773D01*
X105596104Y-138243947D01*
X105361785Y-138181161D01*
X105121289Y-138149500D01*
X105121288Y-138149500D01*
X104878712Y-138149500D01*
X104878711Y-138149500D01*
X104638214Y-138181161D01*
X104403895Y-138243947D01*
X104179794Y-138336773D01*
X104179785Y-138336777D01*
X103969706Y-138458067D01*
X103777263Y-138605733D01*
X103777256Y-138605739D01*
X103605739Y-138777256D01*
X103605733Y-138777263D01*
X103458067Y-138969706D01*
X103336777Y-139179785D01*
X103336773Y-139179794D01*
X103243947Y-139403895D01*
X103181161Y-139638214D01*
X103149500Y-139878711D01*
X103149500Y-140121288D01*
X100621288Y-140121288D01*
X100536319Y-140036319D01*
X100502834Y-139974996D01*
X100500000Y-139948638D01*
X100500000Y-118850000D01*
X131144571Y-118850000D01*
X131164244Y-119062310D01*
X131222596Y-119267392D01*
X131222596Y-119267394D01*
X131317632Y-119458253D01*
X131317634Y-119458255D01*
X131446128Y-119628407D01*
X131603698Y-119772052D01*
X131784981Y-119884298D01*
X131983802Y-119961321D01*
X132193390Y-120000500D01*
X132193392Y-120000500D01*
X132406608Y-120000500D01*
X132406610Y-120000500D01*
X132616198Y-119961321D01*
X132815019Y-119884298D01*
X132996302Y-119772052D01*
X133153872Y-119628407D01*
X133282366Y-119458255D01*
X133377405Y-119267389D01*
X133435756Y-119062310D01*
X133446529Y-118946047D01*
X133472315Y-118881111D01*
X133514622Y-118850804D01*
X133623130Y-118850804D01*
X133659503Y-118871668D01*
X133691693Y-118933681D01*
X133693471Y-118946048D01*
X133704244Y-119062310D01*
X133762596Y-119267392D01*
X133762596Y-119267394D01*
X133857632Y-119458253D01*
X133857634Y-119458255D01*
X133986128Y-119628407D01*
X134143698Y-119772052D01*
X134324981Y-119884298D01*
X134523802Y-119961321D01*
X134733390Y-120000500D01*
X134733392Y-120000500D01*
X134946608Y-120000500D01*
X134946610Y-120000500D01*
X135156198Y-119961321D01*
X135355019Y-119884298D01*
X135536302Y-119772052D01*
X135693872Y-119628407D01*
X135822366Y-119458255D01*
X135917405Y-119267389D01*
X135975756Y-119062310D01*
X135986529Y-118946047D01*
X136012315Y-118881111D01*
X136054622Y-118850804D01*
X136163130Y-118850804D01*
X136199503Y-118871668D01*
X136231693Y-118933681D01*
X136233471Y-118946048D01*
X136244244Y-119062310D01*
X136302596Y-119267392D01*
X136302596Y-119267394D01*
X136397632Y-119458253D01*
X136397634Y-119458255D01*
X136526128Y-119628407D01*
X136683698Y-119772052D01*
X136864981Y-119884298D01*
X137063802Y-119961321D01*
X137273390Y-120000500D01*
X137273392Y-120000500D01*
X137486608Y-120000500D01*
X137486610Y-120000500D01*
X137696198Y-119961321D01*
X137895019Y-119884298D01*
X138076302Y-119772052D01*
X138233872Y-119628407D01*
X138362366Y-119458255D01*
X138457405Y-119267389D01*
X138515756Y-119062310D01*
X138526529Y-118946047D01*
X138552315Y-118881111D01*
X138594622Y-118850804D01*
X138703130Y-118850804D01*
X138739503Y-118871668D01*
X138771693Y-118933681D01*
X138773471Y-118946048D01*
X138784244Y-119062310D01*
X138842596Y-119267392D01*
X138842596Y-119267394D01*
X138937632Y-119458253D01*
X138937634Y-119458255D01*
X139066128Y-119628407D01*
X139223698Y-119772052D01*
X139404981Y-119884298D01*
X139603802Y-119961321D01*
X139813390Y-120000500D01*
X139813392Y-120000500D01*
X140026608Y-120000500D01*
X140026610Y-120000500D01*
X140236198Y-119961321D01*
X140435019Y-119884298D01*
X140616302Y-119772052D01*
X140773872Y-119628407D01*
X140902366Y-119458255D01*
X140997405Y-119267389D01*
X141055756Y-119062310D01*
X141066529Y-118946047D01*
X141092315Y-118881111D01*
X141134622Y-118850804D01*
X141243130Y-118850804D01*
X141279503Y-118871668D01*
X141311693Y-118933681D01*
X141313471Y-118946048D01*
X141324244Y-119062310D01*
X141382596Y-119267392D01*
X141382596Y-119267394D01*
X141477632Y-119458253D01*
X141477634Y-119458255D01*
X141606128Y-119628407D01*
X141763698Y-119772052D01*
X141944981Y-119884298D01*
X142143802Y-119961321D01*
X142353390Y-120000500D01*
X142353392Y-120000500D01*
X142566608Y-120000500D01*
X142566610Y-120000500D01*
X142776198Y-119961321D01*
X142975019Y-119884298D01*
X143156302Y-119772052D01*
X143313872Y-119628407D01*
X143442366Y-119458255D01*
X143537405Y-119267389D01*
X143595756Y-119062310D01*
X143606529Y-118946047D01*
X143632315Y-118881111D01*
X143674622Y-118850804D01*
X143783130Y-118850804D01*
X143819503Y-118871668D01*
X143851693Y-118933681D01*
X143853471Y-118946048D01*
X143864244Y-119062310D01*
X143922596Y-119267392D01*
X143922596Y-119267394D01*
X144017632Y-119458253D01*
X144017634Y-119458255D01*
X144146128Y-119628407D01*
X144303698Y-119772052D01*
X144484981Y-119884298D01*
X144683802Y-119961321D01*
X144893390Y-120000500D01*
X144893392Y-120000500D01*
X145106608Y-120000500D01*
X145106610Y-120000500D01*
X145316198Y-119961321D01*
X145515019Y-119884298D01*
X145696302Y-119772052D01*
X145853872Y-119628407D01*
X145982366Y-119458255D01*
X146077405Y-119267389D01*
X146135756Y-119062310D01*
X146146529Y-118946047D01*
X146172315Y-118881111D01*
X146214622Y-118850804D01*
X146323130Y-118850804D01*
X146359503Y-118871668D01*
X146391693Y-118933681D01*
X146393471Y-118946048D01*
X146404244Y-119062310D01*
X146462596Y-119267392D01*
X146462596Y-119267394D01*
X146557632Y-119458253D01*
X146557634Y-119458255D01*
X146686128Y-119628407D01*
X146843698Y-119772052D01*
X147024981Y-119884298D01*
X147223802Y-119961321D01*
X147433390Y-120000500D01*
X147433392Y-120000500D01*
X147646608Y-120000500D01*
X147646610Y-120000500D01*
X147856198Y-119961321D01*
X148055019Y-119884298D01*
X148236302Y-119772052D01*
X148393872Y-119628407D01*
X148522366Y-119458255D01*
X148617405Y-119267389D01*
X148675756Y-119062310D01*
X148686529Y-118946047D01*
X148712315Y-118881111D01*
X148754622Y-118850804D01*
X148863130Y-118850804D01*
X148899503Y-118871668D01*
X148931693Y-118933681D01*
X148933471Y-118946048D01*
X148944244Y-119062310D01*
X149002596Y-119267392D01*
X149002596Y-119267394D01*
X149097632Y-119458253D01*
X149097634Y-119458255D01*
X149226128Y-119628407D01*
X149383698Y-119772052D01*
X149564981Y-119884298D01*
X149763802Y-119961321D01*
X149973390Y-120000500D01*
X149973392Y-120000500D01*
X150186608Y-120000500D01*
X150186610Y-120000500D01*
X150396198Y-119961321D01*
X150595019Y-119884298D01*
X150776302Y-119772052D01*
X150933872Y-119628407D01*
X151062366Y-119458255D01*
X151157405Y-119267389D01*
X151215756Y-119062310D01*
X151226529Y-118946047D01*
X151252315Y-118881111D01*
X151294622Y-118850804D01*
X151403130Y-118850804D01*
X151439503Y-118871668D01*
X151471693Y-118933681D01*
X151473471Y-118946048D01*
X151484244Y-119062310D01*
X151542596Y-119267392D01*
X151542596Y-119267394D01*
X151637632Y-119458253D01*
X151637634Y-119458255D01*
X151766128Y-119628407D01*
X151923698Y-119772052D01*
X152104981Y-119884298D01*
X152303802Y-119961321D01*
X152513390Y-120000500D01*
X152513392Y-120000500D01*
X152726608Y-120000500D01*
X152726610Y-120000500D01*
X152936198Y-119961321D01*
X153135019Y-119884298D01*
X153316302Y-119772052D01*
X153473872Y-119628407D01*
X153602366Y-119458255D01*
X153697405Y-119267389D01*
X153755756Y-119062310D01*
X153766529Y-118946047D01*
X153792315Y-118881111D01*
X153834622Y-118850804D01*
X153943130Y-118850804D01*
X153979503Y-118871668D01*
X154011693Y-118933681D01*
X154013471Y-118946048D01*
X154024244Y-119062310D01*
X154082596Y-119267392D01*
X154082596Y-119267394D01*
X154177632Y-119458253D01*
X154177634Y-119458255D01*
X154306128Y-119628407D01*
X154463698Y-119772052D01*
X154644981Y-119884298D01*
X154843802Y-119961321D01*
X155053390Y-120000500D01*
X155053392Y-120000500D01*
X155266608Y-120000500D01*
X155266610Y-120000500D01*
X155476198Y-119961321D01*
X155675019Y-119884298D01*
X155856302Y-119772052D01*
X156013872Y-119628407D01*
X156142366Y-119458255D01*
X156237405Y-119267389D01*
X156295756Y-119062310D01*
X156306529Y-118946047D01*
X156332315Y-118881111D01*
X156374622Y-118850804D01*
X156483130Y-118850804D01*
X156519503Y-118871668D01*
X156551693Y-118933681D01*
X156553471Y-118946048D01*
X156564244Y-119062310D01*
X156622596Y-119267392D01*
X156622596Y-119267394D01*
X156717632Y-119458253D01*
X156717634Y-119458255D01*
X156846128Y-119628407D01*
X157003698Y-119772052D01*
X157184981Y-119884298D01*
X157383802Y-119961321D01*
X157593390Y-120000500D01*
X157593392Y-120000500D01*
X157806608Y-120000500D01*
X157806610Y-120000500D01*
X158016198Y-119961321D01*
X158215019Y-119884298D01*
X158396302Y-119772052D01*
X158553872Y-119628407D01*
X158682366Y-119458255D01*
X158777405Y-119267389D01*
X158835756Y-119062310D01*
X158855429Y-118850000D01*
X158835756Y-118637690D01*
X158777405Y-118432611D01*
X158777403Y-118432606D01*
X158777403Y-118432605D01*
X158682367Y-118241746D01*
X158553872Y-118071593D01*
X158396302Y-117927948D01*
X158215019Y-117815702D01*
X158215017Y-117815701D01*
X158115608Y-117777190D01*
X158016198Y-117738679D01*
X157806610Y-117699500D01*
X157593390Y-117699500D01*
X157383802Y-117738679D01*
X157383799Y-117738679D01*
X157383799Y-117738680D01*
X157184982Y-117815701D01*
X157184980Y-117815702D01*
X157003699Y-117927947D01*
X156846127Y-118071593D01*
X156717632Y-118241746D01*
X156622596Y-118432605D01*
X156622596Y-118432607D01*
X156564244Y-118637689D01*
X156553471Y-118753951D01*
X156527685Y-118818888D01*
X156483130Y-118850804D01*
X156374622Y-118850804D01*
X156376869Y-118849194D01*
X156340497Y-118828331D01*
X156308307Y-118766318D01*
X156306529Y-118753951D01*
X156305849Y-118746613D01*
X156295756Y-118637690D01*
X156237405Y-118432611D01*
X156237403Y-118432606D01*
X156237403Y-118432605D01*
X156142367Y-118241746D01*
X156013872Y-118071593D01*
X155856302Y-117927948D01*
X155675019Y-117815702D01*
X155675017Y-117815701D01*
X155575608Y-117777190D01*
X155476198Y-117738679D01*
X155266610Y-117699500D01*
X155053390Y-117699500D01*
X154843802Y-117738679D01*
X154843799Y-117738679D01*
X154843799Y-117738680D01*
X154644982Y-117815701D01*
X154644980Y-117815702D01*
X154463699Y-117927947D01*
X154306127Y-118071593D01*
X154177632Y-118241746D01*
X154082596Y-118432605D01*
X154082596Y-118432607D01*
X154024244Y-118637689D01*
X154013471Y-118753951D01*
X153987685Y-118818888D01*
X153943130Y-118850804D01*
X153834622Y-118850804D01*
X153836869Y-118849194D01*
X153800497Y-118828331D01*
X153768307Y-118766318D01*
X153766529Y-118753951D01*
X153765849Y-118746613D01*
X153755756Y-118637690D01*
X153697405Y-118432611D01*
X153697403Y-118432606D01*
X153697403Y-118432605D01*
X153602367Y-118241746D01*
X153473872Y-118071593D01*
X153316302Y-117927948D01*
X153135019Y-117815702D01*
X153135017Y-117815701D01*
X153035608Y-117777190D01*
X152936198Y-117738679D01*
X152726610Y-117699500D01*
X152513390Y-117699500D01*
X152303802Y-117738679D01*
X152303799Y-117738679D01*
X152303799Y-117738680D01*
X152104982Y-117815701D01*
X152104980Y-117815702D01*
X151923699Y-117927947D01*
X151766127Y-118071593D01*
X151637632Y-118241746D01*
X151542596Y-118432605D01*
X151542596Y-118432607D01*
X151484244Y-118637689D01*
X151473471Y-118753951D01*
X151447685Y-118818888D01*
X151403130Y-118850804D01*
X151294622Y-118850804D01*
X151296869Y-118849194D01*
X151260497Y-118828331D01*
X151228307Y-118766318D01*
X151226529Y-118753951D01*
X151225849Y-118746613D01*
X151215756Y-118637690D01*
X151157405Y-118432611D01*
X151157403Y-118432606D01*
X151157403Y-118432605D01*
X151062367Y-118241746D01*
X150933872Y-118071593D01*
X150776302Y-117927948D01*
X150595019Y-117815702D01*
X150595017Y-117815701D01*
X150495608Y-117777190D01*
X150396198Y-117738679D01*
X150186610Y-117699500D01*
X149973390Y-117699500D01*
X149763802Y-117738679D01*
X149763799Y-117738679D01*
X149763799Y-117738680D01*
X149564982Y-117815701D01*
X149564980Y-117815702D01*
X149383699Y-117927947D01*
X149226127Y-118071593D01*
X149097632Y-118241746D01*
X149002596Y-118432605D01*
X149002596Y-118432607D01*
X148944244Y-118637689D01*
X148933471Y-118753951D01*
X148907685Y-118818888D01*
X148863130Y-118850804D01*
X148754622Y-118850804D01*
X148756869Y-118849194D01*
X148720497Y-118828331D01*
X148688307Y-118766318D01*
X148686529Y-118753951D01*
X148685849Y-118746613D01*
X148675756Y-118637690D01*
X148617405Y-118432611D01*
X148617403Y-118432606D01*
X148617403Y-118432605D01*
X148522367Y-118241746D01*
X148393872Y-118071593D01*
X148236302Y-117927948D01*
X148055019Y-117815702D01*
X148055017Y-117815701D01*
X147955608Y-117777190D01*
X147856198Y-117738679D01*
X147646610Y-117699500D01*
X147433390Y-117699500D01*
X147223802Y-117738679D01*
X147223799Y-117738679D01*
X147223799Y-117738680D01*
X147024982Y-117815701D01*
X147024980Y-117815702D01*
X146843699Y-117927947D01*
X146686127Y-118071593D01*
X146557632Y-118241746D01*
X146462596Y-118432605D01*
X146462596Y-118432607D01*
X146404244Y-118637689D01*
X146393471Y-118753951D01*
X146367685Y-118818888D01*
X146323130Y-118850804D01*
X146214622Y-118850804D01*
X146216869Y-118849194D01*
X146180497Y-118828331D01*
X146148307Y-118766318D01*
X146146529Y-118753951D01*
X146145849Y-118746613D01*
X146135756Y-118637690D01*
X146077405Y-118432611D01*
X146077403Y-118432606D01*
X146077403Y-118432605D01*
X145982367Y-118241746D01*
X145853872Y-118071593D01*
X145696302Y-117927948D01*
X145515019Y-117815702D01*
X145515017Y-117815701D01*
X145415608Y-117777190D01*
X145316198Y-117738679D01*
X145106610Y-117699500D01*
X144893390Y-117699500D01*
X144683802Y-117738679D01*
X144683799Y-117738679D01*
X144683799Y-117738680D01*
X144484982Y-117815701D01*
X144484980Y-117815702D01*
X144303699Y-117927947D01*
X144146127Y-118071593D01*
X144017632Y-118241746D01*
X143922596Y-118432605D01*
X143922596Y-118432607D01*
X143864244Y-118637689D01*
X143853471Y-118753951D01*
X143827685Y-118818888D01*
X143783130Y-118850804D01*
X143674622Y-118850804D01*
X143676869Y-118849194D01*
X143640497Y-118828331D01*
X143608307Y-118766318D01*
X143606529Y-118753951D01*
X143605849Y-118746613D01*
X143595756Y-118637690D01*
X143537405Y-118432611D01*
X143537403Y-118432606D01*
X143537403Y-118432605D01*
X143442367Y-118241746D01*
X143313872Y-118071593D01*
X143156302Y-117927948D01*
X142975019Y-117815702D01*
X142975017Y-117815701D01*
X142875608Y-117777190D01*
X142776198Y-117738679D01*
X142566610Y-117699500D01*
X142353390Y-117699500D01*
X142143802Y-117738679D01*
X142143799Y-117738679D01*
X142143799Y-117738680D01*
X141944982Y-117815701D01*
X141944980Y-117815702D01*
X141763699Y-117927947D01*
X141606127Y-118071593D01*
X141477632Y-118241746D01*
X141382596Y-118432605D01*
X141382596Y-118432607D01*
X141324244Y-118637689D01*
X141313471Y-118753951D01*
X141287685Y-118818888D01*
X141243130Y-118850804D01*
X141134622Y-118850804D01*
X141136869Y-118849194D01*
X141100497Y-118828331D01*
X141068307Y-118766318D01*
X141066529Y-118753951D01*
X141065849Y-118746613D01*
X141055756Y-118637690D01*
X140997405Y-118432611D01*
X140997403Y-118432606D01*
X140997403Y-118432605D01*
X140902367Y-118241746D01*
X140773872Y-118071593D01*
X140616302Y-117927948D01*
X140435019Y-117815702D01*
X140435017Y-117815701D01*
X140335608Y-117777190D01*
X140236198Y-117738679D01*
X140026610Y-117699500D01*
X139813390Y-117699500D01*
X139603802Y-117738679D01*
X139603799Y-117738679D01*
X139603799Y-117738680D01*
X139404982Y-117815701D01*
X139404980Y-117815702D01*
X139223699Y-117927947D01*
X139066127Y-118071593D01*
X138937632Y-118241746D01*
X138842596Y-118432605D01*
X138842596Y-118432607D01*
X138784244Y-118637689D01*
X138773471Y-118753951D01*
X138747685Y-118818888D01*
X138703130Y-118850804D01*
X138594622Y-118850804D01*
X138596869Y-118849194D01*
X138560497Y-118828331D01*
X138528307Y-118766318D01*
X138526529Y-118753951D01*
X138525849Y-118746613D01*
X138515756Y-118637690D01*
X138457405Y-118432611D01*
X138457403Y-118432606D01*
X138457403Y-118432605D01*
X138362367Y-118241746D01*
X138233872Y-118071593D01*
X138076302Y-117927948D01*
X137895019Y-117815702D01*
X137895017Y-117815701D01*
X137795608Y-117777190D01*
X137696198Y-117738679D01*
X137486610Y-117699500D01*
X137273390Y-117699500D01*
X137063802Y-117738679D01*
X137063799Y-117738679D01*
X137063799Y-117738680D01*
X136864982Y-117815701D01*
X136864980Y-117815702D01*
X136683699Y-117927947D01*
X136526127Y-118071593D01*
X136397632Y-118241746D01*
X136302596Y-118432605D01*
X136302596Y-118432607D01*
X136244244Y-118637689D01*
X136233471Y-118753951D01*
X136207685Y-118818888D01*
X136163130Y-118850804D01*
X136054622Y-118850804D01*
X136056869Y-118849194D01*
X136020497Y-118828331D01*
X135988307Y-118766318D01*
X135986529Y-118753951D01*
X135985849Y-118746613D01*
X135975756Y-118637690D01*
X135917405Y-118432611D01*
X135917403Y-118432606D01*
X135917403Y-118432605D01*
X135822367Y-118241746D01*
X135693872Y-118071593D01*
X135536302Y-117927948D01*
X135355019Y-117815702D01*
X135355017Y-117815701D01*
X135255608Y-117777190D01*
X135156198Y-117738679D01*
X134946610Y-117699500D01*
X134733390Y-117699500D01*
X134523802Y-117738679D01*
X134523799Y-117738679D01*
X134523799Y-117738680D01*
X134324982Y-117815701D01*
X134324980Y-117815702D01*
X134143699Y-117927947D01*
X133986127Y-118071593D01*
X133857632Y-118241746D01*
X133762596Y-118432605D01*
X133762596Y-118432607D01*
X133704244Y-118637689D01*
X133693471Y-118753951D01*
X133667685Y-118818888D01*
X133623130Y-118850804D01*
X133514622Y-118850804D01*
X133516869Y-118849194D01*
X133480497Y-118828331D01*
X133448307Y-118766318D01*
X133446529Y-118753951D01*
X133445849Y-118746613D01*
X133435756Y-118637690D01*
X133377405Y-118432611D01*
X133377403Y-118432606D01*
X133377403Y-118432605D01*
X133282367Y-118241746D01*
X133153872Y-118071593D01*
X132996302Y-117927948D01*
X132815019Y-117815702D01*
X132815017Y-117815701D01*
X132715608Y-117777190D01*
X132616198Y-117738679D01*
X132406610Y-117699500D01*
X132193390Y-117699500D01*
X131983802Y-117738679D01*
X131983799Y-117738679D01*
X131983799Y-117738680D01*
X131784982Y-117815701D01*
X131784980Y-117815702D01*
X131603699Y-117927947D01*
X131446127Y-118071593D01*
X131317632Y-118241746D01*
X131222596Y-118432605D01*
X131222596Y-118432607D01*
X131164244Y-118637689D01*
X131144571Y-118849999D01*
X131144571Y-118850000D01*
X100500000Y-118850000D01*
X100500000Y-111400000D01*
X121444750Y-111400000D01*
X121463670Y-111543708D01*
X121463671Y-111543712D01*
X121519137Y-111677622D01*
X121519138Y-111677624D01*
X121519139Y-111677625D01*
X121607379Y-111792621D01*
X121722375Y-111880861D01*
X121856291Y-111936330D01*
X121983280Y-111953048D01*
X121999999Y-111955250D01*
X122000000Y-111955250D01*
X122000001Y-111955250D01*
X122014977Y-111953278D01*
X122143709Y-111936330D01*
X122277625Y-111880861D01*
X122277631Y-111880855D01*
X122284299Y-111877007D01*
X122352198Y-111860531D01*
X122418226Y-111883380D01*
X122460865Y-111936939D01*
X122468450Y-111955250D01*
X122519139Y-112077625D01*
X122607379Y-112192621D01*
X122722375Y-112280861D01*
X122856291Y-112336330D01*
X122983280Y-112353048D01*
X122999999Y-112355250D01*
X123000000Y-112355250D01*
X123000001Y-112355250D01*
X123014977Y-112353278D01*
X123143709Y-112336330D01*
X123277625Y-112280861D01*
X123392621Y-112192621D01*
X123426083Y-112149013D01*
X123482511Y-112107811D01*
X123524458Y-112100500D01*
X126175542Y-112100500D01*
X126242581Y-112120185D01*
X126273917Y-112149013D01*
X126307379Y-112192621D01*
X126422375Y-112280861D01*
X126556291Y-112336330D01*
X126683280Y-112353048D01*
X126699999Y-112355250D01*
X126700000Y-112355250D01*
X126700001Y-112355250D01*
X126714977Y-112353278D01*
X126843709Y-112336330D01*
X126977625Y-112280861D01*
X127092621Y-112192621D01*
X127180861Y-112077625D01*
X127236330Y-111943709D01*
X127245188Y-111876419D01*
X127273454Y-111812526D01*
X127331778Y-111774054D01*
X127401643Y-111773222D01*
X127415579Y-111778046D01*
X127422374Y-111780860D01*
X127422375Y-111780861D01*
X127556291Y-111836330D01*
X127683280Y-111853048D01*
X127699999Y-111855250D01*
X127700000Y-111855250D01*
X127700001Y-111855250D01*
X127714977Y-111853278D01*
X127843709Y-111836330D01*
X127977625Y-111780861D01*
X128092621Y-111692621D01*
X128180861Y-111577625D01*
X128236330Y-111443709D01*
X128255250Y-111300000D01*
X128236330Y-111156291D01*
X128180861Y-111022375D01*
X128092621Y-110907379D01*
X127977625Y-110819139D01*
X127977624Y-110819138D01*
X127977622Y-110819137D01*
X127843712Y-110763671D01*
X127843710Y-110763670D01*
X127843709Y-110763670D01*
X127743675Y-110750500D01*
X127700001Y-110744750D01*
X127699999Y-110744750D01*
X127626827Y-110754383D01*
X127557792Y-110743617D01*
X127548648Y-110738834D01*
X127535546Y-110731270D01*
X127515990Y-110719979D01*
X127490513Y-110713152D01*
X127439562Y-110699500D01*
X125839562Y-110699500D01*
X122360438Y-110699500D01*
X122293039Y-110717559D01*
X122284007Y-110719980D01*
X122231148Y-110750499D01*
X122215489Y-110759539D01*
X122158361Y-110816667D01*
X122097037Y-110850151D01*
X122054495Y-110851924D01*
X122000001Y-110844750D01*
X121999999Y-110844750D01*
X121856291Y-110863670D01*
X121856287Y-110863671D01*
X121722377Y-110919137D01*
X121607379Y-111007379D01*
X121519137Y-111122377D01*
X121463671Y-111256287D01*
X121463670Y-111256291D01*
X121444750Y-111399999D01*
X121444750Y-111400000D01*
X100500000Y-111400000D01*
X100500000Y-107460000D01*
X108461857Y-107460000D01*
X108482384Y-107681535D01*
X108482385Y-107681537D01*
X108543269Y-107895523D01*
X108543275Y-107895538D01*
X108642438Y-108094683D01*
X108642443Y-108094691D01*
X108776520Y-108272238D01*
X108940937Y-108422123D01*
X108940939Y-108422125D01*
X109130095Y-108539245D01*
X109130101Y-108539248D01*
X109183341Y-108559873D01*
X109238742Y-108602446D01*
X109262333Y-108668213D01*
X109246622Y-108736293D01*
X109196598Y-108785072D01*
X109138547Y-108799500D01*
X108647747Y-108799500D01*
X108589270Y-108811131D01*
X108589269Y-108811132D01*
X108522947Y-108855447D01*
X108478632Y-108921769D01*
X108478631Y-108921770D01*
X108467000Y-108980247D01*
X108467000Y-111019752D01*
X108478631Y-111078229D01*
X108478632Y-111078230D01*
X108522947Y-111144552D01*
X108589269Y-111188867D01*
X108589270Y-111188868D01*
X108647747Y-111200499D01*
X108647750Y-111200500D01*
X108647752Y-111200500D01*
X110687250Y-111200500D01*
X110687251Y-111200499D01*
X110702068Y-111197552D01*
X110745729Y-111188868D01*
X110745729Y-111188867D01*
X110745731Y-111188867D01*
X110812052Y-111144552D01*
X110856367Y-111078231D01*
X110856367Y-111078229D01*
X110856368Y-111078229D01*
X110867999Y-111019752D01*
X110868000Y-111019750D01*
X110868000Y-109200000D01*
X158144815Y-109200000D01*
X158163503Y-109377805D01*
X158163504Y-109377807D01*
X158218747Y-109547829D01*
X158218750Y-109547835D01*
X158308141Y-109702665D01*
X158349812Y-109748946D01*
X158427764Y-109835521D01*
X158427767Y-109835523D01*
X158427770Y-109835526D01*
X158572407Y-109940612D01*
X158735733Y-110013329D01*
X158910609Y-110050500D01*
X158910610Y-110050500D01*
X159089389Y-110050500D01*
X159089391Y-110050500D01*
X159264267Y-110013329D01*
X159427593Y-109940612D01*
X159572230Y-109835526D01*
X159691859Y-109702665D01*
X159781250Y-109547835D01*
X159836497Y-109377803D01*
X159855185Y-109200000D01*
X159836497Y-109022197D01*
X159782317Y-108855448D01*
X159781252Y-108852170D01*
X159781249Y-108852164D01*
X159757560Y-108811133D01*
X159691859Y-108697335D01*
X159621882Y-108619618D01*
X159572235Y-108564478D01*
X159572232Y-108564476D01*
X159572231Y-108564475D01*
X159572230Y-108564474D01*
X159427593Y-108459388D01*
X159264267Y-108386671D01*
X159264265Y-108386670D01*
X159136594Y-108359533D01*
X159089391Y-108349500D01*
X158910609Y-108349500D01*
X158879954Y-108356015D01*
X158735733Y-108386670D01*
X158735728Y-108386672D01*
X158572408Y-108459387D01*
X158427768Y-108564475D01*
X158308140Y-108697336D01*
X158218750Y-108852164D01*
X158218747Y-108852170D01*
X158163504Y-109022192D01*
X158163503Y-109022194D01*
X158144815Y-109200000D01*
X110868000Y-109200000D01*
X110868000Y-108980249D01*
X110867999Y-108980247D01*
X110856368Y-108921770D01*
X110856367Y-108921769D01*
X110812052Y-108855447D01*
X110745730Y-108811132D01*
X110745729Y-108811131D01*
X110687252Y-108799500D01*
X110687248Y-108799500D01*
X110196453Y-108799500D01*
X110129414Y-108779815D01*
X110083659Y-108727011D01*
X110073715Y-108657853D01*
X110102740Y-108594297D01*
X110151659Y-108559873D01*
X110204898Y-108539248D01*
X110204896Y-108539248D01*
X110204901Y-108539247D01*
X110394062Y-108422124D01*
X110558481Y-108272236D01*
X110692558Y-108094689D01*
X110791729Y-107895528D01*
X110852615Y-107681536D01*
X110873143Y-107460000D01*
X110870456Y-107431007D01*
X110852615Y-107238464D01*
X110852614Y-107238462D01*
X110832621Y-107168195D01*
X110791729Y-107024472D01*
X110791724Y-107024461D01*
X110692561Y-106825316D01*
X110692556Y-106825308D01*
X110558479Y-106647761D01*
X110394062Y-106497876D01*
X110394060Y-106497874D01*
X110204904Y-106380754D01*
X110204895Y-106380750D01*
X110111456Y-106344552D01*
X110010975Y-106305625D01*
X109955575Y-106263054D01*
X109931984Y-106197288D01*
X109947695Y-106129207D01*
X109997719Y-106080428D01*
X110010966Y-106074377D01*
X110204901Y-105999247D01*
X110394062Y-105882124D01*
X110558481Y-105732236D01*
X110692558Y-105554689D01*
X110735228Y-105468996D01*
X148899499Y-105468996D01*
X148926418Y-105604322D01*
X148926421Y-105604332D01*
X148979222Y-105731807D01*
X149055887Y-105846545D01*
X149055888Y-105846546D01*
X151155886Y-107946542D01*
X151253455Y-108044111D01*
X151253459Y-108044115D01*
X151368182Y-108120771D01*
X151368186Y-108120773D01*
X151368189Y-108120775D01*
X151442866Y-108151707D01*
X151442867Y-108151707D01*
X151442869Y-108151709D01*
X151495666Y-108173578D01*
X151495671Y-108173580D01*
X151495680Y-108173581D01*
X151495681Y-108173582D01*
X151522545Y-108178925D01*
X151522551Y-108178926D01*
X151522591Y-108178934D01*
X151612937Y-108196905D01*
X151631006Y-108200500D01*
X151631007Y-108200500D01*
X153768995Y-108200500D01*
X153860041Y-108182389D01*
X153904328Y-108173580D01*
X154031811Y-108120775D01*
X154146542Y-108044114D01*
X154244114Y-107946542D01*
X154320775Y-107831811D01*
X154373580Y-107704328D01*
X154400500Y-107568993D01*
X154400500Y-107431007D01*
X154400500Y-107431004D01*
X154373581Y-107295677D01*
X154373580Y-107295676D01*
X154373580Y-107295672D01*
X154349883Y-107238462D01*
X154320778Y-107168195D01*
X154320771Y-107168182D01*
X154244114Y-107053458D01*
X154244111Y-107053454D01*
X154146545Y-106955888D01*
X154146541Y-106955885D01*
X154031817Y-106879228D01*
X154031804Y-106879221D01*
X153904332Y-106826421D01*
X153904322Y-106826418D01*
X153768995Y-106799500D01*
X153768993Y-106799500D01*
X152041518Y-106799500D01*
X151974479Y-106779815D01*
X151953837Y-106763181D01*
X150046546Y-104855888D01*
X150046545Y-104855887D01*
X149931807Y-104779222D01*
X149804332Y-104726421D01*
X149804322Y-104726418D01*
X149668996Y-104699500D01*
X149668994Y-104699500D01*
X149531006Y-104699500D01*
X149531004Y-104699500D01*
X149395677Y-104726418D01*
X149395667Y-104726421D01*
X149268192Y-104779222D01*
X149153454Y-104855887D01*
X149055887Y-104953454D01*
X148979222Y-105068192D01*
X148926421Y-105195667D01*
X148926418Y-105195677D01*
X148899500Y-105331003D01*
X148899500Y-105331006D01*
X148899500Y-105468994D01*
X148899500Y-105468996D01*
X148899499Y-105468996D01*
X110735228Y-105468996D01*
X110791729Y-105355528D01*
X110852615Y-105141536D01*
X110873143Y-104920000D01*
X110860098Y-104779225D01*
X110852615Y-104698464D01*
X110852614Y-104698462D01*
X110791730Y-104484476D01*
X110791729Y-104484472D01*
X110791724Y-104484461D01*
X110692561Y-104285316D01*
X110692556Y-104285308D01*
X110558479Y-104107761D01*
X110394062Y-103957876D01*
X110394060Y-103957874D01*
X110204904Y-103840754D01*
X110204895Y-103840750D01*
X110111456Y-103804552D01*
X110010975Y-103765625D01*
X109955575Y-103723054D01*
X109931984Y-103657288D01*
X109947695Y-103589207D01*
X109997719Y-103540428D01*
X110010966Y-103534377D01*
X110204901Y-103459247D01*
X110394062Y-103342124D01*
X110558481Y-103192236D01*
X110692558Y-103014689D01*
X110791729Y-102815528D01*
X110852615Y-102601536D01*
X110873143Y-102380000D01*
X110852615Y-102158464D01*
X110791729Y-101944472D01*
X110791724Y-101944461D01*
X110692561Y-101745316D01*
X110692556Y-101745308D01*
X110558479Y-101567761D01*
X110394062Y-101417876D01*
X110394060Y-101417874D01*
X110204904Y-101300754D01*
X110204898Y-101300752D01*
X109997440Y-101220382D01*
X109778743Y-101179500D01*
X109556257Y-101179500D01*
X109337560Y-101220382D01*
X109206364Y-101271207D01*
X109130101Y-101300752D01*
X109130095Y-101300754D01*
X108940939Y-101417874D01*
X108940937Y-101417876D01*
X108776520Y-101567761D01*
X108642443Y-101745308D01*
X108642438Y-101745316D01*
X108543275Y-101944461D01*
X108543269Y-101944476D01*
X108482385Y-102158462D01*
X108482384Y-102158464D01*
X108461857Y-102379999D01*
X108461857Y-102380000D01*
X108482384Y-102601535D01*
X108482385Y-102601537D01*
X108543269Y-102815523D01*
X108543275Y-102815538D01*
X108642438Y-103014683D01*
X108642443Y-103014691D01*
X108776520Y-103192238D01*
X108940937Y-103342123D01*
X108940939Y-103342125D01*
X109130095Y-103459245D01*
X109130096Y-103459245D01*
X109130099Y-103459247D01*
X109324024Y-103534374D01*
X109379424Y-103576946D01*
X109403015Y-103642713D01*
X109387304Y-103710793D01*
X109337280Y-103759572D01*
X109324033Y-103765622D01*
X109175988Y-103822975D01*
X109130101Y-103840752D01*
X109130095Y-103840754D01*
X108940939Y-103957874D01*
X108940937Y-103957876D01*
X108776520Y-104107761D01*
X108642443Y-104285308D01*
X108642438Y-104285316D01*
X108543275Y-104484461D01*
X108543269Y-104484476D01*
X108482385Y-104698462D01*
X108482384Y-104698464D01*
X108461857Y-104919999D01*
X108461857Y-104920000D01*
X108482384Y-105141535D01*
X108482385Y-105141537D01*
X108543269Y-105355523D01*
X108543275Y-105355538D01*
X108642438Y-105554683D01*
X108642443Y-105554691D01*
X108776520Y-105732238D01*
X108940937Y-105882123D01*
X108940939Y-105882125D01*
X109130095Y-105999245D01*
X109130096Y-105999245D01*
X109130099Y-105999247D01*
X109324024Y-106074374D01*
X109379424Y-106116946D01*
X109403015Y-106182713D01*
X109387304Y-106250793D01*
X109337280Y-106299572D01*
X109324033Y-106305622D01*
X109175988Y-106362975D01*
X109130101Y-106380752D01*
X109130095Y-106380754D01*
X108940939Y-106497874D01*
X108940937Y-106497876D01*
X108776520Y-106647761D01*
X108642443Y-106825308D01*
X108642438Y-106825316D01*
X108543275Y-107024461D01*
X108543269Y-107024476D01*
X108482385Y-107238462D01*
X108482384Y-107238464D01*
X108461857Y-107459999D01*
X108461857Y-107460000D01*
X100500000Y-107460000D01*
X100500000Y-89980000D01*
X103344417Y-89980000D01*
X103364699Y-90185932D01*
X103364700Y-90185934D01*
X103424768Y-90383954D01*
X103522315Y-90566450D01*
X103522317Y-90566452D01*
X103653589Y-90726410D01*
X103734584Y-90792880D01*
X103813550Y-90857685D01*
X103996046Y-90955232D01*
X104194066Y-91015300D01*
X104194065Y-91015300D01*
X104212529Y-91017118D01*
X104400000Y-91035583D01*
X104605934Y-91015300D01*
X104803954Y-90955232D01*
X104986450Y-90857685D01*
X105146410Y-90726410D01*
X105222028Y-90634269D01*
X105889500Y-90634269D01*
X105892353Y-90664699D01*
X105892353Y-90664701D01*
X105937206Y-90792880D01*
X105937207Y-90792882D01*
X106017850Y-90902150D01*
X106127118Y-90982793D01*
X106169845Y-90997744D01*
X106255299Y-91027646D01*
X106285730Y-91030500D01*
X106285734Y-91030500D01*
X107594270Y-91030500D01*
X107624699Y-91027646D01*
X107624701Y-91027646D01*
X107688790Y-91005219D01*
X107752882Y-90982793D01*
X107862150Y-90902150D01*
X107942793Y-90792882D01*
X107966052Y-90726410D01*
X107987646Y-90664701D01*
X107987646Y-90664699D01*
X107990500Y-90634269D01*
X107990500Y-89325730D01*
X107987646Y-89295300D01*
X107987646Y-89295298D01*
X107942793Y-89167119D01*
X107942792Y-89167117D01*
X107925516Y-89143709D01*
X107862150Y-89057850D01*
X107752882Y-88977207D01*
X107752880Y-88977206D01*
X107624700Y-88932353D01*
X107594270Y-88929500D01*
X107594266Y-88929500D01*
X106285734Y-88929500D01*
X106285730Y-88929500D01*
X106255300Y-88932353D01*
X106255298Y-88932353D01*
X106127119Y-88977206D01*
X106127117Y-88977207D01*
X106017850Y-89057850D01*
X105937207Y-89167117D01*
X105937206Y-89167119D01*
X105892353Y-89295298D01*
X105892353Y-89295300D01*
X105889500Y-89325730D01*
X105889500Y-90634269D01*
X105222028Y-90634269D01*
X105277685Y-90566450D01*
X105375232Y-90383954D01*
X105435300Y-90185934D01*
X105455583Y-89980000D01*
X105435300Y-89774066D01*
X105375232Y-89576046D01*
X105277685Y-89393550D01*
X105197052Y-89295298D01*
X105146410Y-89233589D01*
X104986452Y-89102317D01*
X104986453Y-89102317D01*
X104986450Y-89102315D01*
X104803954Y-89004768D01*
X104605934Y-88944700D01*
X104605932Y-88944699D01*
X104605934Y-88944699D01*
X104400000Y-88924417D01*
X104194067Y-88944699D01*
X103996043Y-89004769D01*
X103896737Y-89057850D01*
X103813550Y-89102315D01*
X103813548Y-89102316D01*
X103813547Y-89102317D01*
X103653589Y-89233589D01*
X103522317Y-89393547D01*
X103424769Y-89576043D01*
X103364699Y-89774067D01*
X103344417Y-89980000D01*
X100500000Y-89980000D01*
X100500000Y-87440000D01*
X103344417Y-87440000D01*
X103364699Y-87645932D01*
X103394734Y-87744944D01*
X103424768Y-87843954D01*
X103522315Y-88026450D01*
X103522317Y-88026452D01*
X103653589Y-88186410D01*
X103713744Y-88235777D01*
X103813550Y-88317685D01*
X103996046Y-88415232D01*
X104194066Y-88475300D01*
X104194065Y-88475300D01*
X104212529Y-88477118D01*
X104400000Y-88495583D01*
X104605934Y-88475300D01*
X104803954Y-88415232D01*
X104986450Y-88317685D01*
X105146410Y-88186410D01*
X105277685Y-88026450D01*
X105375232Y-87843954D01*
X105435300Y-87645934D01*
X105455583Y-87440000D01*
X105884417Y-87440000D01*
X105904699Y-87645932D01*
X105934734Y-87744944D01*
X105964768Y-87843954D01*
X106062315Y-88026450D01*
X106062317Y-88026452D01*
X106193589Y-88186410D01*
X106253744Y-88235777D01*
X106353550Y-88317685D01*
X106536046Y-88415232D01*
X106734066Y-88475300D01*
X106734065Y-88475300D01*
X106752529Y-88477118D01*
X106940000Y-88495583D01*
X107145934Y-88475300D01*
X107343954Y-88415232D01*
X107526450Y-88317685D01*
X107686410Y-88186410D01*
X107817685Y-88026450D01*
X107915232Y-87843954D01*
X107975300Y-87645934D01*
X107995583Y-87440000D01*
X107975300Y-87234066D01*
X107915232Y-87036046D01*
X107817685Y-86853550D01*
X107747953Y-86768581D01*
X107686410Y-86693589D01*
X107526452Y-86562317D01*
X107526453Y-86562317D01*
X107526450Y-86562315D01*
X107343954Y-86464768D01*
X107145934Y-86404700D01*
X107145932Y-86404699D01*
X107145934Y-86404699D01*
X106940000Y-86384417D01*
X106734067Y-86404699D01*
X106536043Y-86464769D01*
X106505938Y-86480861D01*
X106353550Y-86562315D01*
X106353548Y-86562316D01*
X106353547Y-86562317D01*
X106193589Y-86693589D01*
X106062317Y-86853547D01*
X105964769Y-87036043D01*
X105904699Y-87234067D01*
X105884417Y-87440000D01*
X105455583Y-87440000D01*
X105435300Y-87234066D01*
X105375232Y-87036046D01*
X105277685Y-86853550D01*
X105207953Y-86768581D01*
X105146410Y-86693589D01*
X104986452Y-86562317D01*
X104986453Y-86562317D01*
X104986450Y-86562315D01*
X104803954Y-86464768D01*
X104605934Y-86404700D01*
X104605932Y-86404699D01*
X104605934Y-86404699D01*
X104400000Y-86384417D01*
X104194067Y-86404699D01*
X103996043Y-86464769D01*
X103965938Y-86480861D01*
X103813550Y-86562315D01*
X103813548Y-86562316D01*
X103813547Y-86562317D01*
X103653589Y-86693589D01*
X103522317Y-86853547D01*
X103424769Y-87036043D01*
X103364699Y-87234067D01*
X103344417Y-87440000D01*
X100500000Y-87440000D01*
X100500000Y-84900000D01*
X105884417Y-84900000D01*
X105904699Y-85105932D01*
X105904700Y-85105934D01*
X105964768Y-85303954D01*
X106062315Y-85486450D01*
X106062317Y-85486452D01*
X106193589Y-85646410D01*
X106279517Y-85716928D01*
X106353550Y-85777685D01*
X106536046Y-85875232D01*
X106734066Y-85935300D01*
X106734065Y-85935300D01*
X106752529Y-85937118D01*
X106940000Y-85955583D01*
X107145934Y-85935300D01*
X107343954Y-85875232D01*
X107526450Y-85777685D01*
X107686410Y-85646410D01*
X107817685Y-85486450D01*
X107915232Y-85303954D01*
X107975300Y-85105934D01*
X107995583Y-84900000D01*
X107975300Y-84694066D01*
X107915232Y-84496046D01*
X107817685Y-84313550D01*
X107765702Y-84250209D01*
X107686410Y-84153589D01*
X107526452Y-84022317D01*
X107526453Y-84022317D01*
X107526450Y-84022315D01*
X107343954Y-83924768D01*
X107145934Y-83864700D01*
X107145932Y-83864699D01*
X107145934Y-83864699D01*
X106940000Y-83844417D01*
X106734067Y-83864699D01*
X106536043Y-83924769D01*
X106425898Y-83983643D01*
X106353550Y-84022315D01*
X106353548Y-84022316D01*
X106353547Y-84022317D01*
X106193589Y-84153589D01*
X106062317Y-84313547D01*
X105964769Y-84496043D01*
X105904699Y-84694067D01*
X105884417Y-84900000D01*
X100500000Y-84900000D01*
X100500000Y-79624000D01*
X100519685Y-79556961D01*
X100572489Y-79511206D01*
X100624000Y-79500000D01*
X109176000Y-79500000D01*
X109243039Y-79519685D01*
X109288794Y-79572489D01*
X109300000Y-79624000D01*
X109300000Y-96100000D01*
X169500000Y-96100000D01*
X169500000Y-90500000D01*
X171000000Y-90500000D01*
X171000000Y-96000000D01*
X175000000Y-96000000D01*
X175000000Y-90500000D01*
X171000000Y-90500000D01*
X169500000Y-90500000D01*
X169500000Y-89051362D01*
X169519685Y-88984323D01*
X169536319Y-88963681D01*
X174003957Y-84496043D01*
X178500000Y-80000000D01*
X178500000Y-59400000D01*
X169000000Y-59400000D01*
X169000000Y-57621288D01*
X180649500Y-57621288D01*
X180681161Y-57861785D01*
X180743947Y-58096104D01*
X180836773Y-58320205D01*
X180836776Y-58320212D01*
X180958064Y-58530289D01*
X180958066Y-58530292D01*
X180958067Y-58530293D01*
X181105733Y-58722736D01*
X181105739Y-58722743D01*
X181277256Y-58894260D01*
X181277262Y-58894265D01*
X181469711Y-59041936D01*
X181679788Y-59163224D01*
X181903900Y-59256054D01*
X182138211Y-59318838D01*
X182318586Y-59342584D01*
X182378711Y-59350500D01*
X182378712Y-59350500D01*
X182621289Y-59350500D01*
X182669388Y-59344167D01*
X182861789Y-59318838D01*
X183096100Y-59256054D01*
X183320212Y-59163224D01*
X183530289Y-59041936D01*
X183722738Y-58894265D01*
X183894265Y-58722738D01*
X184041936Y-58530289D01*
X184163224Y-58320212D01*
X184256054Y-58096100D01*
X184318838Y-57861789D01*
X184350500Y-57621288D01*
X184350500Y-57378712D01*
X184318838Y-57138211D01*
X184256054Y-56903900D01*
X184163224Y-56679788D01*
X184041936Y-56469711D01*
X183894265Y-56277262D01*
X183894260Y-56277256D01*
X183722743Y-56105739D01*
X183722736Y-56105733D01*
X183530293Y-55958067D01*
X183530292Y-55958066D01*
X183530289Y-55958064D01*
X183320212Y-55836776D01*
X183320205Y-55836773D01*
X183096104Y-55743947D01*
X182861785Y-55681161D01*
X182621289Y-55649500D01*
X182621288Y-55649500D01*
X182378712Y-55649500D01*
X182378711Y-55649500D01*
X182138214Y-55681161D01*
X181903895Y-55743947D01*
X181679794Y-55836773D01*
X181679785Y-55836777D01*
X181469706Y-55958067D01*
X181277263Y-56105733D01*
X181277256Y-56105739D01*
X181105739Y-56277256D01*
X181105733Y-56277263D01*
X180958067Y-56469706D01*
X180836777Y-56679785D01*
X180836773Y-56679794D01*
X180743947Y-56903895D01*
X180681161Y-57138214D01*
X180649500Y-57378711D01*
X180649500Y-57621288D01*
X169000000Y-57621288D01*
X169000000Y-52200000D01*
X186648638Y-52200000D01*
X186715677Y-52219685D01*
G37*
%TD.AperFunction*%
%TD*%
M02*
