%TF.GenerationSoftware,KiCad,Pcbnew,8.0.1*%
%TF.CreationDate,2024-04-25T22:53:37+02:00*%
%TF.ProjectId,xt60_parallelizer,78743630-5f70-4617-9261-6c6c656c697a,rev?*%
%TF.SameCoordinates,Original*%
%TF.FileFunction,Copper,L1,Top*%
%TF.FilePolarity,Positive*%
%FSLAX46Y46*%
G04 Gerber Fmt 4.6, Leading zero omitted, Abs format (unit mm)*
G04 Created by KiCad (PCBNEW 8.0.1) date 2024-04-25 22:53:37*
%MOMM*%
%LPD*%
G01*
G04 APERTURE LIST*
G04 Aperture macros list*
%AMRoundRect*
0 Rectangle with rounded corners*
0 $1 Rounding radius*
0 $2 $3 $4 $5 $6 $7 $8 $9 X,Y pos of 4 corners*
0 Add a 4 corners polygon primitive as box body*
4,1,4,$2,$3,$4,$5,$6,$7,$8,$9,$2,$3,0*
0 Add four circle primitives for the rounded corners*
1,1,$1+$1,$2,$3*
1,1,$1+$1,$4,$5*
1,1,$1+$1,$6,$7*
1,1,$1+$1,$8,$9*
0 Add four rect primitives between the rounded corners*
20,1,$1+$1,$2,$3,$4,$5,0*
20,1,$1+$1,$4,$5,$6,$7,0*
20,1,$1+$1,$6,$7,$8,$9,0*
20,1,$1+$1,$8,$9,$2,$3,0*%
G04 Aperture macros list end*
%TA.AperFunction,ComponentPad*%
%ADD10C,1.900000*%
%TD*%
%TA.AperFunction,ComponentPad*%
%ADD11C,6.000000*%
%TD*%
%TA.AperFunction,ComponentPad*%
%ADD12RoundRect,0.250000X0.600000X0.600000X-0.600000X0.600000X-0.600000X-0.600000X0.600000X-0.600000X0*%
%TD*%
%TA.AperFunction,ComponentPad*%
%ADD13C,1.700000*%
%TD*%
%TA.AperFunction,SMDPad,CuDef*%
%ADD14RoundRect,0.137500X0.137500X-0.587500X0.137500X0.587500X-0.137500X0.587500X-0.137500X-0.587500X0*%
%TD*%
%TA.AperFunction,SMDPad,CuDef*%
%ADD15RoundRect,0.250000X0.475000X-0.250000X0.475000X0.250000X-0.475000X0.250000X-0.475000X-0.250000X0*%
%TD*%
%TA.AperFunction,SMDPad,CuDef*%
%ADD16RoundRect,0.250000X0.250000X0.475000X-0.250000X0.475000X-0.250000X-0.475000X0.250000X-0.475000X0*%
%TD*%
%TA.AperFunction,SMDPad,CuDef*%
%ADD17RoundRect,0.250000X1.450000X-0.312500X1.450000X0.312500X-1.450000X0.312500X-1.450000X-0.312500X0*%
%TD*%
%TA.AperFunction,ComponentPad*%
%ADD18RoundRect,0.675000X-0.675000X0.675000X-0.675000X-0.675000X0.675000X-0.675000X0.675000X0.675000X0*%
%TD*%
%TA.AperFunction,ComponentPad*%
%ADD19C,2.700000*%
%TD*%
%TA.AperFunction,SMDPad,CuDef*%
%ADD20RoundRect,0.250000X0.325000X1.100000X-0.325000X1.100000X-0.325000X-1.100000X0.325000X-1.100000X0*%
%TD*%
%TA.AperFunction,SMDPad,CuDef*%
%ADD21RoundRect,0.250000X-0.250000X-0.475000X0.250000X-0.475000X0.250000X0.475000X-0.250000X0.475000X0*%
%TD*%
%TA.AperFunction,ComponentPad*%
%ADD22R,1.700000X1.700000*%
%TD*%
%TA.AperFunction,SMDPad,CuDef*%
%ADD23RoundRect,0.150000X0.512500X0.150000X-0.512500X0.150000X-0.512500X-0.150000X0.512500X-0.150000X0*%
%TD*%
%TA.AperFunction,SMDPad,CuDef*%
%ADD24RoundRect,0.250000X-0.262500X-0.450000X0.262500X-0.450000X0.262500X0.450000X-0.262500X0.450000X0*%
%TD*%
%TA.AperFunction,SMDPad,CuDef*%
%ADD25RoundRect,0.250000X0.262500X0.450000X-0.262500X0.450000X-0.262500X-0.450000X0.262500X-0.450000X0*%
%TD*%
%TA.AperFunction,SMDPad,CuDef*%
%ADD26RoundRect,0.150000X0.875000X0.150000X-0.875000X0.150000X-0.875000X-0.150000X0.875000X-0.150000X0*%
%TD*%
%TA.AperFunction,SMDPad,CuDef*%
%ADD27RoundRect,0.150000X-0.150000X0.825000X-0.150000X-0.825000X0.150000X-0.825000X0.150000X0.825000X0*%
%TD*%
%TA.AperFunction,SMDPad,CuDef*%
%ADD28RoundRect,0.250000X-0.450000X0.262500X-0.450000X-0.262500X0.450000X-0.262500X0.450000X0.262500X0*%
%TD*%
%TA.AperFunction,SMDPad,CuDef*%
%ADD29RoundRect,0.250000X0.450000X-0.262500X0.450000X0.262500X-0.450000X0.262500X-0.450000X-0.262500X0*%
%TD*%
%TA.AperFunction,SMDPad,CuDef*%
%ADD30RoundRect,0.062500X-0.062500X0.312500X-0.062500X-0.312500X0.062500X-0.312500X0.062500X0.312500X0*%
%TD*%
%TA.AperFunction,SMDPad,CuDef*%
%ADD31RoundRect,0.062500X-0.312500X0.062500X-0.312500X-0.062500X0.312500X-0.062500X0.312500X0.062500X0*%
%TD*%
%TA.AperFunction,SMDPad,CuDef*%
%ADD32R,3.650000X3.650000*%
%TD*%
%TA.AperFunction,ComponentPad*%
%ADD33C,1.300000*%
%TD*%
%TA.AperFunction,ComponentPad*%
%ADD34RoundRect,0.250000X1.400000X-0.650000X1.400000X0.650000X-1.400000X0.650000X-1.400000X-0.650000X0*%
%TD*%
%TA.AperFunction,ComponentPad*%
%ADD35O,3.300000X1.800000*%
%TD*%
%TA.AperFunction,ComponentPad*%
%ADD36R,2.000000X2.000000*%
%TD*%
%TA.AperFunction,ComponentPad*%
%ADD37C,2.000000*%
%TD*%
%TA.AperFunction,ViaPad*%
%ADD38C,0.700000*%
%TD*%
%TA.AperFunction,Conductor*%
%ADD39C,0.500000*%
%TD*%
%TA.AperFunction,Conductor*%
%ADD40C,0.200000*%
%TD*%
%TA.AperFunction,Conductor*%
%ADD41C,0.300000*%
%TD*%
%TA.AperFunction,Conductor*%
%ADD42C,1.000000*%
%TD*%
%TA.AperFunction,Conductor*%
%ADD43C,0.400000*%
%TD*%
G04 APERTURE END LIST*
D10*
%TO.P,U11,1,COM2*%
%TO.N,/DISP_COM4*%
X132300000Y-141150000D03*
%TO.P,U11,2,COM3*%
%TO.N,/DISP_COM3*%
X134840000Y-141150000D03*
%TO.P,U11,3,3*%
%TO.N,Net-(U9-SEG0)*%
X137380000Y-141150000D03*
%TO.P,U11,4,4*%
%TO.N,Net-(U9-SEG1)*%
X139920000Y-141150000D03*
%TO.P,U11,5,5*%
%TO.N,Net-(U9-SEG2)*%
X142460000Y-141150000D03*
%TO.P,U11,6,6*%
%TO.N,Net-(U9-SEG3)*%
X145000000Y-141150000D03*
%TO.P,U11,7,7*%
%TO.N,Net-(U9-SEG4)*%
X147540000Y-141150000D03*
%TO.P,U11,8,8*%
%TO.N,Net-(U9-SEG5)*%
X150080000Y-141150000D03*
%TO.P,U11,9,9*%
%TO.N,Net-(U9-SEG6)*%
X152620000Y-141150000D03*
%TO.P,U11,10,10*%
%TO.N,Net-(U9-SEG7)*%
X155160000Y-141150000D03*
%TO.P,U11,11,11*%
%TO.N,Net-(U9-SEG8)*%
X157700000Y-141150000D03*
%TO.P,U11,12,12*%
%TO.N,Net-(U9-SEG9)*%
X157700000Y-118850000D03*
%TO.P,U11,13,13*%
%TO.N,Net-(U9-SEG10)*%
X155160000Y-118850000D03*
%TO.P,U11,14,14*%
%TO.N,Net-(U9-SEG11)*%
X152620000Y-118850000D03*
%TO.P,U11,15,15*%
%TO.N,Net-(U9-SEG12)*%
X150080000Y-118850000D03*
%TO.P,U11,16,16*%
%TO.N,Net-(U9-SEG13)*%
X147540000Y-118850000D03*
%TO.P,U11,17,17*%
%TO.N,Net-(U9-SEG14)*%
X145000000Y-118850000D03*
%TO.P,U11,18,18*%
%TO.N,Net-(U9-SEG15)*%
X142460000Y-118850000D03*
%TO.P,U11,19,19*%
%TO.N,Net-(U9-SEG16)*%
X139920000Y-118850000D03*
%TO.P,U11,20,20*%
%TO.N,Net-(U9-SEG17)*%
X137380000Y-118850000D03*
%TO.P,U11,21,COM0*%
%TO.N,/DISP_COM2*%
X134840000Y-118850000D03*
%TO.P,U11,22,COM1*%
%TO.N,/DISP_COM1*%
X132300000Y-118850000D03*
%TD*%
D11*
%TO.P,BT1,1,+*%
%TO.N,Net-(BT1-+)*%
X120000000Y-63600000D03*
%TO.P,BT1,2,-*%
%TO.N,GND*%
X120000000Y-56400000D03*
%TD*%
D12*
%TO.P,J2,1,DATA*%
%TO.N,/UPDI*%
X106940000Y-89980000D03*
D13*
%TO.P,J2,2,VCC*%
%TO.N,+5V*%
X104400000Y-89980000D03*
%TO.P,J2,3,NC*%
%TO.N,unconnected-(J2-NC-Pad3)*%
X106940000Y-87440000D03*
%TO.P,J2,4,NC*%
%TO.N,unconnected-(J2-NC-Pad4)*%
X104400000Y-87440000D03*
%TO.P,J2,5,NC*%
%TO.N,unconnected-(J2-NC-Pad5)*%
X106940000Y-84900000D03*
%TO.P,J2,6,GND*%
%TO.N,GND*%
X104400000Y-84900000D03*
%TD*%
D14*
%TO.P,U6,1*%
%TO.N,Net-(R2-Pad2)*%
X185430000Y-102500000D03*
%TO.P,U6,2*%
%TO.N,GND*%
X187970000Y-102500000D03*
%TO.P,U6,3*%
%TO.N,Net-(J1-Pin_2)*%
X187970000Y-97000000D03*
%TO.P,U6,4*%
%TO.N,Net-(J1-Pin_1)*%
X185430000Y-97000000D03*
%TD*%
D15*
%TO.P,C12,1*%
%TO.N,+3V3*%
X128867500Y-110300000D03*
%TO.P,C12,2*%
%TO.N,GND*%
X128867500Y-108400000D03*
%TD*%
D16*
%TO.P,C10,1*%
%TO.N,/IMON_4*%
X149950000Y-98400000D03*
%TO.P,C10,2*%
%TO.N,GND*%
X148050000Y-98400000D03*
%TD*%
D17*
%TO.P,F5,1*%
%TO.N,VCC*%
X175300000Y-85037500D03*
%TO.P,F5,2*%
%TO.N,/XT60 Channel/+VOUT*%
X175300000Y-80762500D03*
%TD*%
D18*
%TO.P,F4,1*%
%TO.N,Net-(BT4-+)*%
X160500000Y-70500000D03*
X160500000Y-77260000D03*
D19*
%TO.P,F4,2*%
%TO.N,Net-(F4-Pad2)*%
X160500000Y-86850000D03*
X160500000Y-93610000D03*
%TD*%
D20*
%TO.P,C5,1*%
%TO.N,VCC*%
X172775000Y-96900000D03*
%TO.P,C5,2*%
%TO.N,GND*%
X169825000Y-96900000D03*
%TD*%
D11*
%TO.P,BT2,1,+*%
%TO.N,Net-(BT2-+)*%
X133500000Y-63600000D03*
%TO.P,BT2,2,-*%
%TO.N,GND*%
X133500000Y-56400000D03*
%TD*%
D21*
%TO.P,C4,1*%
%TO.N,+5V*%
X156350000Y-98400000D03*
%TO.P,C4,2*%
%TO.N,GND*%
X158250000Y-98400000D03*
%TD*%
D11*
%TO.P,BT3,1,+*%
%TO.N,Net-(BT3-+)*%
X147000000Y-63600000D03*
%TO.P,BT3,2,-*%
%TO.N,GND*%
X147000000Y-56400000D03*
%TD*%
%TO.P,BT4,1,+*%
%TO.N,Net-(BT4-+)*%
X160500000Y-63600000D03*
%TO.P,BT4,2,-*%
%TO.N,GND*%
X160500000Y-56400000D03*
%TD*%
D14*
%TO.P,U7,1*%
%TO.N,Net-(R1-Pad2)*%
X180630000Y-102500000D03*
%TO.P,U7,2*%
%TO.N,GND*%
X183170000Y-102500000D03*
%TO.P,U7,3*%
%TO.N,Net-(J1-Pin_3)*%
X183170000Y-97000000D03*
%TO.P,U7,4*%
%TO.N,Net-(J1-Pin_4)*%
X180630000Y-97000000D03*
%TD*%
D18*
%TO.P,F3,1*%
%TO.N,Net-(BT3-+)*%
X147000000Y-70500000D03*
X147000000Y-77260000D03*
D19*
%TO.P,F3,2*%
%TO.N,Net-(F3-Pad2)*%
X147000000Y-86850000D03*
X147000000Y-93610000D03*
%TD*%
D22*
%TO.P,U5,1,VIN*%
%TO.N,VCC*%
X172840000Y-92850000D03*
D13*
%TO.P,U5,2,GND*%
%TO.N,GND*%
X170300000Y-92850000D03*
%TO.P,U5,3,+VO*%
%TO.N,+5V*%
X167760000Y-92850000D03*
%TD*%
D23*
%TO.P,U8,1,IN*%
%TO.N,+5V*%
X133205000Y-110300000D03*
%TO.P,U8,2,GND*%
%TO.N,GND*%
X133205000Y-109350000D03*
%TO.P,U8,3,EN*%
%TO.N,+5V*%
X133205000Y-108400000D03*
%TO.P,U8,4,NC*%
%TO.N,unconnected-(U8-NC-Pad4)*%
X130930000Y-108400000D03*
%TO.P,U8,5,OUT*%
%TO.N,+3V3*%
X130930000Y-110300000D03*
%TD*%
D16*
%TO.P,C9,1*%
%TO.N,/IMON_3*%
X139050000Y-98400000D03*
%TO.P,C9,2*%
%TO.N,GND*%
X137150000Y-98400000D03*
%TD*%
D11*
%TO.P,J3,1,Pin_1*%
%TO.N,/XT60 Channel/+VOUT*%
X173000000Y-63600000D03*
%TO.P,J3,2,Pin_2*%
%TO.N,GND*%
X173000000Y-56400000D03*
%TD*%
D21*
%TO.P,C1,1*%
%TO.N,+5V*%
X115745000Y-98400000D03*
%TO.P,C1,2*%
%TO.N,GND*%
X117645000Y-98400000D03*
%TD*%
D15*
%TO.P,C11,1*%
%TO.N,+5V*%
X124667500Y-110300000D03*
%TO.P,C11,2*%
%TO.N,GND*%
X124667500Y-108400000D03*
%TD*%
D24*
%TO.P,R12,1*%
%TO.N,+5V*%
X104687500Y-96700000D03*
%TO.P,R12,2*%
%TO.N,/UPDI*%
X106512500Y-96700000D03*
%TD*%
D25*
%TO.P,R11,1*%
%TO.N,VCC*%
X172912500Y-99600000D03*
%TO.P,R11,2*%
%TO.N,/VMON*%
X171087500Y-99600000D03*
%TD*%
D26*
%TO.P,U10,1,VCC*%
%TO.N,+5V*%
X151650000Y-112815000D03*
%TO.P,U10,2,PA4*%
%TO.N,/BUZZER*%
X151650000Y-111545000D03*
%TO.P,U10,3,PA5*%
%TO.N,/IMON_2*%
X151650000Y-110275000D03*
%TO.P,U10,4,PA6*%
%TO.N,/IMON_3*%
X151650000Y-109005000D03*
%TO.P,U10,5,PA7*%
%TO.N,/IMON_4*%
X151650000Y-107735000D03*
%TO.P,U10,6,PB5*%
%TO.N,/ISOL_OUT1*%
X151650000Y-106465000D03*
%TO.P,U10,7,PB4*%
%TO.N,/ISOL_OUT2*%
X151650000Y-105195000D03*
%TO.P,U10,8,PB3*%
%TO.N,/MCU_UART_RX*%
X151650000Y-103925000D03*
%TO.P,U10,9,PB2*%
%TO.N,/MCU_UART_TX*%
X151650000Y-102655000D03*
%TO.P,U10,10,PB1*%
%TO.N,/VMON*%
X151650000Y-101385000D03*
%TO.P,U10,11,PB0*%
%TO.N,/IMON_1*%
X142350000Y-101385000D03*
%TO.P,U10,12,PC0*%
%TO.N,/SW_DIP4*%
X142350000Y-102655000D03*
%TO.P,U10,13,PC1*%
%TO.N,/SW_DIP3*%
X142350000Y-103925000D03*
%TO.P,U10,14,PC2*%
%TO.N,/SW_DIP2*%
X142350000Y-105195000D03*
%TO.P,U10,15,PC3*%
%TO.N,/SW_DIP1*%
X142350000Y-106465000D03*
%TO.P,U10,16,~{RESET}/PA0*%
%TO.N,/UPDI*%
X142350000Y-107735000D03*
%TO.P,U10,17,PA1*%
%TO.N,/SPI_SDIO*%
X142350000Y-109005000D03*
%TO.P,U10,18,PA2*%
%TO.N,/SPI_nCS*%
X142350000Y-110275000D03*
%TO.P,U10,19,PA3*%
%TO.N,/SPI_SCL*%
X142350000Y-111545000D03*
%TO.P,U10,20,GND*%
%TO.N,GND*%
X142350000Y-112815000D03*
%TD*%
D27*
%TO.P,U4,1,IN+*%
%TO.N,Net-(F4-Pad2)*%
X156205000Y-89425000D03*
%TO.P,U4,2,IN+*%
X154935000Y-89425000D03*
%TO.P,U4,3,IN-*%
%TO.N,/XT60 Channel/+VOUT*%
X153665000Y-89425000D03*
%TO.P,U4,4,IN-*%
X152395000Y-89425000D03*
%TO.P,U4,5,GND*%
%TO.N,GND*%
X152395000Y-94375000D03*
%TO.P,U4,6,NC*%
%TO.N,unconnected-(U4-NC-Pad6)*%
X153665000Y-94375000D03*
%TO.P,U4,7,VOUT*%
%TO.N,Net-(U4-VOUT)*%
X154935000Y-94375000D03*
%TO.P,U4,8,VS*%
%TO.N,+5V*%
X156205000Y-94375000D03*
%TD*%
D28*
%TO.P,R3,1*%
%TO.N,Net-(J1-Pin_6)*%
X175200000Y-96787500D03*
%TO.P,R3,2*%
%TO.N,/MCU_UART_TX*%
X175200000Y-98612500D03*
%TD*%
D29*
%TO.P,R6,1*%
%TO.N,/IMON_2*%
X127500000Y-98612500D03*
%TO.P,R6,2*%
%TO.N,Net-(U2-VOUT)*%
X127500000Y-96787500D03*
%TD*%
D15*
%TO.P,C15,1*%
%TO.N,+5V*%
X136267500Y-110300000D03*
%TO.P,C15,2*%
%TO.N,GND*%
X136267500Y-108400000D03*
%TD*%
D16*
%TO.P,C7,1*%
%TO.N,/IMON_1*%
X112045000Y-98400000D03*
%TO.P,C7,2*%
%TO.N,GND*%
X110145000Y-98400000D03*
%TD*%
D29*
%TO.P,R7,1*%
%TO.N,/IMON_3*%
X140900000Y-98612500D03*
%TO.P,R7,2*%
%TO.N,Net-(U3-VOUT)*%
X140900000Y-96787500D03*
%TD*%
D27*
%TO.P,U2,1,IN+*%
%TO.N,Net-(F2-Pad2)*%
X129205000Y-89425000D03*
%TO.P,U2,2,IN+*%
X127935000Y-89425000D03*
%TO.P,U2,3,IN-*%
%TO.N,/XT60 Channel/+VOUT*%
X126665000Y-89425000D03*
%TO.P,U2,4,IN-*%
X125395000Y-89425000D03*
%TO.P,U2,5,GND*%
%TO.N,GND*%
X125395000Y-94375000D03*
%TO.P,U2,6,NC*%
%TO.N,unconnected-(U2-NC-Pad6)*%
X126665000Y-94375000D03*
%TO.P,U2,7,VOUT*%
%TO.N,Net-(U2-VOUT)*%
X127935000Y-94375000D03*
%TO.P,U2,8,VS*%
%TO.N,+5V*%
X129205000Y-94375000D03*
%TD*%
D30*
%TO.P,U9,1,COM3*%
%TO.N,/DISP_COM4*%
X126500000Y-112800000D03*
%TO.P,U9,2,VLCD*%
%TO.N,+3V3*%
X126000000Y-112800000D03*
%TO.P,U9,3,VDD*%
%TO.N,+5V*%
X125500000Y-112800000D03*
%TO.P,U9,4,VSS*%
%TO.N,GND*%
X125000000Y-112800000D03*
%TO.P,U9,5,nRST*%
%TO.N,+5V*%
X124500000Y-112800000D03*
%TO.P,U9,6,SDIO*%
%TO.N,Net-(U9-SDIO)*%
X124000000Y-112800000D03*
%TO.P,U9,7,CLK*%
%TO.N,unconnected-(U9-CLK-Pad7)*%
X123500000Y-112800000D03*
%TO.P,U9,8,SCL*%
%TO.N,/SPI_SCL*%
X123000000Y-112800000D03*
D31*
%TO.P,U9,9,nCE*%
%TO.N,/SPI_nCS*%
X122275000Y-113525000D03*
%TO.P,U9,10,PORE*%
%TO.N,+5V*%
X122275000Y-114025000D03*
%TO.P,U9,11,NC*%
%TO.N,unconnected-(U9-NC-Pad11)*%
X122275000Y-114525000D03*
%TO.P,U9,12,SEG0*%
%TO.N,Net-(U9-SEG0)*%
X122275000Y-115025000D03*
%TO.P,U9,13,SEG1*%
%TO.N,Net-(U9-SEG1)*%
X122275000Y-115525000D03*
%TO.P,U9,14,SEG2*%
%TO.N,Net-(U9-SEG2)*%
X122275000Y-116025000D03*
%TO.P,U9,15,SEG3*%
%TO.N,Net-(U9-SEG3)*%
X122275000Y-116525000D03*
%TO.P,U9,16,SEG4*%
%TO.N,Net-(U9-SEG4)*%
X122275000Y-117025000D03*
D30*
%TO.P,U9,17,SEG5*%
%TO.N,Net-(U9-SEG5)*%
X123000000Y-117750000D03*
%TO.P,U9,18,SEG6*%
%TO.N,Net-(U9-SEG6)*%
X123500000Y-117750000D03*
%TO.P,U9,19,SEG7*%
%TO.N,Net-(U9-SEG7)*%
X124000000Y-117750000D03*
%TO.P,U9,20,SEG8*%
%TO.N,Net-(U9-SEG8)*%
X124500000Y-117750000D03*
%TO.P,U9,21,SEG9*%
%TO.N,Net-(U9-SEG9)*%
X125000000Y-117750000D03*
%TO.P,U9,22,SEG10*%
%TO.N,Net-(U9-SEG10)*%
X125500000Y-117750000D03*
%TO.P,U9,23,SEG11*%
%TO.N,Net-(U9-SEG11)*%
X126000000Y-117750000D03*
%TO.P,U9,24,SEG12*%
%TO.N,Net-(U9-SEG12)*%
X126500000Y-117750000D03*
D31*
%TO.P,U9,25,SEG13*%
%TO.N,Net-(U9-SEG13)*%
X127225000Y-117025000D03*
%TO.P,U9,26,SEG14*%
%TO.N,Net-(U9-SEG14)*%
X127225000Y-116525000D03*
%TO.P,U9,27,SEG15*%
%TO.N,Net-(U9-SEG15)*%
X127225000Y-116025000D03*
%TO.P,U9,28,SEG16*%
%TO.N,Net-(U9-SEG16)*%
X127225000Y-115525000D03*
%TO.P,U9,29,SEG17*%
%TO.N,Net-(U9-SEG17)*%
X127225000Y-115025000D03*
%TO.P,U9,30,COM0*%
%TO.N,/DISP_COM1*%
X127225000Y-114525000D03*
%TO.P,U9,31,COM1*%
%TO.N,/DISP_COM2*%
X127225000Y-114025000D03*
%TO.P,U9,32,COM2*%
%TO.N,/DISP_COM3*%
X127225000Y-113525000D03*
D32*
%TO.P,U9,33,VSS*%
%TO.N,GND*%
X124750000Y-115275000D03*
%TD*%
D29*
%TO.P,R1,1*%
%TO.N,/ISOL_OUT2*%
X178000000Y-104912500D03*
%TO.P,R1,2*%
%TO.N,Net-(R1-Pad2)*%
X178000000Y-103087500D03*
%TD*%
D27*
%TO.P,U3,1,IN+*%
%TO.N,Net-(F3-Pad2)*%
X142605000Y-89425000D03*
%TO.P,U3,2,IN+*%
X141335000Y-89425000D03*
%TO.P,U3,3,IN-*%
%TO.N,/XT60 Channel/+VOUT*%
X140065000Y-89425000D03*
%TO.P,U3,4,IN-*%
X138795000Y-89425000D03*
%TO.P,U3,5,GND*%
%TO.N,GND*%
X138795000Y-94375000D03*
%TO.P,U3,6,NC*%
%TO.N,unconnected-(U3-NC-Pad6)*%
X140065000Y-94375000D03*
%TO.P,U3,7,VOUT*%
%TO.N,Net-(U3-VOUT)*%
X141335000Y-94375000D03*
%TO.P,U3,8,VS*%
%TO.N,+5V*%
X142605000Y-94375000D03*
%TD*%
D28*
%TO.P,R4,1*%
%TO.N,Net-(J1-Pin_5)*%
X177600000Y-96787500D03*
%TO.P,R4,2*%
%TO.N,/MCU_UART_RX*%
X177600000Y-98612500D03*
%TD*%
D16*
%TO.P,C16,1*%
%TO.N,/VMON*%
X169450000Y-99600000D03*
%TO.P,C16,2*%
%TO.N,GND*%
X167550000Y-99600000D03*
%TD*%
D15*
%TO.P,C13,1*%
%TO.N,+3V3*%
X126767500Y-110300000D03*
%TO.P,C13,2*%
%TO.N,GND*%
X126767500Y-108400000D03*
%TD*%
D33*
%TO.P,BZ1,1,-*%
%TO.N,/BUZZER*%
X159000000Y-109200000D03*
%TO.P,BZ1,2,+*%
%TO.N,GND*%
X164000000Y-109200000D03*
%TD*%
D21*
%TO.P,C3,1*%
%TO.N,+5V*%
X142750000Y-98400000D03*
%TO.P,C3,2*%
%TO.N,GND*%
X144650000Y-98400000D03*
%TD*%
D29*
%TO.P,R2,1*%
%TO.N,/ISOL_OUT1*%
X185400000Y-106412500D03*
%TO.P,R2,2*%
%TO.N,Net-(R2-Pad2)*%
X185400000Y-104587500D03*
%TD*%
D25*
%TO.P,R10,1*%
%TO.N,/VMON*%
X163312500Y-99600000D03*
%TO.P,R10,2*%
%TO.N,GND*%
X161487500Y-99600000D03*
%TD*%
D21*
%TO.P,C14,1*%
%TO.N,+5V*%
X154350000Y-112800000D03*
%TO.P,C14,2*%
%TO.N,GND*%
X156250000Y-112800000D03*
%TD*%
D18*
%TO.P,F2,1*%
%TO.N,Net-(BT2-+)*%
X133500000Y-70500000D03*
X133500000Y-77260000D03*
D19*
%TO.P,F2,2*%
%TO.N,Net-(F2-Pad2)*%
X133500000Y-86850000D03*
X133500000Y-93610000D03*
%TD*%
D21*
%TO.P,C2,1*%
%TO.N,+5V*%
X129350000Y-98400000D03*
%TO.P,C2,2*%
%TO.N,GND*%
X131250000Y-98400000D03*
%TD*%
D18*
%TO.P,F1,1*%
%TO.N,Net-(BT1-+)*%
X120000000Y-70500000D03*
X120000000Y-77260000D03*
D19*
%TO.P,F1,2*%
%TO.N,Net-(F1-Pad2)*%
X120000000Y-86850000D03*
X120000000Y-93610000D03*
%TD*%
D27*
%TO.P,U1,1,IN+*%
%TO.N,Net-(F1-Pad2)*%
X115700000Y-89425000D03*
%TO.P,U1,2,IN+*%
X114430000Y-89425000D03*
%TO.P,U1,3,IN-*%
%TO.N,/XT60 Channel/+VOUT*%
X113160000Y-89425000D03*
%TO.P,U1,4,IN-*%
X111890000Y-89425000D03*
%TO.P,U1,5,GND*%
%TO.N,GND*%
X111890000Y-94375000D03*
%TO.P,U1,6,NC*%
%TO.N,unconnected-(U1-NC-Pad6)*%
X113160000Y-94375000D03*
%TO.P,U1,7,VOUT*%
%TO.N,Net-(U1-VOUT)*%
X114430000Y-94375000D03*
%TO.P,U1,8,VS*%
%TO.N,+5V*%
X115700000Y-94375000D03*
%TD*%
D16*
%TO.P,C8,1*%
%TO.N,/IMON_2*%
X125650000Y-98400000D03*
%TO.P,C8,2*%
%TO.N,GND*%
X123750000Y-98400000D03*
%TD*%
D28*
%TO.P,R9,1*%
%TO.N,/SPI_SDIO*%
X122567500Y-108437500D03*
%TO.P,R9,2*%
%TO.N,Net-(U9-SDIO)*%
X122567500Y-110262500D03*
%TD*%
D29*
%TO.P,R8,1*%
%TO.N,/IMON_4*%
X154500000Y-98612500D03*
%TO.P,R8,2*%
%TO.N,Net-(U4-VOUT)*%
X154500000Y-96787500D03*
%TD*%
%TO.P,R5,1*%
%TO.N,/IMON_1*%
X113895000Y-98612500D03*
%TO.P,R5,2*%
%TO.N,Net-(U1-VOUT)*%
X113895000Y-96787500D03*
%TD*%
D34*
%TO.P,J1,1,Pin_1*%
%TO.N,Net-(J1-Pin_1)*%
X185000000Y-92000000D03*
D35*
%TO.P,J1,2,Pin_2*%
%TO.N,Net-(J1-Pin_2)*%
X185000000Y-88500000D03*
%TO.P,J1,3,Pin_3*%
%TO.N,Net-(J1-Pin_3)*%
X185000000Y-85000000D03*
%TO.P,J1,4,Pin_4*%
%TO.N,Net-(J1-Pin_4)*%
X185000000Y-81500000D03*
%TO.P,J1,5,Pin_5*%
%TO.N,Net-(J1-Pin_5)*%
X185000000Y-78000000D03*
%TO.P,J1,6,Pin_6*%
%TO.N,Net-(J1-Pin_6)*%
X185000000Y-74500000D03*
%TO.P,J1,7,Pin_7*%
%TO.N,GND*%
X185000000Y-71000000D03*
%TD*%
D36*
%TO.P,SW1,1*%
%TO.N,/SW_DIP1*%
X109667500Y-110000000D03*
D37*
%TO.P,SW1,2*%
%TO.N,/SW_DIP2*%
X109667500Y-107460000D03*
%TO.P,SW1,3*%
%TO.N,/SW_DIP3*%
X109667500Y-104920000D03*
%TO.P,SW1,4*%
%TO.N,/SW_DIP4*%
X109667500Y-102380000D03*
%TO.P,SW1,5*%
%TO.N,GND*%
X102047500Y-102380000D03*
%TO.P,SW1,6*%
X102047500Y-104920000D03*
%TO.P,SW1,7*%
X102047500Y-107460000D03*
%TO.P,SW1,8*%
X102047500Y-110000000D03*
%TD*%
D21*
%TO.P,C6,1*%
%TO.N,+5V*%
X165350000Y-96700000D03*
%TO.P,C6,2*%
%TO.N,GND*%
X167250000Y-96700000D03*
%TD*%
D38*
%TO.N,Net-(BT1-+)*%
X123000000Y-68000000D03*
X117000000Y-68000000D03*
X120000000Y-68000000D03*
%TO.N,GND*%
X169000000Y-56000000D03*
X127000000Y-58000000D03*
X167000000Y-54000000D03*
X118700000Y-98400000D03*
X165000000Y-54000000D03*
X128930000Y-107355000D03*
X142000000Y-58000000D03*
X140000000Y-54000000D03*
X132300000Y-98400000D03*
X136330000Y-107355000D03*
X153000000Y-56000000D03*
X126200000Y-116700000D03*
X167000000Y-58000000D03*
X147000000Y-98400000D03*
X124750000Y-115275000D03*
X142000000Y-56000000D03*
X169000000Y-54000000D03*
X122700000Y-98400000D03*
X138000000Y-58000000D03*
X125400000Y-95900000D03*
X171000000Y-96900000D03*
X159300000Y-98400000D03*
X111900000Y-95900000D03*
X136105000Y-98375000D03*
X167000000Y-56000000D03*
X138000000Y-54000000D03*
X145705000Y-98375000D03*
X109100000Y-98400000D03*
X188000000Y-103800000D03*
X124000000Y-54000000D03*
X160400000Y-99600000D03*
X151000000Y-54000000D03*
X134430000Y-109355000D03*
X165000000Y-56000000D03*
X153000000Y-54000000D03*
X155000000Y-58000000D03*
X124000000Y-58000000D03*
X152400000Y-95900000D03*
X124630000Y-107355000D03*
X144000000Y-112800000D03*
X151000000Y-56000000D03*
X169000000Y-58000000D03*
X183200000Y-103800000D03*
X155000000Y-56000000D03*
X130000000Y-54000000D03*
X140000000Y-58000000D03*
X123300000Y-113800000D03*
X126730000Y-107355000D03*
X155000000Y-54000000D03*
X138000000Y-56000000D03*
X130000000Y-58000000D03*
X157300000Y-112800000D03*
X166500000Y-99600000D03*
X151000000Y-58000000D03*
X123300000Y-116700000D03*
X127000000Y-54000000D03*
X140000000Y-56000000D03*
X142000000Y-54000000D03*
X153000000Y-58000000D03*
X138805000Y-95975000D03*
X168300000Y-96700000D03*
X165000000Y-58000000D03*
X126200000Y-113800000D03*
%TO.N,Net-(BT2-+)*%
X137000000Y-68000000D03*
X131000000Y-68000000D03*
X134000000Y-68000000D03*
%TO.N,Net-(BT3-+)*%
X147000000Y-68000000D03*
X144000000Y-68000000D03*
X150000000Y-68000000D03*
%TO.N,Net-(BT4-+)*%
X160000000Y-68000000D03*
X157000000Y-68000000D03*
X163000000Y-68000000D03*
%TO.N,+5V*%
X149600000Y-105400000D03*
X153700000Y-107500000D03*
%TO.N,/SPI_SCL*%
X123000000Y-111800000D03*
X126700000Y-111800000D03*
%TO.N,/SPI_nCS*%
X122000000Y-111400000D03*
X127700000Y-111300000D03*
%TO.N,/XT60 Channel/+VOUT*%
X137500000Y-82500000D03*
X126000000Y-87000000D03*
X127500000Y-80000000D03*
X166000000Y-67000000D03*
X167500000Y-75000000D03*
X137500000Y-80000000D03*
X138500000Y-86000000D03*
X112000000Y-87000000D03*
X111000000Y-89000000D03*
X151000000Y-87000000D03*
X112500000Y-82500000D03*
X167500000Y-70000000D03*
X112000000Y-85000000D03*
X140000000Y-85000000D03*
X176000000Y-67000000D03*
X172500000Y-82500000D03*
X152000000Y-85000000D03*
X122500000Y-80000000D03*
X112500000Y-80000000D03*
X172500000Y-80000000D03*
X167500000Y-80000000D03*
X139000000Y-85000000D03*
X137000000Y-89000000D03*
X112500000Y-86000000D03*
X152500000Y-86000000D03*
X137000000Y-87000000D03*
X124000000Y-89000000D03*
X167500000Y-77500000D03*
X168000000Y-63000000D03*
X172500000Y-75000000D03*
X125000000Y-87000000D03*
X168000000Y-67000000D03*
X153000000Y-87000000D03*
X111000000Y-85000000D03*
X138000000Y-87000000D03*
X153000000Y-85000000D03*
X162500000Y-82500000D03*
X162500000Y-80000000D03*
X137500000Y-86000000D03*
X170000000Y-67000000D03*
X142500000Y-80000000D03*
X124500000Y-86000000D03*
X157500000Y-80000000D03*
X170000000Y-61000000D03*
X172500000Y-77500000D03*
X139000000Y-87000000D03*
X151500000Y-86000000D03*
X172500000Y-72500000D03*
X152500000Y-80000000D03*
X151000000Y-85000000D03*
X167500000Y-82500000D03*
X125500000Y-86000000D03*
X122500000Y-82500000D03*
X113000000Y-87000000D03*
X124000000Y-87000000D03*
X152500000Y-82500000D03*
X166000000Y-63000000D03*
X111000000Y-87000000D03*
X139500000Y-86000000D03*
X151000000Y-89000000D03*
X167500000Y-72500000D03*
X166000000Y-61000000D03*
X117500000Y-82500000D03*
X152000000Y-87000000D03*
X140000000Y-87000000D03*
X138000000Y-85000000D03*
X147500000Y-80000000D03*
X172500000Y-70000000D03*
X125000000Y-85000000D03*
X113000000Y-85000000D03*
X168000000Y-65000000D03*
X127500000Y-82500000D03*
X147500000Y-82500000D03*
X126000000Y-85000000D03*
X117500000Y-80000000D03*
X157500000Y-82500000D03*
X132500000Y-80000000D03*
X137000000Y-85000000D03*
X168000000Y-61000000D03*
X166000000Y-65000000D03*
X111500000Y-86000000D03*
X142500000Y-82500000D03*
X176000000Y-61000000D03*
X124000000Y-85000000D03*
X132500000Y-82500000D03*
%TD*%
D39*
%TO.N,GND*%
X158250000Y-98400000D02*
X159300000Y-98400000D01*
X111890000Y-94375000D02*
X111890000Y-95890000D01*
X123750000Y-98400000D02*
X122700000Y-98400000D01*
X136130000Y-98400000D02*
X136105000Y-98375000D01*
X124667500Y-107392500D02*
X124630000Y-107355000D01*
D40*
X126175000Y-116700000D02*
X126200000Y-116700000D01*
X124750000Y-115275000D02*
X126175000Y-116700000D01*
D39*
X131250000Y-98400000D02*
X132300000Y-98400000D01*
D40*
X125000000Y-115025000D02*
X124750000Y-115275000D01*
D39*
X148050000Y-98400000D02*
X147000000Y-98400000D01*
X128867500Y-108400000D02*
X128867500Y-107417500D01*
X144650000Y-98300000D02*
X145630000Y-98300000D01*
X152395000Y-95895000D02*
X152400000Y-95900000D01*
X156250000Y-112800000D02*
X157300000Y-112800000D01*
D41*
X187970000Y-103770000D02*
X188000000Y-103800000D01*
D39*
X128867500Y-107417500D02*
X128930000Y-107355000D01*
D41*
X187970000Y-102500000D02*
X187970000Y-103770000D01*
D39*
X152395000Y-94375000D02*
X152395000Y-95895000D01*
X143985000Y-112815000D02*
X144000000Y-112800000D01*
D41*
X183170000Y-102500000D02*
X183170000Y-103770000D01*
D39*
X137150000Y-98400000D02*
X136130000Y-98400000D01*
X134425000Y-109350000D02*
X134430000Y-109355000D01*
X111890000Y-95890000D02*
X111900000Y-95900000D01*
D40*
X124750000Y-115250000D02*
X126200000Y-113800000D01*
X125000000Y-112800000D02*
X125000000Y-115025000D01*
D41*
X183170000Y-103770000D02*
X183200000Y-103800000D01*
D39*
X117645000Y-98400000D02*
X118700000Y-98400000D01*
X138795000Y-95965000D02*
X138805000Y-95975000D01*
X136267500Y-108400000D02*
X136267500Y-107417500D01*
X133205000Y-109350000D02*
X134425000Y-109350000D01*
D40*
X124750000Y-115275000D02*
X124725000Y-115275000D01*
D39*
X167250000Y-96700000D02*
X168300000Y-96700000D01*
D40*
X124725000Y-115275000D02*
X123300000Y-116700000D01*
D39*
X110145000Y-98400000D02*
X109100000Y-98400000D01*
X167550000Y-99600000D02*
X166500000Y-99600000D01*
D40*
X124750000Y-115275000D02*
X124750000Y-115250000D01*
D39*
X124667500Y-108400000D02*
X124667500Y-107392500D01*
X126767500Y-107392500D02*
X126730000Y-107355000D01*
X125395000Y-94375000D02*
X125395000Y-95895000D01*
X161487500Y-99600000D02*
X160400000Y-99600000D01*
X136267500Y-107417500D02*
X136330000Y-107355000D01*
X138795000Y-94375000D02*
X138795000Y-95965000D01*
X142350000Y-112815000D02*
X143985000Y-112815000D01*
D40*
X124750000Y-115250000D02*
X123300000Y-113800000D01*
D39*
X169825000Y-96900000D02*
X171000000Y-96900000D01*
X145630000Y-98300000D02*
X145705000Y-98375000D01*
X126767500Y-108400000D02*
X126767500Y-107392500D01*
X125395000Y-95895000D02*
X125400000Y-95900000D01*
%TO.N,/BUZZER*%
X151650000Y-111545000D02*
X152955000Y-111545000D01*
X152955000Y-111545000D02*
X155300000Y-109200000D01*
X155300000Y-109200000D02*
X159000000Y-109200000D01*
D42*
%TO.N,+5V*%
X157000000Y-96700000D02*
X165350000Y-96700000D01*
X124800000Y-92500000D02*
X128600000Y-92500000D01*
D43*
X124667500Y-109382500D02*
X124667500Y-110300000D01*
X124700000Y-109350000D02*
X124667500Y-109382500D01*
D41*
X133205000Y-110300000D02*
X132500000Y-110300000D01*
D42*
X149600000Y-100900000D02*
X150400000Y-100100000D01*
X159800000Y-107500000D02*
X160700000Y-108400000D01*
X108800000Y-91000000D02*
X108800000Y-84000000D01*
X129205000Y-95905000D02*
X129350000Y-96050000D01*
X165350000Y-95260000D02*
X167760000Y-92850000D01*
X151800000Y-92500000D02*
X155500000Y-92500000D01*
X155600000Y-100100000D02*
X156350000Y-99350000D01*
X160700000Y-108400000D02*
X160700000Y-110200000D01*
X142750000Y-96020000D02*
X142750000Y-98400000D01*
X102400000Y-94700000D02*
X102400000Y-90000000D01*
X115200000Y-109400000D02*
X112000000Y-112600000D01*
X107500000Y-112600000D02*
X104300000Y-109400000D01*
X160700000Y-110200000D02*
X159800000Y-111100000D01*
X150400000Y-96700000D02*
X151200000Y-95900000D01*
X121000000Y-109350000D02*
X120950000Y-109400000D01*
X129205000Y-93105000D02*
X129205000Y-95905000D01*
X116500000Y-96700000D02*
X123400000Y-96700000D01*
D43*
X132500000Y-110300000D02*
X131571250Y-109371250D01*
D42*
X115000000Y-92500000D02*
X110300000Y-92500000D01*
D40*
X125500000Y-111132500D02*
X124667500Y-110300000D01*
D42*
X128600000Y-92500000D02*
X129205000Y-93105000D01*
X143500000Y-96700000D02*
X150400000Y-96700000D01*
X124200000Y-93100000D02*
X124800000Y-92500000D01*
X150400000Y-100100000D02*
X155600000Y-100100000D01*
X137605000Y-95675000D02*
X137605000Y-93075000D01*
D43*
X121000000Y-109350000D02*
X124700000Y-109350000D01*
D42*
X129350000Y-96050000D02*
X129350000Y-98400000D01*
X104300000Y-96600000D02*
X102400000Y-94700000D01*
X115700000Y-93200000D02*
X115000000Y-92500000D01*
D40*
X120400000Y-112800000D02*
X120400000Y-109400000D01*
D42*
X154350000Y-112350000D02*
X154350000Y-112800000D01*
X151200000Y-93100000D02*
X151800000Y-92500000D01*
X155600000Y-111100000D02*
X154350000Y-112350000D01*
X156205000Y-93205000D02*
X156205000Y-95905000D01*
X120400000Y-109400000D02*
X115200000Y-109400000D01*
D43*
X131571250Y-109371250D02*
X132542501Y-108400000D01*
D42*
X102420000Y-89980000D02*
X104400000Y-89980000D01*
D40*
X124500000Y-110467500D02*
X124667500Y-110300000D01*
D42*
X149600000Y-105400000D02*
X149600000Y-100900000D01*
X103900000Y-82700000D02*
X102400000Y-84200000D01*
X159800000Y-111100000D02*
X155600000Y-111100000D01*
X115700000Y-95900000D02*
X115700000Y-93200000D01*
X142605000Y-93175000D02*
X142605000Y-95875000D01*
X136580000Y-96700000D02*
X137605000Y-95675000D01*
X155500000Y-92500000D02*
X156205000Y-93205000D01*
X108800000Y-84000000D02*
X107500000Y-82700000D01*
X156350000Y-96050000D02*
X156350000Y-98400000D01*
X138205000Y-92475000D02*
X141905000Y-92475000D01*
X129205000Y-95905000D02*
X130000000Y-96700000D01*
X141905000Y-92475000D02*
X142605000Y-93175000D01*
X156350000Y-99350000D02*
X156350000Y-98400000D01*
D40*
X125500000Y-112800000D02*
X125500000Y-111132500D01*
D43*
X124700000Y-109350000D02*
X131492501Y-109350000D01*
D42*
X110300000Y-92500000D02*
X108800000Y-91000000D01*
X120950000Y-109400000D02*
X120400000Y-109400000D01*
D39*
X151650000Y-112815000D02*
X154335000Y-112815000D01*
D41*
X131542501Y-109400000D02*
X131571250Y-109371250D01*
D42*
X153700000Y-107500000D02*
X159800000Y-107500000D01*
X115700000Y-95900000D02*
X115745000Y-95945000D01*
D41*
X132542501Y-108400000D02*
X133205000Y-108400000D01*
D42*
X137605000Y-93075000D02*
X138205000Y-92475000D01*
X151200000Y-95900000D02*
X151200000Y-93100000D01*
X156205000Y-95905000D02*
X156350000Y-96050000D01*
D40*
X122275000Y-114025000D02*
X121625000Y-114025000D01*
D39*
X133205000Y-110300000D02*
X136267500Y-110300000D01*
D42*
X130000000Y-96700000D02*
X136580000Y-96700000D01*
X142605000Y-95875000D02*
X142750000Y-96020000D01*
X102400000Y-90000000D02*
X102420000Y-89980000D01*
X115700000Y-95900000D02*
X116500000Y-96700000D01*
D40*
X124500000Y-112800000D02*
X124500000Y-110467500D01*
D42*
X107500000Y-82700000D02*
X103900000Y-82700000D01*
X112000000Y-112600000D02*
X107500000Y-112600000D01*
X124200000Y-95900000D02*
X124200000Y-93100000D01*
X156205000Y-95905000D02*
X157000000Y-96700000D01*
X142605000Y-95875000D02*
X143405000Y-96675000D01*
D40*
X121625000Y-114025000D02*
X120400000Y-112800000D01*
D39*
X154335000Y-112815000D02*
X154350000Y-112800000D01*
D42*
X104300000Y-109400000D02*
X104300000Y-96600000D01*
X115745000Y-95945000D02*
X115745000Y-98400000D01*
X102400000Y-84200000D02*
X102400000Y-90000000D01*
X165350000Y-96700000D02*
X165350000Y-95260000D01*
X123400000Y-96700000D02*
X124200000Y-95900000D01*
D39*
%TO.N,VCC*%
X175300000Y-90700000D02*
X173150000Y-92850000D01*
D41*
X172775000Y-99462500D02*
X172912500Y-99600000D01*
D42*
X172840000Y-96835000D02*
X172775000Y-96900000D01*
D41*
X172775000Y-96900000D02*
X172775000Y-99462500D01*
D42*
X172840000Y-92850000D02*
X172840000Y-96835000D01*
D39*
X173150000Y-92850000D02*
X172840000Y-92850000D01*
X175300000Y-85037500D02*
X175300000Y-90700000D01*
%TO.N,/IMON_1*%
X127200000Y-99800000D02*
X114800000Y-99800000D01*
D41*
X113895000Y-98895000D02*
X113895000Y-98612500D01*
D39*
X113895000Y-98612500D02*
X112257500Y-98612500D01*
X142350000Y-101385000D02*
X128785000Y-101385000D01*
X128785000Y-101385000D02*
X127200000Y-99800000D01*
X114800000Y-99800000D02*
X113895000Y-98895000D01*
X112257500Y-98612500D02*
X112045000Y-98400000D01*
%TO.N,/IMON_2*%
X127500000Y-98612500D02*
X127500000Y-98800000D01*
X146600000Y-101600000D02*
X146600000Y-106600000D01*
X145500000Y-100500000D02*
X146600000Y-101600000D01*
X150275000Y-110275000D02*
X151650000Y-110275000D01*
X127500000Y-98612500D02*
X125862500Y-98612500D01*
X146600000Y-106600000D02*
X150275000Y-110275000D01*
X129200000Y-100500000D02*
X145500000Y-100500000D01*
X125862500Y-98612500D02*
X125650000Y-98400000D01*
X127500000Y-98800000D02*
X129200000Y-100500000D01*
%TO.N,/IMON_3*%
X140900000Y-98612500D02*
X140900000Y-98900000D01*
X140900000Y-98900000D02*
X141700000Y-99700000D01*
X140900000Y-98612500D02*
X139262500Y-98612500D01*
X146200000Y-99700000D02*
X147500000Y-101000000D01*
X147500000Y-101000000D02*
X147500000Y-106200000D01*
X150305000Y-109005000D02*
X151650000Y-109005000D01*
X147500000Y-106200000D02*
X150305000Y-109005000D01*
X139262500Y-98612500D02*
X139050000Y-98400000D01*
X141700000Y-99700000D02*
X146200000Y-99700000D01*
%TO.N,/IMON_4*%
X151650000Y-107735000D02*
X150335000Y-107735000D01*
X150335000Y-107735000D02*
X148400000Y-105800000D01*
X148400000Y-105800000D02*
X148400000Y-100400000D01*
X149950000Y-98850000D02*
X149950000Y-98400000D01*
X148400000Y-100400000D02*
X149950000Y-98850000D01*
X150162500Y-98612500D02*
X149950000Y-98400000D01*
X150162500Y-98612500D02*
X154500000Y-98612500D01*
%TO.N,+3V3*%
X130930000Y-110300000D02*
X128867500Y-110300000D01*
D40*
X126000000Y-112800000D02*
X126000000Y-111067500D01*
D39*
X126767500Y-110300000D02*
X128867500Y-110300000D01*
D40*
X126000000Y-111067500D02*
X126767500Y-110300000D01*
D39*
%TO.N,Net-(J1-Pin_1)*%
X185430000Y-92430000D02*
X185000000Y-92000000D01*
X185430000Y-97000000D02*
X185430000Y-92430000D01*
%TO.N,Net-(J1-Pin_2)*%
X186900000Y-88500000D02*
X185000000Y-88500000D01*
X187970000Y-97000000D02*
X187970000Y-89570000D01*
X187970000Y-89570000D02*
X186900000Y-88500000D01*
D41*
%TO.N,Net-(J1-Pin_3)*%
X182100000Y-95100000D02*
X182100000Y-86000000D01*
X183170000Y-97000000D02*
X183170000Y-96170000D01*
X183100000Y-85000000D02*
X185000000Y-85000000D01*
X183170000Y-96170000D02*
X182100000Y-95100000D01*
X182100000Y-86000000D02*
X183100000Y-85000000D01*
%TO.N,Net-(J1-Pin_4)*%
X180630000Y-97000000D02*
X180630000Y-95970000D01*
X183100000Y-81500000D02*
X185000000Y-81500000D01*
X181500000Y-83100000D02*
X183100000Y-81500000D01*
X180630000Y-95970000D02*
X181500000Y-95100000D01*
X181500000Y-95100000D02*
X181500000Y-83100000D01*
D39*
%TO.N,/UPDI*%
X106940000Y-96272500D02*
X106512500Y-96700000D01*
D41*
X106512500Y-109812500D02*
X106512500Y-96700000D01*
X116800000Y-105800000D02*
X111000000Y-111600000D01*
X139100000Y-105800000D02*
X116800000Y-105800000D01*
X141035000Y-107735000D02*
X139100000Y-105800000D01*
D39*
X106940000Y-89980000D02*
X106940000Y-96272500D01*
D41*
X142350000Y-107735000D02*
X141035000Y-107735000D01*
X111000000Y-111600000D02*
X108300000Y-111600000D01*
X108300000Y-111600000D02*
X106512500Y-109812500D01*
%TO.N,/ISOL_OUT2*%
X151650000Y-105195000D02*
X177717500Y-105195000D01*
X177717500Y-105195000D02*
X178000000Y-104912500D01*
%TO.N,Net-(R1-Pad2)*%
X178000000Y-103087500D02*
X178587500Y-102500000D01*
X178587500Y-102500000D02*
X180630000Y-102500000D01*
%TO.N,/ISOL_OUT1*%
X185400000Y-106412500D02*
X185347500Y-106465000D01*
X185347500Y-106465000D02*
X151650000Y-106465000D01*
%TO.N,Net-(R2-Pad2)*%
X185430000Y-104517500D02*
X185500000Y-104587500D01*
X185430000Y-102500000D02*
X185430000Y-104517500D01*
%TO.N,/MCU_UART_TX*%
X175200000Y-101500000D02*
X175200000Y-98612500D01*
X174045000Y-102655000D02*
X175200000Y-101500000D01*
X151650000Y-102655000D02*
X174045000Y-102655000D01*
%TO.N,/MCU_UART_RX*%
X174275000Y-103925000D02*
X177600000Y-100600000D01*
X151650000Y-103925000D02*
X174275000Y-103925000D01*
X177600000Y-100600000D02*
X177600000Y-98612500D01*
D39*
%TO.N,Net-(U1-VOUT)*%
X114430000Y-96252500D02*
X113895000Y-96787500D01*
X114430000Y-94375000D02*
X114430000Y-96252500D01*
%TO.N,Net-(U2-VOUT)*%
X127935000Y-96352500D02*
X127500000Y-96787500D01*
X127935000Y-94375000D02*
X127935000Y-96352500D01*
%TO.N,Net-(U3-VOUT)*%
X141335000Y-96352500D02*
X140900000Y-96787500D01*
X141335000Y-94375000D02*
X141335000Y-96352500D01*
%TO.N,Net-(U4-VOUT)*%
X154935000Y-94375000D02*
X154935000Y-96352500D01*
X154935000Y-96352500D02*
X154500000Y-96787500D01*
D41*
%TO.N,/SPI_SDIO*%
X123896250Y-106500000D02*
X138800000Y-106500000D01*
X122567500Y-107828750D02*
X123896250Y-106500000D01*
X122567500Y-108437500D02*
X122567500Y-107828750D01*
X138800000Y-106500000D02*
X141305000Y-109005000D01*
X141305000Y-109005000D02*
X142350000Y-109005000D01*
D40*
%TO.N,Net-(U9-SDIO)*%
X124000000Y-112800000D02*
X124000000Y-111695000D01*
X124000000Y-111695000D02*
X122567500Y-110262500D01*
D41*
%TO.N,/VMON*%
X163400000Y-101385000D02*
X163312500Y-101297500D01*
X163400000Y-101385000D02*
X168415000Y-101385000D01*
X163312500Y-101297500D02*
X163312500Y-99600000D01*
X151650000Y-101385000D02*
X163400000Y-101385000D01*
D39*
X171087500Y-99600000D02*
X169450000Y-99600000D01*
D41*
X168415000Y-101385000D02*
X170100000Y-99700000D01*
X170100000Y-99700000D02*
X170400000Y-99700000D01*
D39*
%TO.N,/SW_DIP1*%
X114667500Y-105000000D02*
X109667500Y-110000000D01*
X142350000Y-106465000D02*
X140865000Y-106465000D01*
X139400000Y-105000000D02*
X114667500Y-105000000D01*
X140865000Y-106465000D02*
X139400000Y-105000000D01*
%TO.N,/SW_DIP2*%
X140795000Y-105195000D02*
X139700000Y-104100000D01*
X139700000Y-104100000D02*
X113027500Y-104100000D01*
X142350000Y-105195000D02*
X140795000Y-105195000D01*
X113027500Y-104100000D02*
X109667500Y-107460000D01*
%TO.N,/SW_DIP3*%
X140200000Y-103200000D02*
X111387500Y-103200000D01*
X111387500Y-103200000D02*
X109667500Y-104920000D01*
X140925000Y-103925000D02*
X140200000Y-103200000D01*
X142350000Y-103925000D02*
X140925000Y-103925000D01*
%TO.N,/SW_DIP4*%
X109747500Y-102300000D02*
X109667500Y-102380000D01*
X142350000Y-102655000D02*
X141055000Y-102655000D01*
X140700000Y-102300000D02*
X109747500Y-102300000D01*
X141055000Y-102655000D02*
X140700000Y-102300000D01*
D40*
%TO.N,/DISP_COM4*%
X138000000Y-112800000D02*
X141000000Y-115800000D01*
X132300000Y-142400000D02*
X132300000Y-141150000D01*
X141000000Y-115800000D02*
X157800000Y-115800000D01*
X126500000Y-112800000D02*
X138000000Y-112800000D01*
X133200000Y-143300000D02*
X132300000Y-142400000D01*
X159900000Y-142000000D02*
X158600000Y-143300000D01*
X159900000Y-117900000D02*
X159900000Y-142000000D01*
X157800000Y-115800000D02*
X159900000Y-117900000D01*
X158600000Y-143300000D02*
X133200000Y-143300000D01*
%TO.N,/SPI_SCL*%
X126700000Y-111800000D02*
X127000000Y-112100000D01*
X123000000Y-112800000D02*
X123000000Y-111800000D01*
X140600000Y-112100000D02*
X141155000Y-111545000D01*
X141155000Y-111545000D02*
X142350000Y-111545000D01*
X127000000Y-112100000D02*
X140600000Y-112100000D01*
%TO.N,/SPI_nCS*%
X122275000Y-113525000D02*
X122000000Y-113250000D01*
X122000000Y-113250000D02*
X122000000Y-111400000D01*
X127700000Y-111300000D02*
X127800000Y-111400000D01*
X140100000Y-111400000D02*
X141225000Y-110275000D01*
X127800000Y-111400000D02*
X140100000Y-111400000D01*
X141225000Y-110275000D02*
X142350000Y-110275000D01*
%TO.N,Net-(U9-SEG0)*%
X121075000Y-115025000D02*
X119900000Y-116200000D01*
X119900000Y-120500000D02*
X137380000Y-137980000D01*
X122275000Y-115025000D02*
X121075000Y-115025000D01*
X137380000Y-137980000D02*
X137380000Y-141150000D01*
X119900000Y-116200000D02*
X119900000Y-120500000D01*
%TO.N,Net-(U9-SEG1)*%
X120400000Y-120300000D02*
X139920000Y-139820000D01*
X121275000Y-115525000D02*
X120400000Y-116400000D01*
X139920000Y-139820000D02*
X139920000Y-141150000D01*
X120400000Y-116400000D02*
X120400000Y-120300000D01*
X122275000Y-115525000D02*
X121275000Y-115525000D01*
%TO.N,Net-(U9-SEG2)*%
X121475000Y-116025000D02*
X120900000Y-116600000D01*
X138400000Y-137600000D02*
X140100000Y-137600000D01*
X120900000Y-120100000D02*
X138400000Y-137600000D01*
X140100000Y-137600000D02*
X142460000Y-139960000D01*
X120900000Y-116600000D02*
X120900000Y-120100000D01*
X122275000Y-116025000D02*
X121475000Y-116025000D01*
X142460000Y-139960000D02*
X142460000Y-141150000D01*
%TO.N,Net-(U9-SEG3)*%
X121400000Y-116800000D02*
X121400000Y-119900000D01*
X142200000Y-137100000D02*
X145000000Y-139900000D01*
X121675000Y-116525000D02*
X121400000Y-116800000D01*
X138600000Y-137100000D02*
X142200000Y-137100000D01*
X122275000Y-116525000D02*
X121675000Y-116525000D01*
X121400000Y-119900000D02*
X138600000Y-137100000D01*
X145000000Y-139900000D02*
X145000000Y-141150000D01*
%TO.N,Net-(U9-SEG4)*%
X144200000Y-136600000D02*
X147540000Y-139940000D01*
X138800000Y-136600000D02*
X144200000Y-136600000D01*
X147540000Y-139940000D02*
X147540000Y-141150000D01*
X122275000Y-117025000D02*
X122275000Y-120075000D01*
X122275000Y-120075000D02*
X138800000Y-136600000D01*
%TO.N,Net-(U9-SEG5)*%
X146200000Y-136100000D02*
X150080000Y-139980000D01*
X139000000Y-136100000D02*
X146200000Y-136100000D01*
X150080000Y-139980000D02*
X150080000Y-141150000D01*
X123000000Y-120100000D02*
X139000000Y-136100000D01*
X123000000Y-117750000D02*
X123000000Y-120100000D01*
%TO.N,Net-(U9-SEG6)*%
X123500000Y-119900000D02*
X139200000Y-135600000D01*
X123500000Y-117750000D02*
X123500000Y-119900000D01*
X139200000Y-135600000D02*
X148300000Y-135600000D01*
X152620000Y-139920000D02*
X152620000Y-141150000D01*
X148300000Y-135600000D02*
X152620000Y-139920000D01*
%TO.N,Net-(U9-SEG7)*%
X124000000Y-119700000D02*
X139400000Y-135100000D01*
X150300000Y-135100000D02*
X155160000Y-139960000D01*
X124000000Y-117750000D02*
X124000000Y-119700000D01*
X155160000Y-139960000D02*
X155160000Y-141150000D01*
X139400000Y-135100000D02*
X150300000Y-135100000D01*
%TO.N,Net-(U9-SEG8)*%
X157700000Y-140000000D02*
X157700000Y-141150000D01*
X152300000Y-134600000D02*
X157700000Y-140000000D01*
X139600000Y-134600000D02*
X152300000Y-134600000D01*
X124500000Y-117750000D02*
X124500000Y-119500000D01*
X124500000Y-119500000D02*
X139600000Y-134600000D01*
%TO.N,Net-(U9-SEG9)*%
X130000000Y-124300000D02*
X152250000Y-124300000D01*
X125000000Y-117750000D02*
X125000000Y-119300000D01*
X125000000Y-119300000D02*
X130000000Y-124300000D01*
X152250000Y-124300000D02*
X157700000Y-118850000D01*
%TO.N,Net-(U9-SEG10)*%
X150210000Y-123800000D02*
X155160000Y-118850000D01*
X130200000Y-123800000D02*
X150210000Y-123800000D01*
X125500000Y-119100000D02*
X130200000Y-123800000D01*
X125500000Y-117750000D02*
X125500000Y-119100000D01*
%TO.N,Net-(U9-SEG11)*%
X126000000Y-117750000D02*
X126000000Y-118900000D01*
X148170000Y-123300000D02*
X152620000Y-118850000D01*
X126000000Y-118900000D02*
X130400000Y-123300000D01*
X130400000Y-123300000D02*
X148170000Y-123300000D01*
%TO.N,Net-(U9-SEG12)*%
X130600000Y-122800000D02*
X146130000Y-122800000D01*
X126500000Y-118700000D02*
X130600000Y-122800000D01*
X146130000Y-122800000D02*
X150080000Y-118850000D01*
X126500000Y-117800000D02*
X126500000Y-117750000D01*
X126500000Y-117750000D02*
X126500000Y-118700000D01*
%TO.N,Net-(U9-SEG13)*%
X127862500Y-117025000D02*
X128800000Y-117962500D01*
X130800000Y-122300000D02*
X144090000Y-122300000D01*
X127225000Y-117025000D02*
X127862500Y-117025000D01*
X144090000Y-122300000D02*
X147540000Y-118850000D01*
X128800000Y-120300000D02*
X130800000Y-122300000D01*
X128800000Y-117962500D02*
X128800000Y-120300000D01*
%TO.N,Net-(U9-SEG14)*%
X128025000Y-116525000D02*
X129300000Y-117800000D01*
X142050000Y-121800000D02*
X145000000Y-118850000D01*
X129300000Y-117800000D02*
X129300000Y-120100000D01*
X127225000Y-116525000D02*
X128025000Y-116525000D01*
X129300000Y-120100000D02*
X131000000Y-121800000D01*
X131000000Y-121800000D02*
X142050000Y-121800000D01*
%TO.N,Net-(U9-SEG15)*%
X127225000Y-116025000D02*
X128225000Y-116025000D01*
X129800000Y-117600000D02*
X129800000Y-119900000D01*
X140000000Y-121300000D02*
X142450000Y-118850000D01*
X142450000Y-118850000D02*
X142460000Y-118850000D01*
X129800000Y-119900000D02*
X131200000Y-121300000D01*
X128225000Y-116025000D02*
X129800000Y-117600000D01*
X131200000Y-121300000D02*
X140000000Y-121300000D01*
%TO.N,Net-(U9-SEG16)*%
X130300000Y-119700000D02*
X131400000Y-120800000D01*
X131400000Y-120800000D02*
X138000000Y-120800000D01*
X128425000Y-115525000D02*
X130300000Y-117400000D01*
X138000000Y-120800000D02*
X139920000Y-118880000D01*
X139920000Y-118880000D02*
X139920000Y-118850000D01*
X130300000Y-117400000D02*
X130300000Y-119700000D01*
X127225000Y-115525000D02*
X128425000Y-115525000D01*
%TO.N,Net-(U9-SEG17)*%
X137350000Y-118850000D02*
X137380000Y-118850000D01*
X130800000Y-119500000D02*
X131600000Y-120300000D01*
X130800000Y-117200000D02*
X130800000Y-119500000D01*
X135900000Y-120300000D02*
X137350000Y-118850000D01*
X127225000Y-115025000D02*
X128625000Y-115025000D01*
X128625000Y-115025000D02*
X130800000Y-117200000D01*
X131600000Y-120300000D02*
X135900000Y-120300000D01*
%TO.N,/DISP_COM1*%
X127225000Y-114525000D02*
X128825000Y-114525000D01*
X132300000Y-118000000D02*
X132300000Y-118850000D01*
X128825000Y-114525000D02*
X132300000Y-118000000D01*
%TO.N,/DISP_COM2*%
X127225000Y-114025000D02*
X130025000Y-114025000D01*
X130025000Y-114025000D02*
X134840000Y-118840000D01*
X134840000Y-118840000D02*
X134840000Y-118850000D01*
%TO.N,/DISP_COM3*%
X137925000Y-113525000D02*
X140800000Y-116400000D01*
X158400000Y-142700000D02*
X135200000Y-142700000D01*
X127225000Y-113525000D02*
X137925000Y-113525000D01*
X159300000Y-141800000D02*
X158400000Y-142700000D01*
X140800000Y-116400000D02*
X157600000Y-116400000D01*
X159300000Y-118100000D02*
X159300000Y-141800000D01*
X134840000Y-142340000D02*
X134840000Y-141150000D01*
X157600000Y-116400000D02*
X159300000Y-118100000D01*
X135200000Y-142700000D02*
X134840000Y-142340000D01*
D41*
%TO.N,Net-(J1-Pin_5)*%
X179200000Y-81900000D02*
X179200000Y-92800000D01*
X177600000Y-94400000D02*
X177600000Y-96787500D01*
X185000000Y-78000000D02*
X183100000Y-78000000D01*
X179200000Y-92800000D02*
X177600000Y-94400000D01*
X183100000Y-78000000D02*
X179200000Y-81900000D01*
%TO.N,Net-(J1-Pin_6)*%
X183100000Y-74500000D02*
X185000000Y-74500000D01*
X178200000Y-79400000D02*
X183100000Y-74500000D01*
X175200000Y-95400000D02*
X178200000Y-92400000D01*
X175200000Y-96787500D02*
X175200000Y-95400000D01*
X178200000Y-92400000D02*
X178200000Y-79400000D01*
%TD*%
%TA.AperFunction,Conductor*%
%TO.N,Net-(F4-Pad2)*%
G36*
X163543039Y-85519685D02*
G01*
X163588794Y-85572489D01*
X163600000Y-85624000D01*
X163600000Y-95076000D01*
X163580315Y-95143039D01*
X163527511Y-95188794D01*
X163476000Y-95200000D01*
X157824000Y-95200000D01*
X157756961Y-95180315D01*
X157711206Y-95127511D01*
X157700000Y-95076000D01*
X157700000Y-91000000D01*
X154529500Y-91000000D01*
X154462461Y-90980315D01*
X154416706Y-90927511D01*
X154405500Y-90876000D01*
X154405500Y-85624000D01*
X154425185Y-85556961D01*
X154477989Y-85511206D01*
X154529500Y-85500000D01*
X163476000Y-85500000D01*
X163543039Y-85519685D01*
G37*
%TD.AperFunction*%
%TD*%
%TA.AperFunction,Conductor*%
%TO.N,Net-(F2-Pad2)*%
G36*
X136043039Y-85519685D02*
G01*
X136088794Y-85572489D01*
X136100000Y-85624000D01*
X136100000Y-95076000D01*
X136080315Y-95143039D01*
X136027511Y-95188794D01*
X135976000Y-95200000D01*
X130824000Y-95200000D01*
X130756961Y-95180315D01*
X130711206Y-95127511D01*
X130700000Y-95076000D01*
X130700000Y-91000000D01*
X127529500Y-91000000D01*
X127462461Y-90980315D01*
X127416706Y-90927511D01*
X127405500Y-90876000D01*
X127405500Y-85624000D01*
X127425185Y-85556961D01*
X127477989Y-85511206D01*
X127529500Y-85500000D01*
X135976000Y-85500000D01*
X136043039Y-85519685D01*
G37*
%TD.AperFunction*%
%TD*%
%TA.AperFunction,Conductor*%
%TO.N,Net-(F1-Pad2)*%
G36*
X122643039Y-85519685D02*
G01*
X122688794Y-85572489D01*
X122700000Y-85624000D01*
X122700000Y-95076000D01*
X122680315Y-95143039D01*
X122627511Y-95188794D01*
X122576000Y-95200000D01*
X117324000Y-95200000D01*
X117256961Y-95180315D01*
X117211206Y-95127511D01*
X117200000Y-95076000D01*
X117200000Y-91000000D01*
X114029500Y-91000000D01*
X113962461Y-90980315D01*
X113916706Y-90927511D01*
X113905500Y-90876000D01*
X113905500Y-85624000D01*
X113925185Y-85556961D01*
X113977989Y-85511206D01*
X114029500Y-85500000D01*
X122576000Y-85500000D01*
X122643039Y-85519685D01*
G37*
%TD.AperFunction*%
%TD*%
%TA.AperFunction,Conductor*%
%TO.N,Net-(F3-Pad2)*%
G36*
X149643039Y-85519685D02*
G01*
X149688794Y-85572489D01*
X149700000Y-85624000D01*
X149700000Y-95076000D01*
X149680315Y-95143039D01*
X149627511Y-95188794D01*
X149576000Y-95200000D01*
X144224000Y-95200000D01*
X144156961Y-95180315D01*
X144111206Y-95127511D01*
X144100000Y-95076000D01*
X144100000Y-91000000D01*
X141029500Y-91000000D01*
X140962461Y-90980315D01*
X140916706Y-90927511D01*
X140905500Y-90876000D01*
X140905500Y-85624000D01*
X140925185Y-85556961D01*
X140977989Y-85511206D01*
X141029500Y-85500000D01*
X149576000Y-85500000D01*
X149643039Y-85519685D01*
G37*
%TD.AperFunction*%
%TD*%
%TA.AperFunction,Conductor*%
%TO.N,GND*%
G36*
X177043039Y-52219685D02*
G01*
X177088794Y-52272489D01*
X177100000Y-52324000D01*
X177100000Y-59276000D01*
X177080315Y-59343039D01*
X177027511Y-59388794D01*
X176976000Y-59400000D01*
X116024000Y-59400000D01*
X115956961Y-59380315D01*
X115911206Y-59327511D01*
X115900000Y-59276000D01*
X115900000Y-52324000D01*
X115919685Y-52256961D01*
X115972489Y-52211206D01*
X116024000Y-52200000D01*
X176976000Y-52200000D01*
X177043039Y-52219685D01*
G37*
%TD.AperFunction*%
%TD*%
%TA.AperFunction,Conductor*%
%TO.N,Net-(BT2-+)*%
G36*
X137543039Y-60619685D02*
G01*
X137588794Y-60672489D01*
X137600000Y-60724000D01*
X137600000Y-78476000D01*
X137580315Y-78543039D01*
X137527511Y-78588794D01*
X137476000Y-78600000D01*
X129524000Y-78600000D01*
X129456961Y-78580315D01*
X129411206Y-78527511D01*
X129400000Y-78476000D01*
X129400000Y-60724000D01*
X129419685Y-60656961D01*
X129472489Y-60611206D01*
X129524000Y-60600000D01*
X137476000Y-60600000D01*
X137543039Y-60619685D01*
G37*
%TD.AperFunction*%
%TD*%
%TA.AperFunction,Conductor*%
%TO.N,Net-(BT1-+)*%
G36*
X124043039Y-60619685D02*
G01*
X124088794Y-60672489D01*
X124100000Y-60724000D01*
X124100000Y-78476000D01*
X124080315Y-78543039D01*
X124027511Y-78588794D01*
X123976000Y-78600000D01*
X116024000Y-78600000D01*
X115956961Y-78580315D01*
X115911206Y-78527511D01*
X115900000Y-78476000D01*
X115900000Y-60724000D01*
X115919685Y-60656961D01*
X115972489Y-60611206D01*
X116024000Y-60600000D01*
X123976000Y-60600000D01*
X124043039Y-60619685D01*
G37*
%TD.AperFunction*%
%TD*%
%TA.AperFunction,Conductor*%
%TO.N,Net-(BT3-+)*%
G36*
X151043039Y-60619685D02*
G01*
X151088794Y-60672489D01*
X151100000Y-60724000D01*
X151100000Y-78476000D01*
X151080315Y-78543039D01*
X151027511Y-78588794D01*
X150976000Y-78600000D01*
X143024000Y-78600000D01*
X142956961Y-78580315D01*
X142911206Y-78527511D01*
X142900000Y-78476000D01*
X142900000Y-60724000D01*
X142919685Y-60656961D01*
X142972489Y-60611206D01*
X143024000Y-60600000D01*
X150976000Y-60600000D01*
X151043039Y-60619685D01*
G37*
%TD.AperFunction*%
%TD*%
%TA.AperFunction,Conductor*%
%TO.N,Net-(BT4-+)*%
G36*
X164543039Y-60619685D02*
G01*
X164588794Y-60672489D01*
X164600000Y-60724000D01*
X164600000Y-78476000D01*
X164580315Y-78543039D01*
X164527511Y-78588794D01*
X164476000Y-78600000D01*
X156524000Y-78600000D01*
X156456961Y-78580315D01*
X156411206Y-78527511D01*
X156400000Y-78476000D01*
X156400000Y-60724000D01*
X156419685Y-60656961D01*
X156472489Y-60611206D01*
X156524000Y-60600000D01*
X164476000Y-60600000D01*
X164543039Y-60619685D01*
G37*
%TD.AperFunction*%
%TD*%
%TA.AperFunction,Conductor*%
%TO.N,/XT60 Channel/+VOUT*%
G36*
X177243039Y-60619685D02*
G01*
X177288794Y-60672489D01*
X177300000Y-60724000D01*
X177300000Y-78648638D01*
X177280315Y-78715677D01*
X177263681Y-78736319D01*
X170936319Y-85063681D01*
X170874996Y-85097166D01*
X170848638Y-85100000D01*
X154200000Y-85100000D01*
X154200000Y-90876000D01*
X154180315Y-90943039D01*
X154127511Y-90988794D01*
X154076000Y-91000000D01*
X150224000Y-91000000D01*
X150156961Y-90980315D01*
X150111206Y-90927511D01*
X150100000Y-90876000D01*
X150100000Y-85100000D01*
X140700000Y-85100000D01*
X140700000Y-90876000D01*
X140680315Y-90943039D01*
X140627511Y-90988794D01*
X140576000Y-91000000D01*
X136624000Y-91000000D01*
X136556961Y-90980315D01*
X136511206Y-90927511D01*
X136500000Y-90876000D01*
X136500000Y-85100000D01*
X127200000Y-85100000D01*
X127200000Y-90876000D01*
X127180315Y-90943039D01*
X127127511Y-90988794D01*
X127076000Y-91000000D01*
X123224000Y-91000000D01*
X123156961Y-90980315D01*
X123111206Y-90927511D01*
X123100000Y-90876000D01*
X123100000Y-85100000D01*
X113700000Y-85100000D01*
X113700000Y-90876000D01*
X113680315Y-90943039D01*
X113627511Y-90988794D01*
X113576000Y-91000000D01*
X111451362Y-91000000D01*
X111384323Y-90980315D01*
X111363681Y-90963681D01*
X110336319Y-89936319D01*
X110302834Y-89874996D01*
X110300000Y-89848638D01*
X110300000Y-79374000D01*
X110319685Y-79306961D01*
X110372489Y-79261206D01*
X110424000Y-79250000D01*
X165750000Y-79250000D01*
X165750000Y-60724000D01*
X165769685Y-60656961D01*
X165822489Y-60611206D01*
X165874000Y-60600000D01*
X177176000Y-60600000D01*
X177243039Y-60619685D01*
G37*
%TD.AperFunction*%
%TD*%
M02*
