%TF.GenerationSoftware,KiCad,Pcbnew,8.0.1*%
%TF.CreationDate,2024-04-25T22:53:37+02:00*%
%TF.ProjectId,xt60_parallelizer,78743630-5f70-4617-9261-6c6c656c697a,rev?*%
%TF.SameCoordinates,Original*%
%TF.FileFunction,Legend,Top*%
%TF.FilePolarity,Positive*%
%FSLAX46Y46*%
G04 Gerber Fmt 4.6, Leading zero omitted, Abs format (unit mm)*
G04 Created by KiCad (PCBNEW 8.0.1) date 2024-04-25 22:53:37*
%MOMM*%
%LPD*%
G01*
G04 APERTURE LIST*
%ADD10C,0.150000*%
%ADD11C,0.500000*%
%ADD12C,0.250000*%
%ADD13C,0.100000*%
%ADD14C,0.120000*%
G04 APERTURE END LIST*
D10*
X180300000Y-103900000D02*
G75*
G02*
X179700000Y-103900000I-300000J0D01*
G01*
X179700000Y-103900000D02*
G75*
G02*
X180300000Y-103900000I300000J0D01*
G01*
X116100000Y-87400000D02*
G75*
G02*
X115500000Y-87400000I-300000J0D01*
G01*
X115500000Y-87400000D02*
G75*
G02*
X116100000Y-87400000I300000J0D01*
G01*
X128000000Y-112100000D02*
G75*
G02*
X127400000Y-112100000I-300000J0D01*
G01*
X127400000Y-112100000D02*
G75*
G02*
X128000000Y-112100000I300000J0D01*
G01*
X129600000Y-87400000D02*
G75*
G02*
X129000000Y-87400000I-300000J0D01*
G01*
X129000000Y-87400000D02*
G75*
G02*
X129600000Y-87400000I300000J0D01*
G01*
X153300000Y-114000000D02*
G75*
G02*
X152700000Y-114000000I-300000J0D01*
G01*
X152700000Y-114000000D02*
G75*
G02*
X153300000Y-114000000I300000J0D01*
G01*
X156600000Y-87200000D02*
G75*
G02*
X156000000Y-87200000I-300000J0D01*
G01*
X156000000Y-87200000D02*
G75*
G02*
X156600000Y-87200000I300000J0D01*
G01*
X184700000Y-103700000D02*
G75*
G02*
X184100000Y-103700000I-300000J0D01*
G01*
X184100000Y-103700000D02*
G75*
G02*
X184700000Y-103700000I300000J0D01*
G01*
X143100000Y-87400000D02*
G75*
G02*
X142500000Y-87400000I-300000J0D01*
G01*
X142500000Y-87400000D02*
G75*
G02*
X143100000Y-87400000I300000J0D01*
G01*
D11*
X113866666Y-142129238D02*
X113676190Y-142034000D01*
X113676190Y-142034000D02*
X113580952Y-141843523D01*
X113580952Y-141843523D02*
X113580952Y-140129238D01*
X114628571Y-142129238D02*
X114628571Y-140795904D01*
X114628571Y-140129238D02*
X114533333Y-140224476D01*
X114533333Y-140224476D02*
X114628571Y-140319714D01*
X114628571Y-140319714D02*
X114723809Y-140224476D01*
X114723809Y-140224476D02*
X114628571Y-140129238D01*
X114628571Y-140129238D02*
X114628571Y-140319714D01*
X115580952Y-142129238D02*
X115580952Y-140795904D01*
X115580952Y-140986380D02*
X115676190Y-140891142D01*
X115676190Y-140891142D02*
X115866666Y-140795904D01*
X115866666Y-140795904D02*
X116152381Y-140795904D01*
X116152381Y-140795904D02*
X116342857Y-140891142D01*
X116342857Y-140891142D02*
X116438095Y-141081619D01*
X116438095Y-141081619D02*
X116438095Y-142129238D01*
X116438095Y-141081619D02*
X116533333Y-140891142D01*
X116533333Y-140891142D02*
X116723809Y-140795904D01*
X116723809Y-140795904D02*
X117009523Y-140795904D01*
X117009523Y-140795904D02*
X117200000Y-140891142D01*
X117200000Y-140891142D02*
X117295238Y-141081619D01*
X117295238Y-141081619D02*
X117295238Y-142129238D01*
X118247619Y-140795904D02*
X118247619Y-142795904D01*
X118247619Y-140891142D02*
X118438095Y-140795904D01*
X118438095Y-140795904D02*
X118819048Y-140795904D01*
X118819048Y-140795904D02*
X119009524Y-140891142D01*
X119009524Y-140891142D02*
X119104762Y-140986380D01*
X119104762Y-140986380D02*
X119200000Y-141176857D01*
X119200000Y-141176857D02*
X119200000Y-141748285D01*
X119200000Y-141748285D02*
X119104762Y-141938761D01*
X119104762Y-141938761D02*
X119009524Y-142034000D01*
X119009524Y-142034000D02*
X118819048Y-142129238D01*
X118819048Y-142129238D02*
X118438095Y-142129238D01*
X118438095Y-142129238D02*
X118247619Y-142034000D01*
X120057143Y-142129238D02*
X120057143Y-140129238D01*
X120247619Y-141367333D02*
X120819048Y-142129238D01*
X120819048Y-140795904D02*
X120057143Y-141557809D01*
X121676191Y-142129238D02*
X121676191Y-140795904D01*
X121676191Y-140129238D02*
X121580953Y-140224476D01*
X121580953Y-140224476D02*
X121676191Y-140319714D01*
X121676191Y-140319714D02*
X121771429Y-140224476D01*
X121771429Y-140224476D02*
X121676191Y-140129238D01*
X121676191Y-140129238D02*
X121676191Y-140319714D01*
X122628572Y-140795904D02*
X122628572Y-142129238D01*
X122628572Y-140986380D02*
X122723810Y-140891142D01*
X122723810Y-140891142D02*
X122914286Y-140795904D01*
X122914286Y-140795904D02*
X123200001Y-140795904D01*
X123200001Y-140795904D02*
X123390477Y-140891142D01*
X123390477Y-140891142D02*
X123485715Y-141081619D01*
X123485715Y-141081619D02*
X123485715Y-142129238D01*
X124438096Y-141938761D02*
X124533334Y-142034000D01*
X124533334Y-142034000D02*
X124438096Y-142129238D01*
X124438096Y-142129238D02*
X124342858Y-142034000D01*
X124342858Y-142034000D02*
X124438096Y-141938761D01*
X124438096Y-141938761D02*
X124438096Y-142129238D01*
X125104763Y-140795904D02*
X125866667Y-140795904D01*
X125390477Y-142129238D02*
X125390477Y-140414952D01*
X125390477Y-140414952D02*
X125485715Y-140224476D01*
X125485715Y-140224476D02*
X125676191Y-140129238D01*
X125676191Y-140129238D02*
X125866667Y-140129238D01*
X126533334Y-142129238D02*
X126533334Y-140795904D01*
X126533334Y-141176857D02*
X126628572Y-140986380D01*
X126628572Y-140986380D02*
X126723810Y-140891142D01*
X126723810Y-140891142D02*
X126914286Y-140795904D01*
X126914286Y-140795904D02*
X127104763Y-140795904D01*
X164895237Y-140129238D02*
X165085714Y-140129238D01*
X165085714Y-140129238D02*
X165276190Y-140224476D01*
X165276190Y-140224476D02*
X165371428Y-140319714D01*
X165371428Y-140319714D02*
X165466666Y-140510190D01*
X165466666Y-140510190D02*
X165561904Y-140891142D01*
X165561904Y-140891142D02*
X165561904Y-141367333D01*
X165561904Y-141367333D02*
X165466666Y-141748285D01*
X165466666Y-141748285D02*
X165371428Y-141938761D01*
X165371428Y-141938761D02*
X165276190Y-142034000D01*
X165276190Y-142034000D02*
X165085714Y-142129238D01*
X165085714Y-142129238D02*
X164895237Y-142129238D01*
X164895237Y-142129238D02*
X164704761Y-142034000D01*
X164704761Y-142034000D02*
X164609523Y-141938761D01*
X164609523Y-141938761D02*
X164514285Y-141748285D01*
X164514285Y-141748285D02*
X164419047Y-141367333D01*
X164419047Y-141367333D02*
X164419047Y-140891142D01*
X164419047Y-140891142D02*
X164514285Y-140510190D01*
X164514285Y-140510190D02*
X164609523Y-140319714D01*
X164609523Y-140319714D02*
X164704761Y-140224476D01*
X164704761Y-140224476D02*
X164895237Y-140129238D01*
X167276190Y-140795904D02*
X167276190Y-142129238D01*
X166799999Y-140034000D02*
X166323809Y-141462571D01*
X166323809Y-141462571D02*
X167561904Y-141462571D01*
X169752380Y-140034000D02*
X168038095Y-142605428D01*
X170323809Y-140319714D02*
X170419047Y-140224476D01*
X170419047Y-140224476D02*
X170609523Y-140129238D01*
X170609523Y-140129238D02*
X171085714Y-140129238D01*
X171085714Y-140129238D02*
X171276190Y-140224476D01*
X171276190Y-140224476D02*
X171371428Y-140319714D01*
X171371428Y-140319714D02*
X171466666Y-140510190D01*
X171466666Y-140510190D02*
X171466666Y-140700666D01*
X171466666Y-140700666D02*
X171371428Y-140986380D01*
X171371428Y-140986380D02*
X170228571Y-142129238D01*
X170228571Y-142129238D02*
X171466666Y-142129238D01*
X172704761Y-140129238D02*
X172895238Y-140129238D01*
X172895238Y-140129238D02*
X173085714Y-140224476D01*
X173085714Y-140224476D02*
X173180952Y-140319714D01*
X173180952Y-140319714D02*
X173276190Y-140510190D01*
X173276190Y-140510190D02*
X173371428Y-140891142D01*
X173371428Y-140891142D02*
X173371428Y-141367333D01*
X173371428Y-141367333D02*
X173276190Y-141748285D01*
X173276190Y-141748285D02*
X173180952Y-141938761D01*
X173180952Y-141938761D02*
X173085714Y-142034000D01*
X173085714Y-142034000D02*
X172895238Y-142129238D01*
X172895238Y-142129238D02*
X172704761Y-142129238D01*
X172704761Y-142129238D02*
X172514285Y-142034000D01*
X172514285Y-142034000D02*
X172419047Y-141938761D01*
X172419047Y-141938761D02*
X172323809Y-141748285D01*
X172323809Y-141748285D02*
X172228571Y-141367333D01*
X172228571Y-141367333D02*
X172228571Y-140891142D01*
X172228571Y-140891142D02*
X172323809Y-140510190D01*
X172323809Y-140510190D02*
X172419047Y-140319714D01*
X172419047Y-140319714D02*
X172514285Y-140224476D01*
X172514285Y-140224476D02*
X172704761Y-140129238D01*
X174133333Y-140319714D02*
X174228571Y-140224476D01*
X174228571Y-140224476D02*
X174419047Y-140129238D01*
X174419047Y-140129238D02*
X174895238Y-140129238D01*
X174895238Y-140129238D02*
X175085714Y-140224476D01*
X175085714Y-140224476D02*
X175180952Y-140319714D01*
X175180952Y-140319714D02*
X175276190Y-140510190D01*
X175276190Y-140510190D02*
X175276190Y-140700666D01*
X175276190Y-140700666D02*
X175180952Y-140986380D01*
X175180952Y-140986380D02*
X174038095Y-142129238D01*
X174038095Y-142129238D02*
X175276190Y-142129238D01*
X176990476Y-140795904D02*
X176990476Y-142129238D01*
X176514285Y-140034000D02*
X176038095Y-141462571D01*
X176038095Y-141462571D02*
X177276190Y-141462571D01*
X161485713Y-114309350D02*
X162819046Y-116309350D01*
X162819046Y-114309350D02*
X161485713Y-116309350D01*
X163295237Y-114309350D02*
X164438094Y-114309350D01*
X163866665Y-116309350D02*
X163866665Y-114309350D01*
X165961904Y-114309350D02*
X165580951Y-114309350D01*
X165580951Y-114309350D02*
X165390475Y-114404588D01*
X165390475Y-114404588D02*
X165295237Y-114499826D01*
X165295237Y-114499826D02*
X165104761Y-114785540D01*
X165104761Y-114785540D02*
X165009523Y-115166492D01*
X165009523Y-115166492D02*
X165009523Y-115928397D01*
X165009523Y-115928397D02*
X165104761Y-116118873D01*
X165104761Y-116118873D02*
X165199999Y-116214112D01*
X165199999Y-116214112D02*
X165390475Y-116309350D01*
X165390475Y-116309350D02*
X165771428Y-116309350D01*
X165771428Y-116309350D02*
X165961904Y-116214112D01*
X165961904Y-116214112D02*
X166057142Y-116118873D01*
X166057142Y-116118873D02*
X166152380Y-115928397D01*
X166152380Y-115928397D02*
X166152380Y-115452207D01*
X166152380Y-115452207D02*
X166057142Y-115261731D01*
X166057142Y-115261731D02*
X165961904Y-115166492D01*
X165961904Y-115166492D02*
X165771428Y-115071254D01*
X165771428Y-115071254D02*
X165390475Y-115071254D01*
X165390475Y-115071254D02*
X165199999Y-115166492D01*
X165199999Y-115166492D02*
X165104761Y-115261731D01*
X165104761Y-115261731D02*
X165009523Y-115452207D01*
X167390475Y-114309350D02*
X167580952Y-114309350D01*
X167580952Y-114309350D02*
X167771428Y-114404588D01*
X167771428Y-114404588D02*
X167866666Y-114499826D01*
X167866666Y-114499826D02*
X167961904Y-114690302D01*
X167961904Y-114690302D02*
X168057142Y-115071254D01*
X168057142Y-115071254D02*
X168057142Y-115547445D01*
X168057142Y-115547445D02*
X167961904Y-115928397D01*
X167961904Y-115928397D02*
X167866666Y-116118873D01*
X167866666Y-116118873D02*
X167771428Y-116214112D01*
X167771428Y-116214112D02*
X167580952Y-116309350D01*
X167580952Y-116309350D02*
X167390475Y-116309350D01*
X167390475Y-116309350D02*
X167199999Y-116214112D01*
X167199999Y-116214112D02*
X167104761Y-116118873D01*
X167104761Y-116118873D02*
X167009523Y-115928397D01*
X167009523Y-115928397D02*
X166914285Y-115547445D01*
X166914285Y-115547445D02*
X166914285Y-115071254D01*
X166914285Y-115071254D02*
X167009523Y-114690302D01*
X167009523Y-114690302D02*
X167104761Y-114499826D01*
X167104761Y-114499826D02*
X167199999Y-114404588D01*
X167199999Y-114404588D02*
X167390475Y-114309350D01*
X170438095Y-116309350D02*
X170438095Y-114309350D01*
X170438095Y-114309350D02*
X171200000Y-114309350D01*
X171200000Y-114309350D02*
X171390476Y-114404588D01*
X171390476Y-114404588D02*
X171485714Y-114499826D01*
X171485714Y-114499826D02*
X171580952Y-114690302D01*
X171580952Y-114690302D02*
X171580952Y-114976016D01*
X171580952Y-114976016D02*
X171485714Y-115166492D01*
X171485714Y-115166492D02*
X171390476Y-115261731D01*
X171390476Y-115261731D02*
X171200000Y-115356969D01*
X171200000Y-115356969D02*
X170438095Y-115356969D01*
X173295238Y-116309350D02*
X173295238Y-115261731D01*
X173295238Y-115261731D02*
X173200000Y-115071254D01*
X173200000Y-115071254D02*
X173009524Y-114976016D01*
X173009524Y-114976016D02*
X172628571Y-114976016D01*
X172628571Y-114976016D02*
X172438095Y-115071254D01*
X173295238Y-116214112D02*
X173104762Y-116309350D01*
X173104762Y-116309350D02*
X172628571Y-116309350D01*
X172628571Y-116309350D02*
X172438095Y-116214112D01*
X172438095Y-116214112D02*
X172342857Y-116023635D01*
X172342857Y-116023635D02*
X172342857Y-115833159D01*
X172342857Y-115833159D02*
X172438095Y-115642683D01*
X172438095Y-115642683D02*
X172628571Y-115547445D01*
X172628571Y-115547445D02*
X173104762Y-115547445D01*
X173104762Y-115547445D02*
X173295238Y-115452207D01*
X174247619Y-116309350D02*
X174247619Y-114976016D01*
X174247619Y-115356969D02*
X174342857Y-115166492D01*
X174342857Y-115166492D02*
X174438095Y-115071254D01*
X174438095Y-115071254D02*
X174628571Y-114976016D01*
X174628571Y-114976016D02*
X174819048Y-114976016D01*
X176342857Y-116309350D02*
X176342857Y-115261731D01*
X176342857Y-115261731D02*
X176247619Y-115071254D01*
X176247619Y-115071254D02*
X176057143Y-114976016D01*
X176057143Y-114976016D02*
X175676190Y-114976016D01*
X175676190Y-114976016D02*
X175485714Y-115071254D01*
X176342857Y-116214112D02*
X176152381Y-116309350D01*
X176152381Y-116309350D02*
X175676190Y-116309350D01*
X175676190Y-116309350D02*
X175485714Y-116214112D01*
X175485714Y-116214112D02*
X175390476Y-116023635D01*
X175390476Y-116023635D02*
X175390476Y-115833159D01*
X175390476Y-115833159D02*
X175485714Y-115642683D01*
X175485714Y-115642683D02*
X175676190Y-115547445D01*
X175676190Y-115547445D02*
X176152381Y-115547445D01*
X176152381Y-115547445D02*
X176342857Y-115452207D01*
X177580952Y-116309350D02*
X177390476Y-116214112D01*
X177390476Y-116214112D02*
X177295238Y-116023635D01*
X177295238Y-116023635D02*
X177295238Y-114309350D01*
X178628571Y-116309350D02*
X178438095Y-116214112D01*
X178438095Y-116214112D02*
X178342857Y-116023635D01*
X178342857Y-116023635D02*
X178342857Y-114309350D01*
X180152381Y-116214112D02*
X179961905Y-116309350D01*
X179961905Y-116309350D02*
X179580952Y-116309350D01*
X179580952Y-116309350D02*
X179390476Y-116214112D01*
X179390476Y-116214112D02*
X179295238Y-116023635D01*
X179295238Y-116023635D02*
X179295238Y-115261731D01*
X179295238Y-115261731D02*
X179390476Y-115071254D01*
X179390476Y-115071254D02*
X179580952Y-114976016D01*
X179580952Y-114976016D02*
X179961905Y-114976016D01*
X179961905Y-114976016D02*
X180152381Y-115071254D01*
X180152381Y-115071254D02*
X180247619Y-115261731D01*
X180247619Y-115261731D02*
X180247619Y-115452207D01*
X180247619Y-115452207D02*
X179295238Y-115642683D01*
X181390476Y-116309350D02*
X181200000Y-116214112D01*
X181200000Y-116214112D02*
X181104762Y-116023635D01*
X181104762Y-116023635D02*
X181104762Y-114309350D01*
X182152381Y-116309350D02*
X182152381Y-114976016D01*
X182152381Y-114309350D02*
X182057143Y-114404588D01*
X182057143Y-114404588D02*
X182152381Y-114499826D01*
X182152381Y-114499826D02*
X182247619Y-114404588D01*
X182247619Y-114404588D02*
X182152381Y-114309350D01*
X182152381Y-114309350D02*
X182152381Y-114499826D01*
X182914286Y-114976016D02*
X183961905Y-114976016D01*
X183961905Y-114976016D02*
X182914286Y-116309350D01*
X182914286Y-116309350D02*
X183961905Y-116309350D01*
X185485715Y-116214112D02*
X185295239Y-116309350D01*
X185295239Y-116309350D02*
X184914286Y-116309350D01*
X184914286Y-116309350D02*
X184723810Y-116214112D01*
X184723810Y-116214112D02*
X184628572Y-116023635D01*
X184628572Y-116023635D02*
X184628572Y-115261731D01*
X184628572Y-115261731D02*
X184723810Y-115071254D01*
X184723810Y-115071254D02*
X184914286Y-114976016D01*
X184914286Y-114976016D02*
X185295239Y-114976016D01*
X185295239Y-114976016D02*
X185485715Y-115071254D01*
X185485715Y-115071254D02*
X185580953Y-115261731D01*
X185580953Y-115261731D02*
X185580953Y-115452207D01*
X185580953Y-115452207D02*
X184628572Y-115642683D01*
X186438096Y-116309350D02*
X186438096Y-114976016D01*
X186438096Y-115356969D02*
X186533334Y-115166492D01*
X186533334Y-115166492D02*
X186628572Y-115071254D01*
X186628572Y-115071254D02*
X186819048Y-114976016D01*
X186819048Y-114976016D02*
X187009525Y-114976016D01*
X159533332Y-119434000D02*
X159819046Y-119529238D01*
X159819046Y-119529238D02*
X160295237Y-119529238D01*
X160295237Y-119529238D02*
X160485713Y-119434000D01*
X160485713Y-119434000D02*
X160580951Y-119338761D01*
X160580951Y-119338761D02*
X160676189Y-119148285D01*
X160676189Y-119148285D02*
X160676189Y-118957809D01*
X160676189Y-118957809D02*
X160580951Y-118767333D01*
X160580951Y-118767333D02*
X160485713Y-118672095D01*
X160485713Y-118672095D02*
X160295237Y-118576857D01*
X160295237Y-118576857D02*
X159914284Y-118481619D01*
X159914284Y-118481619D02*
X159723808Y-118386380D01*
X159723808Y-118386380D02*
X159628570Y-118291142D01*
X159628570Y-118291142D02*
X159533332Y-118100666D01*
X159533332Y-118100666D02*
X159533332Y-117910190D01*
X159533332Y-117910190D02*
X159628570Y-117719714D01*
X159628570Y-117719714D02*
X159723808Y-117624476D01*
X159723808Y-117624476D02*
X159914284Y-117529238D01*
X159914284Y-117529238D02*
X160390475Y-117529238D01*
X160390475Y-117529238D02*
X160676189Y-117624476D01*
X161247618Y-118195904D02*
X162009522Y-118195904D01*
X161533332Y-117529238D02*
X161533332Y-119243523D01*
X161533332Y-119243523D02*
X161628570Y-119434000D01*
X161628570Y-119434000D02*
X161819046Y-119529238D01*
X161819046Y-119529238D02*
X162009522Y-119529238D01*
X163438094Y-119434000D02*
X163247618Y-119529238D01*
X163247618Y-119529238D02*
X162866665Y-119529238D01*
X162866665Y-119529238D02*
X162676189Y-119434000D01*
X162676189Y-119434000D02*
X162580951Y-119243523D01*
X162580951Y-119243523D02*
X162580951Y-118481619D01*
X162580951Y-118481619D02*
X162676189Y-118291142D01*
X162676189Y-118291142D02*
X162866665Y-118195904D01*
X162866665Y-118195904D02*
X163247618Y-118195904D01*
X163247618Y-118195904D02*
X163438094Y-118291142D01*
X163438094Y-118291142D02*
X163533332Y-118481619D01*
X163533332Y-118481619D02*
X163533332Y-118672095D01*
X163533332Y-118672095D02*
X162580951Y-118862571D01*
X164390475Y-118195904D02*
X164390475Y-120195904D01*
X164390475Y-118291142D02*
X164580951Y-118195904D01*
X164580951Y-118195904D02*
X164961904Y-118195904D01*
X164961904Y-118195904D02*
X165152380Y-118291142D01*
X165152380Y-118291142D02*
X165247618Y-118386380D01*
X165247618Y-118386380D02*
X165342856Y-118576857D01*
X165342856Y-118576857D02*
X165342856Y-119148285D01*
X165342856Y-119148285D02*
X165247618Y-119338761D01*
X165247618Y-119338761D02*
X165152380Y-119434000D01*
X165152380Y-119434000D02*
X164961904Y-119529238D01*
X164961904Y-119529238D02*
X164580951Y-119529238D01*
X164580951Y-119529238D02*
X164390475Y-119434000D01*
X166199999Y-119529238D02*
X166199999Y-117529238D01*
X167057142Y-119529238D02*
X167057142Y-118481619D01*
X167057142Y-118481619D02*
X166961904Y-118291142D01*
X166961904Y-118291142D02*
X166771428Y-118195904D01*
X166771428Y-118195904D02*
X166485713Y-118195904D01*
X166485713Y-118195904D02*
X166295237Y-118291142D01*
X166295237Y-118291142D02*
X166199999Y-118386380D01*
X168866666Y-119529238D02*
X168866666Y-118481619D01*
X168866666Y-118481619D02*
X168771428Y-118291142D01*
X168771428Y-118291142D02*
X168580952Y-118195904D01*
X168580952Y-118195904D02*
X168199999Y-118195904D01*
X168199999Y-118195904D02*
X168009523Y-118291142D01*
X168866666Y-119434000D02*
X168676190Y-119529238D01*
X168676190Y-119529238D02*
X168199999Y-119529238D01*
X168199999Y-119529238D02*
X168009523Y-119434000D01*
X168009523Y-119434000D02*
X167914285Y-119243523D01*
X167914285Y-119243523D02*
X167914285Y-119053047D01*
X167914285Y-119053047D02*
X168009523Y-118862571D01*
X168009523Y-118862571D02*
X168199999Y-118767333D01*
X168199999Y-118767333D02*
X168676190Y-118767333D01*
X168676190Y-118767333D02*
X168866666Y-118672095D01*
X169819047Y-118195904D02*
X169819047Y-119529238D01*
X169819047Y-118386380D02*
X169914285Y-118291142D01*
X169914285Y-118291142D02*
X170104761Y-118195904D01*
X170104761Y-118195904D02*
X170390476Y-118195904D01*
X170390476Y-118195904D02*
X170580952Y-118291142D01*
X170580952Y-118291142D02*
X170676190Y-118481619D01*
X170676190Y-118481619D02*
X170676190Y-119529238D01*
X173152381Y-118481619D02*
X173819048Y-118481619D01*
X174104762Y-119529238D02*
X173152381Y-119529238D01*
X173152381Y-119529238D02*
X173152381Y-117529238D01*
X173152381Y-117529238D02*
X174104762Y-117529238D01*
X175247619Y-119529238D02*
X175057143Y-119434000D01*
X175057143Y-119434000D02*
X174961905Y-119243523D01*
X174961905Y-119243523D02*
X174961905Y-117529238D01*
X176771429Y-119434000D02*
X176580953Y-119529238D01*
X176580953Y-119529238D02*
X176200000Y-119529238D01*
X176200000Y-119529238D02*
X176009524Y-119434000D01*
X176009524Y-119434000D02*
X175914286Y-119243523D01*
X175914286Y-119243523D02*
X175914286Y-118481619D01*
X175914286Y-118481619D02*
X176009524Y-118291142D01*
X176009524Y-118291142D02*
X176200000Y-118195904D01*
X176200000Y-118195904D02*
X176580953Y-118195904D01*
X176580953Y-118195904D02*
X176771429Y-118291142D01*
X176771429Y-118291142D02*
X176866667Y-118481619D01*
X176866667Y-118481619D02*
X176866667Y-118672095D01*
X176866667Y-118672095D02*
X175914286Y-118862571D01*
X178580953Y-119434000D02*
X178390477Y-119529238D01*
X178390477Y-119529238D02*
X178009524Y-119529238D01*
X178009524Y-119529238D02*
X177819048Y-119434000D01*
X177819048Y-119434000D02*
X177723810Y-119338761D01*
X177723810Y-119338761D02*
X177628572Y-119148285D01*
X177628572Y-119148285D02*
X177628572Y-118576857D01*
X177628572Y-118576857D02*
X177723810Y-118386380D01*
X177723810Y-118386380D02*
X177819048Y-118291142D01*
X177819048Y-118291142D02*
X178009524Y-118195904D01*
X178009524Y-118195904D02*
X178390477Y-118195904D01*
X178390477Y-118195904D02*
X178580953Y-118291142D01*
X179152382Y-118195904D02*
X179914286Y-118195904D01*
X179438096Y-117529238D02*
X179438096Y-119243523D01*
X179438096Y-119243523D02*
X179533334Y-119434000D01*
X179533334Y-119434000D02*
X179723810Y-119529238D01*
X179723810Y-119529238D02*
X179914286Y-119529238D01*
X180580953Y-119529238D02*
X180580953Y-118195904D01*
X180580953Y-118576857D02*
X180676191Y-118386380D01*
X180676191Y-118386380D02*
X180771429Y-118291142D01*
X180771429Y-118291142D02*
X180961905Y-118195904D01*
X180961905Y-118195904D02*
X181152382Y-118195904D01*
X182104762Y-119529238D02*
X181914286Y-119434000D01*
X181914286Y-119434000D02*
X181819048Y-119338761D01*
X181819048Y-119338761D02*
X181723810Y-119148285D01*
X181723810Y-119148285D02*
X181723810Y-118576857D01*
X181723810Y-118576857D02*
X181819048Y-118386380D01*
X181819048Y-118386380D02*
X181914286Y-118291142D01*
X181914286Y-118291142D02*
X182104762Y-118195904D01*
X182104762Y-118195904D02*
X182390477Y-118195904D01*
X182390477Y-118195904D02*
X182580953Y-118291142D01*
X182580953Y-118291142D02*
X182676191Y-118386380D01*
X182676191Y-118386380D02*
X182771429Y-118576857D01*
X182771429Y-118576857D02*
X182771429Y-119148285D01*
X182771429Y-119148285D02*
X182676191Y-119338761D01*
X182676191Y-119338761D02*
X182580953Y-119434000D01*
X182580953Y-119434000D02*
X182390477Y-119529238D01*
X182390477Y-119529238D02*
X182104762Y-119529238D01*
X183628572Y-118195904D02*
X183628572Y-119529238D01*
X183628572Y-118386380D02*
X183723810Y-118291142D01*
X183723810Y-118291142D02*
X183914286Y-118195904D01*
X183914286Y-118195904D02*
X184200001Y-118195904D01*
X184200001Y-118195904D02*
X184390477Y-118291142D01*
X184390477Y-118291142D02*
X184485715Y-118481619D01*
X184485715Y-118481619D02*
X184485715Y-119529238D01*
X185438096Y-119529238D02*
X185438096Y-118195904D01*
X185438096Y-117529238D02*
X185342858Y-117624476D01*
X185342858Y-117624476D02*
X185438096Y-117719714D01*
X185438096Y-117719714D02*
X185533334Y-117624476D01*
X185533334Y-117624476D02*
X185438096Y-117529238D01*
X185438096Y-117529238D02*
X185438096Y-117719714D01*
X187247620Y-119434000D02*
X187057144Y-119529238D01*
X187057144Y-119529238D02*
X186676191Y-119529238D01*
X186676191Y-119529238D02*
X186485715Y-119434000D01*
X186485715Y-119434000D02*
X186390477Y-119338761D01*
X186390477Y-119338761D02*
X186295239Y-119148285D01*
X186295239Y-119148285D02*
X186295239Y-118576857D01*
X186295239Y-118576857D02*
X186390477Y-118386380D01*
X186390477Y-118386380D02*
X186485715Y-118291142D01*
X186485715Y-118291142D02*
X186676191Y-118195904D01*
X186676191Y-118195904D02*
X187057144Y-118195904D01*
X187057144Y-118195904D02*
X187247620Y-118291142D01*
X188009525Y-119434000D02*
X188200001Y-119529238D01*
X188200001Y-119529238D02*
X188580953Y-119529238D01*
X188580953Y-119529238D02*
X188771430Y-119434000D01*
X188771430Y-119434000D02*
X188866668Y-119243523D01*
X188866668Y-119243523D02*
X188866668Y-119148285D01*
X188866668Y-119148285D02*
X188771430Y-118957809D01*
X188771430Y-118957809D02*
X188580953Y-118862571D01*
X188580953Y-118862571D02*
X188295239Y-118862571D01*
X188295239Y-118862571D02*
X188104763Y-118767333D01*
X188104763Y-118767333D02*
X188009525Y-118576857D01*
X188009525Y-118576857D02*
X188009525Y-118481619D01*
X188009525Y-118481619D02*
X188104763Y-118291142D01*
X188104763Y-118291142D02*
X188295239Y-118195904D01*
X188295239Y-118195904D02*
X188580953Y-118195904D01*
X188580953Y-118195904D02*
X188771430Y-118291142D01*
D12*
X143761905Y-128949619D02*
X143761905Y-129759142D01*
X143761905Y-129759142D02*
X143809524Y-129854380D01*
X143809524Y-129854380D02*
X143857143Y-129902000D01*
X143857143Y-129902000D02*
X143952381Y-129949619D01*
X143952381Y-129949619D02*
X144142857Y-129949619D01*
X144142857Y-129949619D02*
X144238095Y-129902000D01*
X144238095Y-129902000D02*
X144285714Y-129854380D01*
X144285714Y-129854380D02*
X144333333Y-129759142D01*
X144333333Y-129759142D02*
X144333333Y-128949619D01*
X145333333Y-129949619D02*
X144761905Y-129949619D01*
X145047619Y-129949619D02*
X145047619Y-128949619D01*
X145047619Y-128949619D02*
X144952381Y-129092476D01*
X144952381Y-129092476D02*
X144857143Y-129187714D01*
X144857143Y-129187714D02*
X144761905Y-129235333D01*
X146285714Y-129949619D02*
X145714286Y-129949619D01*
X146000000Y-129949619D02*
X146000000Y-128949619D01*
X146000000Y-128949619D02*
X145904762Y-129092476D01*
X145904762Y-129092476D02*
X145809524Y-129187714D01*
X145809524Y-129187714D02*
X145714286Y-129235333D01*
X119425809Y-60785714D02*
X119473428Y-60642857D01*
X119473428Y-60642857D02*
X119521047Y-60595238D01*
X119521047Y-60595238D02*
X119616285Y-60547619D01*
X119616285Y-60547619D02*
X119759142Y-60547619D01*
X119759142Y-60547619D02*
X119854380Y-60595238D01*
X119854380Y-60595238D02*
X119902000Y-60642857D01*
X119902000Y-60642857D02*
X119949619Y-60738095D01*
X119949619Y-60738095D02*
X119949619Y-61119047D01*
X119949619Y-61119047D02*
X118949619Y-61119047D01*
X118949619Y-61119047D02*
X118949619Y-60785714D01*
X118949619Y-60785714D02*
X118997238Y-60690476D01*
X118997238Y-60690476D02*
X119044857Y-60642857D01*
X119044857Y-60642857D02*
X119140095Y-60595238D01*
X119140095Y-60595238D02*
X119235333Y-60595238D01*
X119235333Y-60595238D02*
X119330571Y-60642857D01*
X119330571Y-60642857D02*
X119378190Y-60690476D01*
X119378190Y-60690476D02*
X119425809Y-60785714D01*
X119425809Y-60785714D02*
X119425809Y-61119047D01*
X118949619Y-60261904D02*
X118949619Y-59690476D01*
X119949619Y-59976190D02*
X118949619Y-59976190D01*
X119949619Y-58833333D02*
X119949619Y-59404761D01*
X119949619Y-59119047D02*
X118949619Y-59119047D01*
X118949619Y-59119047D02*
X119092476Y-59214285D01*
X119092476Y-59214285D02*
X119187714Y-59309523D01*
X119187714Y-59309523D02*
X119235333Y-59404761D01*
X105666666Y-78149619D02*
X105666666Y-78863904D01*
X105666666Y-78863904D02*
X105619047Y-79006761D01*
X105619047Y-79006761D02*
X105523809Y-79102000D01*
X105523809Y-79102000D02*
X105380952Y-79149619D01*
X105380952Y-79149619D02*
X105285714Y-79149619D01*
X106095238Y-78244857D02*
X106142857Y-78197238D01*
X106142857Y-78197238D02*
X106238095Y-78149619D01*
X106238095Y-78149619D02*
X106476190Y-78149619D01*
X106476190Y-78149619D02*
X106571428Y-78197238D01*
X106571428Y-78197238D02*
X106619047Y-78244857D01*
X106619047Y-78244857D02*
X106666666Y-78340095D01*
X106666666Y-78340095D02*
X106666666Y-78435333D01*
X106666666Y-78435333D02*
X106619047Y-78578190D01*
X106619047Y-78578190D02*
X106047619Y-79149619D01*
X106047619Y-79149619D02*
X106666666Y-79149619D01*
X186149619Y-97361904D02*
X186959142Y-97361904D01*
X186959142Y-97361904D02*
X187054380Y-97314285D01*
X187054380Y-97314285D02*
X187102000Y-97266666D01*
X187102000Y-97266666D02*
X187149619Y-97171428D01*
X187149619Y-97171428D02*
X187149619Y-96980952D01*
X187149619Y-96980952D02*
X187102000Y-96885714D01*
X187102000Y-96885714D02*
X187054380Y-96838095D01*
X187054380Y-96838095D02*
X186959142Y-96790476D01*
X186959142Y-96790476D02*
X186149619Y-96790476D01*
X186149619Y-95885714D02*
X186149619Y-96076190D01*
X186149619Y-96076190D02*
X186197238Y-96171428D01*
X186197238Y-96171428D02*
X186244857Y-96219047D01*
X186244857Y-96219047D02*
X186387714Y-96314285D01*
X186387714Y-96314285D02*
X186578190Y-96361904D01*
X186578190Y-96361904D02*
X186959142Y-96361904D01*
X186959142Y-96361904D02*
X187054380Y-96314285D01*
X187054380Y-96314285D02*
X187102000Y-96266666D01*
X187102000Y-96266666D02*
X187149619Y-96171428D01*
X187149619Y-96171428D02*
X187149619Y-95980952D01*
X187149619Y-95980952D02*
X187102000Y-95885714D01*
X187102000Y-95885714D02*
X187054380Y-95838095D01*
X187054380Y-95838095D02*
X186959142Y-95790476D01*
X186959142Y-95790476D02*
X186721047Y-95790476D01*
X186721047Y-95790476D02*
X186625809Y-95838095D01*
X186625809Y-95838095D02*
X186578190Y-95885714D01*
X186578190Y-95885714D02*
X186530571Y-95980952D01*
X186530571Y-95980952D02*
X186530571Y-96171428D01*
X186530571Y-96171428D02*
X186578190Y-96266666D01*
X186578190Y-96266666D02*
X186625809Y-96314285D01*
X186625809Y-96314285D02*
X186721047Y-96361904D01*
X129254380Y-106042857D02*
X129302000Y-106090476D01*
X129302000Y-106090476D02*
X129349619Y-106233333D01*
X129349619Y-106233333D02*
X129349619Y-106328571D01*
X129349619Y-106328571D02*
X129302000Y-106471428D01*
X129302000Y-106471428D02*
X129206761Y-106566666D01*
X129206761Y-106566666D02*
X129111523Y-106614285D01*
X129111523Y-106614285D02*
X128921047Y-106661904D01*
X128921047Y-106661904D02*
X128778190Y-106661904D01*
X128778190Y-106661904D02*
X128587714Y-106614285D01*
X128587714Y-106614285D02*
X128492476Y-106566666D01*
X128492476Y-106566666D02*
X128397238Y-106471428D01*
X128397238Y-106471428D02*
X128349619Y-106328571D01*
X128349619Y-106328571D02*
X128349619Y-106233333D01*
X128349619Y-106233333D02*
X128397238Y-106090476D01*
X128397238Y-106090476D02*
X128444857Y-106042857D01*
X129349619Y-105090476D02*
X129349619Y-105661904D01*
X129349619Y-105376190D02*
X128349619Y-105376190D01*
X128349619Y-105376190D02*
X128492476Y-105471428D01*
X128492476Y-105471428D02*
X128587714Y-105566666D01*
X128587714Y-105566666D02*
X128635333Y-105661904D01*
X128444857Y-104709523D02*
X128397238Y-104661904D01*
X128397238Y-104661904D02*
X128349619Y-104566666D01*
X128349619Y-104566666D02*
X128349619Y-104328571D01*
X128349619Y-104328571D02*
X128397238Y-104233333D01*
X128397238Y-104233333D02*
X128444857Y-104185714D01*
X128444857Y-104185714D02*
X128540095Y-104138095D01*
X128540095Y-104138095D02*
X128635333Y-104138095D01*
X128635333Y-104138095D02*
X128778190Y-104185714D01*
X128778190Y-104185714D02*
X129349619Y-104757142D01*
X129349619Y-104757142D02*
X129349619Y-104138095D01*
X148357142Y-96954380D02*
X148309523Y-97002000D01*
X148309523Y-97002000D02*
X148166666Y-97049619D01*
X148166666Y-97049619D02*
X148071428Y-97049619D01*
X148071428Y-97049619D02*
X147928571Y-97002000D01*
X147928571Y-97002000D02*
X147833333Y-96906761D01*
X147833333Y-96906761D02*
X147785714Y-96811523D01*
X147785714Y-96811523D02*
X147738095Y-96621047D01*
X147738095Y-96621047D02*
X147738095Y-96478190D01*
X147738095Y-96478190D02*
X147785714Y-96287714D01*
X147785714Y-96287714D02*
X147833333Y-96192476D01*
X147833333Y-96192476D02*
X147928571Y-96097238D01*
X147928571Y-96097238D02*
X148071428Y-96049619D01*
X148071428Y-96049619D02*
X148166666Y-96049619D01*
X148166666Y-96049619D02*
X148309523Y-96097238D01*
X148309523Y-96097238D02*
X148357142Y-96144857D01*
X149309523Y-97049619D02*
X148738095Y-97049619D01*
X149023809Y-97049619D02*
X149023809Y-96049619D01*
X149023809Y-96049619D02*
X148928571Y-96192476D01*
X148928571Y-96192476D02*
X148833333Y-96287714D01*
X148833333Y-96287714D02*
X148738095Y-96335333D01*
X149928571Y-96049619D02*
X150023809Y-96049619D01*
X150023809Y-96049619D02*
X150119047Y-96097238D01*
X150119047Y-96097238D02*
X150166666Y-96144857D01*
X150166666Y-96144857D02*
X150214285Y-96240095D01*
X150214285Y-96240095D02*
X150261904Y-96430571D01*
X150261904Y-96430571D02*
X150261904Y-96668666D01*
X150261904Y-96668666D02*
X150214285Y-96859142D01*
X150214285Y-96859142D02*
X150166666Y-96954380D01*
X150166666Y-96954380D02*
X150119047Y-97002000D01*
X150119047Y-97002000D02*
X150023809Y-97049619D01*
X150023809Y-97049619D02*
X149928571Y-97049619D01*
X149928571Y-97049619D02*
X149833333Y-97002000D01*
X149833333Y-97002000D02*
X149785714Y-96954380D01*
X149785714Y-96954380D02*
X149738095Y-96859142D01*
X149738095Y-96859142D02*
X149690476Y-96668666D01*
X149690476Y-96668666D02*
X149690476Y-96430571D01*
X149690476Y-96430571D02*
X149738095Y-96240095D01*
X149738095Y-96240095D02*
X149785714Y-96144857D01*
X149785714Y-96144857D02*
X149833333Y-96097238D01*
X149833333Y-96097238D02*
X149928571Y-96049619D01*
D10*
X172581009Y-83233333D02*
X172581009Y-83566666D01*
X173104819Y-83566666D02*
X172104819Y-83566666D01*
X172104819Y-83566666D02*
X172104819Y-83090476D01*
X172104819Y-82233333D02*
X172104819Y-82709523D01*
X172104819Y-82709523D02*
X172581009Y-82757142D01*
X172581009Y-82757142D02*
X172533390Y-82709523D01*
X172533390Y-82709523D02*
X172485771Y-82614285D01*
X172485771Y-82614285D02*
X172485771Y-82376190D01*
X172485771Y-82376190D02*
X172533390Y-82280952D01*
X172533390Y-82280952D02*
X172581009Y-82233333D01*
X172581009Y-82233333D02*
X172676247Y-82185714D01*
X172676247Y-82185714D02*
X172914342Y-82185714D01*
X172914342Y-82185714D02*
X173009580Y-82233333D01*
X173009580Y-82233333D02*
X173057200Y-82280952D01*
X173057200Y-82280952D02*
X173104819Y-82376190D01*
X173104819Y-82376190D02*
X173104819Y-82614285D01*
X173104819Y-82614285D02*
X173057200Y-82709523D01*
X173057200Y-82709523D02*
X173009580Y-82757142D01*
D12*
X160625809Y-82233333D02*
X160625809Y-82566666D01*
X161149619Y-82566666D02*
X160149619Y-82566666D01*
X160149619Y-82566666D02*
X160149619Y-82090476D01*
X160482952Y-81280952D02*
X161149619Y-81280952D01*
X160102000Y-81519047D02*
X160816285Y-81757142D01*
X160816285Y-81757142D02*
X160816285Y-81138095D01*
X167133333Y-97254380D02*
X167085714Y-97302000D01*
X167085714Y-97302000D02*
X166942857Y-97349619D01*
X166942857Y-97349619D02*
X166847619Y-97349619D01*
X166847619Y-97349619D02*
X166704762Y-97302000D01*
X166704762Y-97302000D02*
X166609524Y-97206761D01*
X166609524Y-97206761D02*
X166561905Y-97111523D01*
X166561905Y-97111523D02*
X166514286Y-96921047D01*
X166514286Y-96921047D02*
X166514286Y-96778190D01*
X166514286Y-96778190D02*
X166561905Y-96587714D01*
X166561905Y-96587714D02*
X166609524Y-96492476D01*
X166609524Y-96492476D02*
X166704762Y-96397238D01*
X166704762Y-96397238D02*
X166847619Y-96349619D01*
X166847619Y-96349619D02*
X166942857Y-96349619D01*
X166942857Y-96349619D02*
X167085714Y-96397238D01*
X167085714Y-96397238D02*
X167133333Y-96444857D01*
X168038095Y-96349619D02*
X167561905Y-96349619D01*
X167561905Y-96349619D02*
X167514286Y-96825809D01*
X167514286Y-96825809D02*
X167561905Y-96778190D01*
X167561905Y-96778190D02*
X167657143Y-96730571D01*
X167657143Y-96730571D02*
X167895238Y-96730571D01*
X167895238Y-96730571D02*
X167990476Y-96778190D01*
X167990476Y-96778190D02*
X168038095Y-96825809D01*
X168038095Y-96825809D02*
X168085714Y-96921047D01*
X168085714Y-96921047D02*
X168085714Y-97159142D01*
X168085714Y-97159142D02*
X168038095Y-97254380D01*
X168038095Y-97254380D02*
X167990476Y-97302000D01*
X167990476Y-97302000D02*
X167895238Y-97349619D01*
X167895238Y-97349619D02*
X167657143Y-97349619D01*
X167657143Y-97349619D02*
X167561905Y-97302000D01*
X167561905Y-97302000D02*
X167514286Y-97254380D01*
X132925809Y-60785714D02*
X132973428Y-60642857D01*
X132973428Y-60642857D02*
X133021047Y-60595238D01*
X133021047Y-60595238D02*
X133116285Y-60547619D01*
X133116285Y-60547619D02*
X133259142Y-60547619D01*
X133259142Y-60547619D02*
X133354380Y-60595238D01*
X133354380Y-60595238D02*
X133402000Y-60642857D01*
X133402000Y-60642857D02*
X133449619Y-60738095D01*
X133449619Y-60738095D02*
X133449619Y-61119047D01*
X133449619Y-61119047D02*
X132449619Y-61119047D01*
X132449619Y-61119047D02*
X132449619Y-60785714D01*
X132449619Y-60785714D02*
X132497238Y-60690476D01*
X132497238Y-60690476D02*
X132544857Y-60642857D01*
X132544857Y-60642857D02*
X132640095Y-60595238D01*
X132640095Y-60595238D02*
X132735333Y-60595238D01*
X132735333Y-60595238D02*
X132830571Y-60642857D01*
X132830571Y-60642857D02*
X132878190Y-60690476D01*
X132878190Y-60690476D02*
X132925809Y-60785714D01*
X132925809Y-60785714D02*
X132925809Y-61119047D01*
X132449619Y-60261904D02*
X132449619Y-59690476D01*
X133449619Y-59976190D02*
X132449619Y-59976190D01*
X132544857Y-59404761D02*
X132497238Y-59357142D01*
X132497238Y-59357142D02*
X132449619Y-59261904D01*
X132449619Y-59261904D02*
X132449619Y-59023809D01*
X132449619Y-59023809D02*
X132497238Y-58928571D01*
X132497238Y-58928571D02*
X132544857Y-58880952D01*
X132544857Y-58880952D02*
X132640095Y-58833333D01*
X132640095Y-58833333D02*
X132735333Y-58833333D01*
X132735333Y-58833333D02*
X132878190Y-58880952D01*
X132878190Y-58880952D02*
X133449619Y-59452380D01*
X133449619Y-59452380D02*
X133449619Y-58833333D01*
X157133333Y-97074380D02*
X157085714Y-97122000D01*
X157085714Y-97122000D02*
X156942857Y-97169619D01*
X156942857Y-97169619D02*
X156847619Y-97169619D01*
X156847619Y-97169619D02*
X156704762Y-97122000D01*
X156704762Y-97122000D02*
X156609524Y-97026761D01*
X156609524Y-97026761D02*
X156561905Y-96931523D01*
X156561905Y-96931523D02*
X156514286Y-96741047D01*
X156514286Y-96741047D02*
X156514286Y-96598190D01*
X156514286Y-96598190D02*
X156561905Y-96407714D01*
X156561905Y-96407714D02*
X156609524Y-96312476D01*
X156609524Y-96312476D02*
X156704762Y-96217238D01*
X156704762Y-96217238D02*
X156847619Y-96169619D01*
X156847619Y-96169619D02*
X156942857Y-96169619D01*
X156942857Y-96169619D02*
X157085714Y-96217238D01*
X157085714Y-96217238D02*
X157133333Y-96264857D01*
X157990476Y-96502952D02*
X157990476Y-97169619D01*
X157752381Y-96122000D02*
X157514286Y-96836285D01*
X157514286Y-96836285D02*
X158133333Y-96836285D01*
X146425809Y-60785714D02*
X146473428Y-60642857D01*
X146473428Y-60642857D02*
X146521047Y-60595238D01*
X146521047Y-60595238D02*
X146616285Y-60547619D01*
X146616285Y-60547619D02*
X146759142Y-60547619D01*
X146759142Y-60547619D02*
X146854380Y-60595238D01*
X146854380Y-60595238D02*
X146902000Y-60642857D01*
X146902000Y-60642857D02*
X146949619Y-60738095D01*
X146949619Y-60738095D02*
X146949619Y-61119047D01*
X146949619Y-61119047D02*
X145949619Y-61119047D01*
X145949619Y-61119047D02*
X145949619Y-60785714D01*
X145949619Y-60785714D02*
X145997238Y-60690476D01*
X145997238Y-60690476D02*
X146044857Y-60642857D01*
X146044857Y-60642857D02*
X146140095Y-60595238D01*
X146140095Y-60595238D02*
X146235333Y-60595238D01*
X146235333Y-60595238D02*
X146330571Y-60642857D01*
X146330571Y-60642857D02*
X146378190Y-60690476D01*
X146378190Y-60690476D02*
X146425809Y-60785714D01*
X146425809Y-60785714D02*
X146425809Y-61119047D01*
X145949619Y-60261904D02*
X145949619Y-59690476D01*
X146949619Y-59976190D02*
X145949619Y-59976190D01*
X145949619Y-59452380D02*
X145949619Y-58833333D01*
X145949619Y-58833333D02*
X146330571Y-59166666D01*
X146330571Y-59166666D02*
X146330571Y-59023809D01*
X146330571Y-59023809D02*
X146378190Y-58928571D01*
X146378190Y-58928571D02*
X146425809Y-58880952D01*
X146425809Y-58880952D02*
X146521047Y-58833333D01*
X146521047Y-58833333D02*
X146759142Y-58833333D01*
X146759142Y-58833333D02*
X146854380Y-58880952D01*
X146854380Y-58880952D02*
X146902000Y-58928571D01*
X146902000Y-58928571D02*
X146949619Y-59023809D01*
X146949619Y-59023809D02*
X146949619Y-59309523D01*
X146949619Y-59309523D02*
X146902000Y-59404761D01*
X146902000Y-59404761D02*
X146854380Y-59452380D01*
X159925809Y-60785714D02*
X159973428Y-60642857D01*
X159973428Y-60642857D02*
X160021047Y-60595238D01*
X160021047Y-60595238D02*
X160116285Y-60547619D01*
X160116285Y-60547619D02*
X160259142Y-60547619D01*
X160259142Y-60547619D02*
X160354380Y-60595238D01*
X160354380Y-60595238D02*
X160402000Y-60642857D01*
X160402000Y-60642857D02*
X160449619Y-60738095D01*
X160449619Y-60738095D02*
X160449619Y-61119047D01*
X160449619Y-61119047D02*
X159449619Y-61119047D01*
X159449619Y-61119047D02*
X159449619Y-60785714D01*
X159449619Y-60785714D02*
X159497238Y-60690476D01*
X159497238Y-60690476D02*
X159544857Y-60642857D01*
X159544857Y-60642857D02*
X159640095Y-60595238D01*
X159640095Y-60595238D02*
X159735333Y-60595238D01*
X159735333Y-60595238D02*
X159830571Y-60642857D01*
X159830571Y-60642857D02*
X159878190Y-60690476D01*
X159878190Y-60690476D02*
X159925809Y-60785714D01*
X159925809Y-60785714D02*
X159925809Y-61119047D01*
X159449619Y-60261904D02*
X159449619Y-59690476D01*
X160449619Y-59976190D02*
X159449619Y-59976190D01*
X159782952Y-58928571D02*
X160449619Y-58928571D01*
X159402000Y-59166666D02*
X160116285Y-59404761D01*
X160116285Y-59404761D02*
X160116285Y-58785714D01*
X181349619Y-97361904D02*
X182159142Y-97361904D01*
X182159142Y-97361904D02*
X182254380Y-97314285D01*
X182254380Y-97314285D02*
X182302000Y-97266666D01*
X182302000Y-97266666D02*
X182349619Y-97171428D01*
X182349619Y-97171428D02*
X182349619Y-96980952D01*
X182349619Y-96980952D02*
X182302000Y-96885714D01*
X182302000Y-96885714D02*
X182254380Y-96838095D01*
X182254380Y-96838095D02*
X182159142Y-96790476D01*
X182159142Y-96790476D02*
X181349619Y-96790476D01*
X181349619Y-96409523D02*
X181349619Y-95742857D01*
X181349619Y-95742857D02*
X182349619Y-96171428D01*
X146925809Y-82333333D02*
X146925809Y-82666666D01*
X147449619Y-82666666D02*
X146449619Y-82666666D01*
X146449619Y-82666666D02*
X146449619Y-82190476D01*
X146449619Y-81904761D02*
X146449619Y-81285714D01*
X146449619Y-81285714D02*
X146830571Y-81619047D01*
X146830571Y-81619047D02*
X146830571Y-81476190D01*
X146830571Y-81476190D02*
X146878190Y-81380952D01*
X146878190Y-81380952D02*
X146925809Y-81333333D01*
X146925809Y-81333333D02*
X147021047Y-81285714D01*
X147021047Y-81285714D02*
X147259142Y-81285714D01*
X147259142Y-81285714D02*
X147354380Y-81333333D01*
X147354380Y-81333333D02*
X147402000Y-81380952D01*
X147402000Y-81380952D02*
X147449619Y-81476190D01*
X147449619Y-81476190D02*
X147449619Y-81761904D01*
X147449619Y-81761904D02*
X147402000Y-81857142D01*
X147402000Y-81857142D02*
X147354380Y-81904761D01*
X176349619Y-88361904D02*
X177159142Y-88361904D01*
X177159142Y-88361904D02*
X177254380Y-88314285D01*
X177254380Y-88314285D02*
X177302000Y-88266666D01*
X177302000Y-88266666D02*
X177349619Y-88171428D01*
X177349619Y-88171428D02*
X177349619Y-87980952D01*
X177349619Y-87980952D02*
X177302000Y-87885714D01*
X177302000Y-87885714D02*
X177254380Y-87838095D01*
X177254380Y-87838095D02*
X177159142Y-87790476D01*
X177159142Y-87790476D02*
X176349619Y-87790476D01*
X176349619Y-86838095D02*
X176349619Y-87314285D01*
X176349619Y-87314285D02*
X176825809Y-87361904D01*
X176825809Y-87361904D02*
X176778190Y-87314285D01*
X176778190Y-87314285D02*
X176730571Y-87219047D01*
X176730571Y-87219047D02*
X176730571Y-86980952D01*
X176730571Y-86980952D02*
X176778190Y-86885714D01*
X176778190Y-86885714D02*
X176825809Y-86838095D01*
X176825809Y-86838095D02*
X176921047Y-86790476D01*
X176921047Y-86790476D02*
X177159142Y-86790476D01*
X177159142Y-86790476D02*
X177254380Y-86838095D01*
X177254380Y-86838095D02*
X177302000Y-86885714D01*
X177302000Y-86885714D02*
X177349619Y-86980952D01*
X177349619Y-86980952D02*
X177349619Y-87219047D01*
X177349619Y-87219047D02*
X177302000Y-87314285D01*
X177302000Y-87314285D02*
X177254380Y-87361904D01*
X131305595Y-111199619D02*
X131305595Y-112009142D01*
X131305595Y-112009142D02*
X131353214Y-112104380D01*
X131353214Y-112104380D02*
X131400833Y-112152000D01*
X131400833Y-112152000D02*
X131496071Y-112199619D01*
X131496071Y-112199619D02*
X131686547Y-112199619D01*
X131686547Y-112199619D02*
X131781785Y-112152000D01*
X131781785Y-112152000D02*
X131829404Y-112104380D01*
X131829404Y-112104380D02*
X131877023Y-112009142D01*
X131877023Y-112009142D02*
X131877023Y-111199619D01*
X132496071Y-111628190D02*
X132400833Y-111580571D01*
X132400833Y-111580571D02*
X132353214Y-111532952D01*
X132353214Y-111532952D02*
X132305595Y-111437714D01*
X132305595Y-111437714D02*
X132305595Y-111390095D01*
X132305595Y-111390095D02*
X132353214Y-111294857D01*
X132353214Y-111294857D02*
X132400833Y-111247238D01*
X132400833Y-111247238D02*
X132496071Y-111199619D01*
X132496071Y-111199619D02*
X132686547Y-111199619D01*
X132686547Y-111199619D02*
X132781785Y-111247238D01*
X132781785Y-111247238D02*
X132829404Y-111294857D01*
X132829404Y-111294857D02*
X132877023Y-111390095D01*
X132877023Y-111390095D02*
X132877023Y-111437714D01*
X132877023Y-111437714D02*
X132829404Y-111532952D01*
X132829404Y-111532952D02*
X132781785Y-111580571D01*
X132781785Y-111580571D02*
X132686547Y-111628190D01*
X132686547Y-111628190D02*
X132496071Y-111628190D01*
X132496071Y-111628190D02*
X132400833Y-111675809D01*
X132400833Y-111675809D02*
X132353214Y-111723428D01*
X132353214Y-111723428D02*
X132305595Y-111818666D01*
X132305595Y-111818666D02*
X132305595Y-112009142D01*
X132305595Y-112009142D02*
X132353214Y-112104380D01*
X132353214Y-112104380D02*
X132400833Y-112152000D01*
X132400833Y-112152000D02*
X132496071Y-112199619D01*
X132496071Y-112199619D02*
X132686547Y-112199619D01*
X132686547Y-112199619D02*
X132781785Y-112152000D01*
X132781785Y-112152000D02*
X132829404Y-112104380D01*
X132829404Y-112104380D02*
X132877023Y-112009142D01*
X132877023Y-112009142D02*
X132877023Y-111818666D01*
X132877023Y-111818666D02*
X132829404Y-111723428D01*
X132829404Y-111723428D02*
X132781785Y-111675809D01*
X132781785Y-111675809D02*
X132686547Y-111628190D01*
X137933333Y-100434380D02*
X137885714Y-100482000D01*
X137885714Y-100482000D02*
X137742857Y-100529619D01*
X137742857Y-100529619D02*
X137647619Y-100529619D01*
X137647619Y-100529619D02*
X137504762Y-100482000D01*
X137504762Y-100482000D02*
X137409524Y-100386761D01*
X137409524Y-100386761D02*
X137361905Y-100291523D01*
X137361905Y-100291523D02*
X137314286Y-100101047D01*
X137314286Y-100101047D02*
X137314286Y-99958190D01*
X137314286Y-99958190D02*
X137361905Y-99767714D01*
X137361905Y-99767714D02*
X137409524Y-99672476D01*
X137409524Y-99672476D02*
X137504762Y-99577238D01*
X137504762Y-99577238D02*
X137647619Y-99529619D01*
X137647619Y-99529619D02*
X137742857Y-99529619D01*
X137742857Y-99529619D02*
X137885714Y-99577238D01*
X137885714Y-99577238D02*
X137933333Y-99624857D01*
X138409524Y-100529619D02*
X138600000Y-100529619D01*
X138600000Y-100529619D02*
X138695238Y-100482000D01*
X138695238Y-100482000D02*
X138742857Y-100434380D01*
X138742857Y-100434380D02*
X138838095Y-100291523D01*
X138838095Y-100291523D02*
X138885714Y-100101047D01*
X138885714Y-100101047D02*
X138885714Y-99720095D01*
X138885714Y-99720095D02*
X138838095Y-99624857D01*
X138838095Y-99624857D02*
X138790476Y-99577238D01*
X138790476Y-99577238D02*
X138695238Y-99529619D01*
X138695238Y-99529619D02*
X138504762Y-99529619D01*
X138504762Y-99529619D02*
X138409524Y-99577238D01*
X138409524Y-99577238D02*
X138361905Y-99624857D01*
X138361905Y-99624857D02*
X138314286Y-99720095D01*
X138314286Y-99720095D02*
X138314286Y-99958190D01*
X138314286Y-99958190D02*
X138361905Y-100053428D01*
X138361905Y-100053428D02*
X138409524Y-100101047D01*
X138409524Y-100101047D02*
X138504762Y-100148666D01*
X138504762Y-100148666D02*
X138695238Y-100148666D01*
X138695238Y-100148666D02*
X138790476Y-100101047D01*
X138790476Y-100101047D02*
X138838095Y-100053428D01*
X138838095Y-100053428D02*
X138885714Y-99958190D01*
X171949619Y-60333333D02*
X172663904Y-60333333D01*
X172663904Y-60333333D02*
X172806761Y-60380952D01*
X172806761Y-60380952D02*
X172902000Y-60476190D01*
X172902000Y-60476190D02*
X172949619Y-60619047D01*
X172949619Y-60619047D02*
X172949619Y-60714285D01*
X171949619Y-59952380D02*
X171949619Y-59333333D01*
X171949619Y-59333333D02*
X172330571Y-59666666D01*
X172330571Y-59666666D02*
X172330571Y-59523809D01*
X172330571Y-59523809D02*
X172378190Y-59428571D01*
X172378190Y-59428571D02*
X172425809Y-59380952D01*
X172425809Y-59380952D02*
X172521047Y-59333333D01*
X172521047Y-59333333D02*
X172759142Y-59333333D01*
X172759142Y-59333333D02*
X172854380Y-59380952D01*
X172854380Y-59380952D02*
X172902000Y-59428571D01*
X172902000Y-59428571D02*
X172949619Y-59523809D01*
X172949619Y-59523809D02*
X172949619Y-59809523D01*
X172949619Y-59809523D02*
X172902000Y-59904761D01*
X172902000Y-59904761D02*
X172854380Y-59952380D01*
X116533333Y-96954380D02*
X116485714Y-97002000D01*
X116485714Y-97002000D02*
X116342857Y-97049619D01*
X116342857Y-97049619D02*
X116247619Y-97049619D01*
X116247619Y-97049619D02*
X116104762Y-97002000D01*
X116104762Y-97002000D02*
X116009524Y-96906761D01*
X116009524Y-96906761D02*
X115961905Y-96811523D01*
X115961905Y-96811523D02*
X115914286Y-96621047D01*
X115914286Y-96621047D02*
X115914286Y-96478190D01*
X115914286Y-96478190D02*
X115961905Y-96287714D01*
X115961905Y-96287714D02*
X116009524Y-96192476D01*
X116009524Y-96192476D02*
X116104762Y-96097238D01*
X116104762Y-96097238D02*
X116247619Y-96049619D01*
X116247619Y-96049619D02*
X116342857Y-96049619D01*
X116342857Y-96049619D02*
X116485714Y-96097238D01*
X116485714Y-96097238D02*
X116533333Y-96144857D01*
X117485714Y-97049619D02*
X116914286Y-97049619D01*
X117200000Y-97049619D02*
X117200000Y-96049619D01*
X117200000Y-96049619D02*
X117104762Y-96192476D01*
X117104762Y-96192476D02*
X117009524Y-96287714D01*
X117009524Y-96287714D02*
X116914286Y-96335333D01*
X124954380Y-106042857D02*
X125002000Y-106090476D01*
X125002000Y-106090476D02*
X125049619Y-106233333D01*
X125049619Y-106233333D02*
X125049619Y-106328571D01*
X125049619Y-106328571D02*
X125002000Y-106471428D01*
X125002000Y-106471428D02*
X124906761Y-106566666D01*
X124906761Y-106566666D02*
X124811523Y-106614285D01*
X124811523Y-106614285D02*
X124621047Y-106661904D01*
X124621047Y-106661904D02*
X124478190Y-106661904D01*
X124478190Y-106661904D02*
X124287714Y-106614285D01*
X124287714Y-106614285D02*
X124192476Y-106566666D01*
X124192476Y-106566666D02*
X124097238Y-106471428D01*
X124097238Y-106471428D02*
X124049619Y-106328571D01*
X124049619Y-106328571D02*
X124049619Y-106233333D01*
X124049619Y-106233333D02*
X124097238Y-106090476D01*
X124097238Y-106090476D02*
X124144857Y-106042857D01*
X125049619Y-105090476D02*
X125049619Y-105661904D01*
X125049619Y-105376190D02*
X124049619Y-105376190D01*
X124049619Y-105376190D02*
X124192476Y-105471428D01*
X124192476Y-105471428D02*
X124287714Y-105566666D01*
X124287714Y-105566666D02*
X124335333Y-105661904D01*
X125049619Y-104138095D02*
X125049619Y-104709523D01*
X125049619Y-104423809D02*
X124049619Y-104423809D01*
X124049619Y-104423809D02*
X124192476Y-104519047D01*
X124192476Y-104519047D02*
X124287714Y-104614285D01*
X124287714Y-104614285D02*
X124335333Y-104709523D01*
X104957142Y-98849619D02*
X104623809Y-98373428D01*
X104385714Y-98849619D02*
X104385714Y-97849619D01*
X104385714Y-97849619D02*
X104766666Y-97849619D01*
X104766666Y-97849619D02*
X104861904Y-97897238D01*
X104861904Y-97897238D02*
X104909523Y-97944857D01*
X104909523Y-97944857D02*
X104957142Y-98040095D01*
X104957142Y-98040095D02*
X104957142Y-98182952D01*
X104957142Y-98182952D02*
X104909523Y-98278190D01*
X104909523Y-98278190D02*
X104861904Y-98325809D01*
X104861904Y-98325809D02*
X104766666Y-98373428D01*
X104766666Y-98373428D02*
X104385714Y-98373428D01*
X105909523Y-98849619D02*
X105338095Y-98849619D01*
X105623809Y-98849619D02*
X105623809Y-97849619D01*
X105623809Y-97849619D02*
X105528571Y-97992476D01*
X105528571Y-97992476D02*
X105433333Y-98087714D01*
X105433333Y-98087714D02*
X105338095Y-98135333D01*
X106290476Y-97944857D02*
X106338095Y-97897238D01*
X106338095Y-97897238D02*
X106433333Y-97849619D01*
X106433333Y-97849619D02*
X106671428Y-97849619D01*
X106671428Y-97849619D02*
X106766666Y-97897238D01*
X106766666Y-97897238D02*
X106814285Y-97944857D01*
X106814285Y-97944857D02*
X106861904Y-98040095D01*
X106861904Y-98040095D02*
X106861904Y-98135333D01*
X106861904Y-98135333D02*
X106814285Y-98278190D01*
X106814285Y-98278190D02*
X106242857Y-98849619D01*
X106242857Y-98849619D02*
X106861904Y-98849619D01*
X171357142Y-101749619D02*
X171023809Y-101273428D01*
X170785714Y-101749619D02*
X170785714Y-100749619D01*
X170785714Y-100749619D02*
X171166666Y-100749619D01*
X171166666Y-100749619D02*
X171261904Y-100797238D01*
X171261904Y-100797238D02*
X171309523Y-100844857D01*
X171309523Y-100844857D02*
X171357142Y-100940095D01*
X171357142Y-100940095D02*
X171357142Y-101082952D01*
X171357142Y-101082952D02*
X171309523Y-101178190D01*
X171309523Y-101178190D02*
X171261904Y-101225809D01*
X171261904Y-101225809D02*
X171166666Y-101273428D01*
X171166666Y-101273428D02*
X170785714Y-101273428D01*
X172309523Y-101749619D02*
X171738095Y-101749619D01*
X172023809Y-101749619D02*
X172023809Y-100749619D01*
X172023809Y-100749619D02*
X171928571Y-100892476D01*
X171928571Y-100892476D02*
X171833333Y-100987714D01*
X171833333Y-100987714D02*
X171738095Y-101035333D01*
X173261904Y-101749619D02*
X172690476Y-101749619D01*
X172976190Y-101749619D02*
X172976190Y-100749619D01*
X172976190Y-100749619D02*
X172880952Y-100892476D01*
X172880952Y-100892476D02*
X172785714Y-100987714D01*
X172785714Y-100987714D02*
X172690476Y-101035333D01*
X145761905Y-113899619D02*
X145761905Y-114709142D01*
X145761905Y-114709142D02*
X145809524Y-114804380D01*
X145809524Y-114804380D02*
X145857143Y-114852000D01*
X145857143Y-114852000D02*
X145952381Y-114899619D01*
X145952381Y-114899619D02*
X146142857Y-114899619D01*
X146142857Y-114899619D02*
X146238095Y-114852000D01*
X146238095Y-114852000D02*
X146285714Y-114804380D01*
X146285714Y-114804380D02*
X146333333Y-114709142D01*
X146333333Y-114709142D02*
X146333333Y-113899619D01*
X147333333Y-114899619D02*
X146761905Y-114899619D01*
X147047619Y-114899619D02*
X147047619Y-113899619D01*
X147047619Y-113899619D02*
X146952381Y-114042476D01*
X146952381Y-114042476D02*
X146857143Y-114137714D01*
X146857143Y-114137714D02*
X146761905Y-114185333D01*
X147952381Y-113899619D02*
X148047619Y-113899619D01*
X148047619Y-113899619D02*
X148142857Y-113947238D01*
X148142857Y-113947238D02*
X148190476Y-113994857D01*
X148190476Y-113994857D02*
X148238095Y-114090095D01*
X148238095Y-114090095D02*
X148285714Y-114280571D01*
X148285714Y-114280571D02*
X148285714Y-114518666D01*
X148285714Y-114518666D02*
X148238095Y-114709142D01*
X148238095Y-114709142D02*
X148190476Y-114804380D01*
X148190476Y-114804380D02*
X148142857Y-114852000D01*
X148142857Y-114852000D02*
X148047619Y-114899619D01*
X148047619Y-114899619D02*
X147952381Y-114899619D01*
X147952381Y-114899619D02*
X147857143Y-114852000D01*
X147857143Y-114852000D02*
X147809524Y-114804380D01*
X147809524Y-114804380D02*
X147761905Y-114709142D01*
X147761905Y-114709142D02*
X147714286Y-114518666D01*
X147714286Y-114518666D02*
X147714286Y-114280571D01*
X147714286Y-114280571D02*
X147761905Y-114090095D01*
X147761905Y-114090095D02*
X147809524Y-113994857D01*
X147809524Y-113994857D02*
X147857143Y-113947238D01*
X147857143Y-113947238D02*
X147952381Y-113899619D01*
X149838095Y-94149619D02*
X149838095Y-94959142D01*
X149838095Y-94959142D02*
X149885714Y-95054380D01*
X149885714Y-95054380D02*
X149933333Y-95102000D01*
X149933333Y-95102000D02*
X150028571Y-95149619D01*
X150028571Y-95149619D02*
X150219047Y-95149619D01*
X150219047Y-95149619D02*
X150314285Y-95102000D01*
X150314285Y-95102000D02*
X150361904Y-95054380D01*
X150361904Y-95054380D02*
X150409523Y-94959142D01*
X150409523Y-94959142D02*
X150409523Y-94149619D01*
X151314285Y-94482952D02*
X151314285Y-95149619D01*
X151076190Y-94102000D02*
X150838095Y-94816285D01*
X150838095Y-94816285D02*
X151457142Y-94816285D01*
X175649619Y-100666666D02*
X175173428Y-100999999D01*
X175649619Y-101238094D02*
X174649619Y-101238094D01*
X174649619Y-101238094D02*
X174649619Y-100857142D01*
X174649619Y-100857142D02*
X174697238Y-100761904D01*
X174697238Y-100761904D02*
X174744857Y-100714285D01*
X174744857Y-100714285D02*
X174840095Y-100666666D01*
X174840095Y-100666666D02*
X174982952Y-100666666D01*
X174982952Y-100666666D02*
X175078190Y-100714285D01*
X175078190Y-100714285D02*
X175125809Y-100761904D01*
X175125809Y-100761904D02*
X175173428Y-100857142D01*
X175173428Y-100857142D02*
X175173428Y-101238094D01*
X174649619Y-100333332D02*
X174649619Y-99714285D01*
X174649619Y-99714285D02*
X175030571Y-100047618D01*
X175030571Y-100047618D02*
X175030571Y-99904761D01*
X175030571Y-99904761D02*
X175078190Y-99809523D01*
X175078190Y-99809523D02*
X175125809Y-99761904D01*
X175125809Y-99761904D02*
X175221047Y-99714285D01*
X175221047Y-99714285D02*
X175459142Y-99714285D01*
X175459142Y-99714285D02*
X175554380Y-99761904D01*
X175554380Y-99761904D02*
X175602000Y-99809523D01*
X175602000Y-99809523D02*
X175649619Y-99904761D01*
X175649619Y-99904761D02*
X175649619Y-100190475D01*
X175649619Y-100190475D02*
X175602000Y-100285713D01*
X175602000Y-100285713D02*
X175554380Y-100333332D01*
X127949619Y-100566666D02*
X127473428Y-100899999D01*
X127949619Y-101138094D02*
X126949619Y-101138094D01*
X126949619Y-101138094D02*
X126949619Y-100757142D01*
X126949619Y-100757142D02*
X126997238Y-100661904D01*
X126997238Y-100661904D02*
X127044857Y-100614285D01*
X127044857Y-100614285D02*
X127140095Y-100566666D01*
X127140095Y-100566666D02*
X127282952Y-100566666D01*
X127282952Y-100566666D02*
X127378190Y-100614285D01*
X127378190Y-100614285D02*
X127425809Y-100661904D01*
X127425809Y-100661904D02*
X127473428Y-100757142D01*
X127473428Y-100757142D02*
X127473428Y-101138094D01*
X126949619Y-99709523D02*
X126949619Y-99899999D01*
X126949619Y-99899999D02*
X126997238Y-99995237D01*
X126997238Y-99995237D02*
X127044857Y-100042856D01*
X127044857Y-100042856D02*
X127187714Y-100138094D01*
X127187714Y-100138094D02*
X127378190Y-100185713D01*
X127378190Y-100185713D02*
X127759142Y-100185713D01*
X127759142Y-100185713D02*
X127854380Y-100138094D01*
X127854380Y-100138094D02*
X127902000Y-100090475D01*
X127902000Y-100090475D02*
X127949619Y-99995237D01*
X127949619Y-99995237D02*
X127949619Y-99804761D01*
X127949619Y-99804761D02*
X127902000Y-99709523D01*
X127902000Y-99709523D02*
X127854380Y-99661904D01*
X127854380Y-99661904D02*
X127759142Y-99614285D01*
X127759142Y-99614285D02*
X127521047Y-99614285D01*
X127521047Y-99614285D02*
X127425809Y-99661904D01*
X127425809Y-99661904D02*
X127378190Y-99709523D01*
X127378190Y-99709523D02*
X127330571Y-99804761D01*
X127330571Y-99804761D02*
X127330571Y-99995237D01*
X127330571Y-99995237D02*
X127378190Y-100090475D01*
X127378190Y-100090475D02*
X127425809Y-100138094D01*
X127425809Y-100138094D02*
X127521047Y-100185713D01*
X136554380Y-113042857D02*
X136602000Y-113090476D01*
X136602000Y-113090476D02*
X136649619Y-113233333D01*
X136649619Y-113233333D02*
X136649619Y-113328571D01*
X136649619Y-113328571D02*
X136602000Y-113471428D01*
X136602000Y-113471428D02*
X136506761Y-113566666D01*
X136506761Y-113566666D02*
X136411523Y-113614285D01*
X136411523Y-113614285D02*
X136221047Y-113661904D01*
X136221047Y-113661904D02*
X136078190Y-113661904D01*
X136078190Y-113661904D02*
X135887714Y-113614285D01*
X135887714Y-113614285D02*
X135792476Y-113566666D01*
X135792476Y-113566666D02*
X135697238Y-113471428D01*
X135697238Y-113471428D02*
X135649619Y-113328571D01*
X135649619Y-113328571D02*
X135649619Y-113233333D01*
X135649619Y-113233333D02*
X135697238Y-113090476D01*
X135697238Y-113090476D02*
X135744857Y-113042857D01*
X136649619Y-112090476D02*
X136649619Y-112661904D01*
X136649619Y-112376190D02*
X135649619Y-112376190D01*
X135649619Y-112376190D02*
X135792476Y-112471428D01*
X135792476Y-112471428D02*
X135887714Y-112566666D01*
X135887714Y-112566666D02*
X135935333Y-112661904D01*
X135649619Y-111185714D02*
X135649619Y-111661904D01*
X135649619Y-111661904D02*
X136125809Y-111709523D01*
X136125809Y-111709523D02*
X136078190Y-111661904D01*
X136078190Y-111661904D02*
X136030571Y-111566666D01*
X136030571Y-111566666D02*
X136030571Y-111328571D01*
X136030571Y-111328571D02*
X136078190Y-111233333D01*
X136078190Y-111233333D02*
X136125809Y-111185714D01*
X136125809Y-111185714D02*
X136221047Y-111138095D01*
X136221047Y-111138095D02*
X136459142Y-111138095D01*
X136459142Y-111138095D02*
X136554380Y-111185714D01*
X136554380Y-111185714D02*
X136602000Y-111233333D01*
X136602000Y-111233333D02*
X136649619Y-111328571D01*
X136649619Y-111328571D02*
X136649619Y-111566666D01*
X136649619Y-111566666D02*
X136602000Y-111661904D01*
X136602000Y-111661904D02*
X136554380Y-111709523D01*
X111733333Y-100654380D02*
X111685714Y-100702000D01*
X111685714Y-100702000D02*
X111542857Y-100749619D01*
X111542857Y-100749619D02*
X111447619Y-100749619D01*
X111447619Y-100749619D02*
X111304762Y-100702000D01*
X111304762Y-100702000D02*
X111209524Y-100606761D01*
X111209524Y-100606761D02*
X111161905Y-100511523D01*
X111161905Y-100511523D02*
X111114286Y-100321047D01*
X111114286Y-100321047D02*
X111114286Y-100178190D01*
X111114286Y-100178190D02*
X111161905Y-99987714D01*
X111161905Y-99987714D02*
X111209524Y-99892476D01*
X111209524Y-99892476D02*
X111304762Y-99797238D01*
X111304762Y-99797238D02*
X111447619Y-99749619D01*
X111447619Y-99749619D02*
X111542857Y-99749619D01*
X111542857Y-99749619D02*
X111685714Y-99797238D01*
X111685714Y-99797238D02*
X111733333Y-99844857D01*
X112066667Y-99749619D02*
X112733333Y-99749619D01*
X112733333Y-99749619D02*
X112304762Y-100749619D01*
X141449619Y-100366666D02*
X140973428Y-100699999D01*
X141449619Y-100938094D02*
X140449619Y-100938094D01*
X140449619Y-100938094D02*
X140449619Y-100557142D01*
X140449619Y-100557142D02*
X140497238Y-100461904D01*
X140497238Y-100461904D02*
X140544857Y-100414285D01*
X140544857Y-100414285D02*
X140640095Y-100366666D01*
X140640095Y-100366666D02*
X140782952Y-100366666D01*
X140782952Y-100366666D02*
X140878190Y-100414285D01*
X140878190Y-100414285D02*
X140925809Y-100461904D01*
X140925809Y-100461904D02*
X140973428Y-100557142D01*
X140973428Y-100557142D02*
X140973428Y-100938094D01*
X140449619Y-100033332D02*
X140449619Y-99366666D01*
X140449619Y-99366666D02*
X141449619Y-99795237D01*
X122538095Y-94149619D02*
X122538095Y-94959142D01*
X122538095Y-94959142D02*
X122585714Y-95054380D01*
X122585714Y-95054380D02*
X122633333Y-95102000D01*
X122633333Y-95102000D02*
X122728571Y-95149619D01*
X122728571Y-95149619D02*
X122919047Y-95149619D01*
X122919047Y-95149619D02*
X123014285Y-95102000D01*
X123014285Y-95102000D02*
X123061904Y-95054380D01*
X123061904Y-95054380D02*
X123109523Y-94959142D01*
X123109523Y-94959142D02*
X123109523Y-94149619D01*
X123538095Y-94244857D02*
X123585714Y-94197238D01*
X123585714Y-94197238D02*
X123680952Y-94149619D01*
X123680952Y-94149619D02*
X123919047Y-94149619D01*
X123919047Y-94149619D02*
X124014285Y-94197238D01*
X124014285Y-94197238D02*
X124061904Y-94244857D01*
X124061904Y-94244857D02*
X124109523Y-94340095D01*
X124109523Y-94340095D02*
X124109523Y-94435333D01*
X124109523Y-94435333D02*
X124061904Y-94578190D01*
X124061904Y-94578190D02*
X123490476Y-95149619D01*
X123490476Y-95149619D02*
X124109523Y-95149619D01*
X123938095Y-118649619D02*
X123938095Y-119459142D01*
X123938095Y-119459142D02*
X123985714Y-119554380D01*
X123985714Y-119554380D02*
X124033333Y-119602000D01*
X124033333Y-119602000D02*
X124128571Y-119649619D01*
X124128571Y-119649619D02*
X124319047Y-119649619D01*
X124319047Y-119649619D02*
X124414285Y-119602000D01*
X124414285Y-119602000D02*
X124461904Y-119554380D01*
X124461904Y-119554380D02*
X124509523Y-119459142D01*
X124509523Y-119459142D02*
X124509523Y-118649619D01*
X125033333Y-119649619D02*
X125223809Y-119649619D01*
X125223809Y-119649619D02*
X125319047Y-119602000D01*
X125319047Y-119602000D02*
X125366666Y-119554380D01*
X125366666Y-119554380D02*
X125461904Y-119411523D01*
X125461904Y-119411523D02*
X125509523Y-119221047D01*
X125509523Y-119221047D02*
X125509523Y-118840095D01*
X125509523Y-118840095D02*
X125461904Y-118744857D01*
X125461904Y-118744857D02*
X125414285Y-118697238D01*
X125414285Y-118697238D02*
X125319047Y-118649619D01*
X125319047Y-118649619D02*
X125128571Y-118649619D01*
X125128571Y-118649619D02*
X125033333Y-118697238D01*
X125033333Y-118697238D02*
X124985714Y-118744857D01*
X124985714Y-118744857D02*
X124938095Y-118840095D01*
X124938095Y-118840095D02*
X124938095Y-119078190D01*
X124938095Y-119078190D02*
X124985714Y-119173428D01*
X124985714Y-119173428D02*
X125033333Y-119221047D01*
X125033333Y-119221047D02*
X125128571Y-119268666D01*
X125128571Y-119268666D02*
X125319047Y-119268666D01*
X125319047Y-119268666D02*
X125414285Y-119221047D01*
X125414285Y-119221047D02*
X125461904Y-119173428D01*
X125461904Y-119173428D02*
X125509523Y-119078190D01*
X176799619Y-104166666D02*
X176323428Y-104499999D01*
X176799619Y-104738094D02*
X175799619Y-104738094D01*
X175799619Y-104738094D02*
X175799619Y-104357142D01*
X175799619Y-104357142D02*
X175847238Y-104261904D01*
X175847238Y-104261904D02*
X175894857Y-104214285D01*
X175894857Y-104214285D02*
X175990095Y-104166666D01*
X175990095Y-104166666D02*
X176132952Y-104166666D01*
X176132952Y-104166666D02*
X176228190Y-104214285D01*
X176228190Y-104214285D02*
X176275809Y-104261904D01*
X176275809Y-104261904D02*
X176323428Y-104357142D01*
X176323428Y-104357142D02*
X176323428Y-104738094D01*
X176799619Y-103214285D02*
X176799619Y-103785713D01*
X176799619Y-103499999D02*
X175799619Y-103499999D01*
X175799619Y-103499999D02*
X175942476Y-103595237D01*
X175942476Y-103595237D02*
X176037714Y-103690475D01*
X176037714Y-103690475D02*
X176085333Y-103785713D01*
X135938095Y-94149619D02*
X135938095Y-94959142D01*
X135938095Y-94959142D02*
X135985714Y-95054380D01*
X135985714Y-95054380D02*
X136033333Y-95102000D01*
X136033333Y-95102000D02*
X136128571Y-95149619D01*
X136128571Y-95149619D02*
X136319047Y-95149619D01*
X136319047Y-95149619D02*
X136414285Y-95102000D01*
X136414285Y-95102000D02*
X136461904Y-95054380D01*
X136461904Y-95054380D02*
X136509523Y-94959142D01*
X136509523Y-94959142D02*
X136509523Y-94149619D01*
X136890476Y-94149619D02*
X137509523Y-94149619D01*
X137509523Y-94149619D02*
X137176190Y-94530571D01*
X137176190Y-94530571D02*
X137319047Y-94530571D01*
X137319047Y-94530571D02*
X137414285Y-94578190D01*
X137414285Y-94578190D02*
X137461904Y-94625809D01*
X137461904Y-94625809D02*
X137509523Y-94721047D01*
X137509523Y-94721047D02*
X137509523Y-94959142D01*
X137509523Y-94959142D02*
X137461904Y-95054380D01*
X137461904Y-95054380D02*
X137414285Y-95102000D01*
X137414285Y-95102000D02*
X137319047Y-95149619D01*
X137319047Y-95149619D02*
X137033333Y-95149619D01*
X137033333Y-95149619D02*
X136938095Y-95102000D01*
X136938095Y-95102000D02*
X136890476Y-95054380D01*
X178049619Y-100666666D02*
X177573428Y-100999999D01*
X178049619Y-101238094D02*
X177049619Y-101238094D01*
X177049619Y-101238094D02*
X177049619Y-100857142D01*
X177049619Y-100857142D02*
X177097238Y-100761904D01*
X177097238Y-100761904D02*
X177144857Y-100714285D01*
X177144857Y-100714285D02*
X177240095Y-100666666D01*
X177240095Y-100666666D02*
X177382952Y-100666666D01*
X177382952Y-100666666D02*
X177478190Y-100714285D01*
X177478190Y-100714285D02*
X177525809Y-100761904D01*
X177525809Y-100761904D02*
X177573428Y-100857142D01*
X177573428Y-100857142D02*
X177573428Y-101238094D01*
X177382952Y-99809523D02*
X178049619Y-99809523D01*
X177002000Y-100047618D02*
X177716285Y-100285713D01*
X177716285Y-100285713D02*
X177716285Y-99666666D01*
D10*
X167857142Y-101639580D02*
X167809523Y-101687200D01*
X167809523Y-101687200D02*
X167666666Y-101734819D01*
X167666666Y-101734819D02*
X167571428Y-101734819D01*
X167571428Y-101734819D02*
X167428571Y-101687200D01*
X167428571Y-101687200D02*
X167333333Y-101591961D01*
X167333333Y-101591961D02*
X167285714Y-101496723D01*
X167285714Y-101496723D02*
X167238095Y-101306247D01*
X167238095Y-101306247D02*
X167238095Y-101163390D01*
X167238095Y-101163390D02*
X167285714Y-100972914D01*
X167285714Y-100972914D02*
X167333333Y-100877676D01*
X167333333Y-100877676D02*
X167428571Y-100782438D01*
X167428571Y-100782438D02*
X167571428Y-100734819D01*
X167571428Y-100734819D02*
X167666666Y-100734819D01*
X167666666Y-100734819D02*
X167809523Y-100782438D01*
X167809523Y-100782438D02*
X167857142Y-100830057D01*
X168809523Y-101734819D02*
X168238095Y-101734819D01*
X168523809Y-101734819D02*
X168523809Y-100734819D01*
X168523809Y-100734819D02*
X168428571Y-100877676D01*
X168428571Y-100877676D02*
X168333333Y-100972914D01*
X168333333Y-100972914D02*
X168238095Y-101020533D01*
X169666666Y-100734819D02*
X169476190Y-100734819D01*
X169476190Y-100734819D02*
X169380952Y-100782438D01*
X169380952Y-100782438D02*
X169333333Y-100830057D01*
X169333333Y-100830057D02*
X169238095Y-100972914D01*
X169238095Y-100972914D02*
X169190476Y-101163390D01*
X169190476Y-101163390D02*
X169190476Y-101544342D01*
X169190476Y-101544342D02*
X169238095Y-101639580D01*
X169238095Y-101639580D02*
X169285714Y-101687200D01*
X169285714Y-101687200D02*
X169380952Y-101734819D01*
X169380952Y-101734819D02*
X169571428Y-101734819D01*
X169571428Y-101734819D02*
X169666666Y-101687200D01*
X169666666Y-101687200D02*
X169714285Y-101639580D01*
X169714285Y-101639580D02*
X169761904Y-101544342D01*
X169761904Y-101544342D02*
X169761904Y-101306247D01*
X169761904Y-101306247D02*
X169714285Y-101211009D01*
X169714285Y-101211009D02*
X169666666Y-101163390D01*
X169666666Y-101163390D02*
X169571428Y-101115771D01*
X169571428Y-101115771D02*
X169380952Y-101115771D01*
X169380952Y-101115771D02*
X169285714Y-101163390D01*
X169285714Y-101163390D02*
X169238095Y-101211009D01*
X169238095Y-101211009D02*
X169190476Y-101306247D01*
D12*
X127054380Y-106042857D02*
X127102000Y-106090476D01*
X127102000Y-106090476D02*
X127149619Y-106233333D01*
X127149619Y-106233333D02*
X127149619Y-106328571D01*
X127149619Y-106328571D02*
X127102000Y-106471428D01*
X127102000Y-106471428D02*
X127006761Y-106566666D01*
X127006761Y-106566666D02*
X126911523Y-106614285D01*
X126911523Y-106614285D02*
X126721047Y-106661904D01*
X126721047Y-106661904D02*
X126578190Y-106661904D01*
X126578190Y-106661904D02*
X126387714Y-106614285D01*
X126387714Y-106614285D02*
X126292476Y-106566666D01*
X126292476Y-106566666D02*
X126197238Y-106471428D01*
X126197238Y-106471428D02*
X126149619Y-106328571D01*
X126149619Y-106328571D02*
X126149619Y-106233333D01*
X126149619Y-106233333D02*
X126197238Y-106090476D01*
X126197238Y-106090476D02*
X126244857Y-106042857D01*
X127149619Y-105090476D02*
X127149619Y-105661904D01*
X127149619Y-105376190D02*
X126149619Y-105376190D01*
X126149619Y-105376190D02*
X126292476Y-105471428D01*
X126292476Y-105471428D02*
X126387714Y-105566666D01*
X126387714Y-105566666D02*
X126435333Y-105661904D01*
X126149619Y-104757142D02*
X126149619Y-104138095D01*
X126149619Y-104138095D02*
X126530571Y-104471428D01*
X126530571Y-104471428D02*
X126530571Y-104328571D01*
X126530571Y-104328571D02*
X126578190Y-104233333D01*
X126578190Y-104233333D02*
X126625809Y-104185714D01*
X126625809Y-104185714D02*
X126721047Y-104138095D01*
X126721047Y-104138095D02*
X126959142Y-104138095D01*
X126959142Y-104138095D02*
X127054380Y-104185714D01*
X127054380Y-104185714D02*
X127102000Y-104233333D01*
X127102000Y-104233333D02*
X127149619Y-104328571D01*
X127149619Y-104328571D02*
X127149619Y-104614285D01*
X127149619Y-104614285D02*
X127102000Y-104709523D01*
X127102000Y-104709523D02*
X127054380Y-104757142D01*
X160619047Y-108625809D02*
X160761904Y-108673428D01*
X160761904Y-108673428D02*
X160809523Y-108721047D01*
X160809523Y-108721047D02*
X160857142Y-108816285D01*
X160857142Y-108816285D02*
X160857142Y-108959142D01*
X160857142Y-108959142D02*
X160809523Y-109054380D01*
X160809523Y-109054380D02*
X160761904Y-109102000D01*
X160761904Y-109102000D02*
X160666666Y-109149619D01*
X160666666Y-109149619D02*
X160285714Y-109149619D01*
X160285714Y-109149619D02*
X160285714Y-108149619D01*
X160285714Y-108149619D02*
X160619047Y-108149619D01*
X160619047Y-108149619D02*
X160714285Y-108197238D01*
X160714285Y-108197238D02*
X160761904Y-108244857D01*
X160761904Y-108244857D02*
X160809523Y-108340095D01*
X160809523Y-108340095D02*
X160809523Y-108435333D01*
X160809523Y-108435333D02*
X160761904Y-108530571D01*
X160761904Y-108530571D02*
X160714285Y-108578190D01*
X160714285Y-108578190D02*
X160619047Y-108625809D01*
X160619047Y-108625809D02*
X160285714Y-108625809D01*
X161190476Y-108149619D02*
X161857142Y-108149619D01*
X161857142Y-108149619D02*
X161190476Y-109149619D01*
X161190476Y-109149619D02*
X161857142Y-109149619D01*
X162761904Y-109149619D02*
X162190476Y-109149619D01*
X162476190Y-109149619D02*
X162476190Y-108149619D01*
X162476190Y-108149619D02*
X162380952Y-108292476D01*
X162380952Y-108292476D02*
X162285714Y-108387714D01*
X162285714Y-108387714D02*
X162190476Y-108435333D01*
X143533333Y-97074380D02*
X143485714Y-97122000D01*
X143485714Y-97122000D02*
X143342857Y-97169619D01*
X143342857Y-97169619D02*
X143247619Y-97169619D01*
X143247619Y-97169619D02*
X143104762Y-97122000D01*
X143104762Y-97122000D02*
X143009524Y-97026761D01*
X143009524Y-97026761D02*
X142961905Y-96931523D01*
X142961905Y-96931523D02*
X142914286Y-96741047D01*
X142914286Y-96741047D02*
X142914286Y-96598190D01*
X142914286Y-96598190D02*
X142961905Y-96407714D01*
X142961905Y-96407714D02*
X143009524Y-96312476D01*
X143009524Y-96312476D02*
X143104762Y-96217238D01*
X143104762Y-96217238D02*
X143247619Y-96169619D01*
X143247619Y-96169619D02*
X143342857Y-96169619D01*
X143342857Y-96169619D02*
X143485714Y-96217238D01*
X143485714Y-96217238D02*
X143533333Y-96264857D01*
X143866667Y-96169619D02*
X144485714Y-96169619D01*
X144485714Y-96169619D02*
X144152381Y-96550571D01*
X144152381Y-96550571D02*
X144295238Y-96550571D01*
X144295238Y-96550571D02*
X144390476Y-96598190D01*
X144390476Y-96598190D02*
X144438095Y-96645809D01*
X144438095Y-96645809D02*
X144485714Y-96741047D01*
X144485714Y-96741047D02*
X144485714Y-96979142D01*
X144485714Y-96979142D02*
X144438095Y-97074380D01*
X144438095Y-97074380D02*
X144390476Y-97122000D01*
X144390476Y-97122000D02*
X144295238Y-97169619D01*
X144295238Y-97169619D02*
X144009524Y-97169619D01*
X144009524Y-97169619D02*
X143914286Y-97122000D01*
X143914286Y-97122000D02*
X143866667Y-97074380D01*
X184199619Y-105666666D02*
X183723428Y-105999999D01*
X184199619Y-106238094D02*
X183199619Y-106238094D01*
X183199619Y-106238094D02*
X183199619Y-105857142D01*
X183199619Y-105857142D02*
X183247238Y-105761904D01*
X183247238Y-105761904D02*
X183294857Y-105714285D01*
X183294857Y-105714285D02*
X183390095Y-105666666D01*
X183390095Y-105666666D02*
X183532952Y-105666666D01*
X183532952Y-105666666D02*
X183628190Y-105714285D01*
X183628190Y-105714285D02*
X183675809Y-105761904D01*
X183675809Y-105761904D02*
X183723428Y-105857142D01*
X183723428Y-105857142D02*
X183723428Y-106238094D01*
X183294857Y-105285713D02*
X183247238Y-105238094D01*
X183247238Y-105238094D02*
X183199619Y-105142856D01*
X183199619Y-105142856D02*
X183199619Y-104904761D01*
X183199619Y-104904761D02*
X183247238Y-104809523D01*
X183247238Y-104809523D02*
X183294857Y-104761904D01*
X183294857Y-104761904D02*
X183390095Y-104714285D01*
X183390095Y-104714285D02*
X183485333Y-104714285D01*
X183485333Y-104714285D02*
X183628190Y-104761904D01*
X183628190Y-104761904D02*
X184199619Y-105333332D01*
X184199619Y-105333332D02*
X184199619Y-104714285D01*
X161757142Y-101849619D02*
X161423809Y-101373428D01*
X161185714Y-101849619D02*
X161185714Y-100849619D01*
X161185714Y-100849619D02*
X161566666Y-100849619D01*
X161566666Y-100849619D02*
X161661904Y-100897238D01*
X161661904Y-100897238D02*
X161709523Y-100944857D01*
X161709523Y-100944857D02*
X161757142Y-101040095D01*
X161757142Y-101040095D02*
X161757142Y-101182952D01*
X161757142Y-101182952D02*
X161709523Y-101278190D01*
X161709523Y-101278190D02*
X161661904Y-101325809D01*
X161661904Y-101325809D02*
X161566666Y-101373428D01*
X161566666Y-101373428D02*
X161185714Y-101373428D01*
X162709523Y-101849619D02*
X162138095Y-101849619D01*
X162423809Y-101849619D02*
X162423809Y-100849619D01*
X162423809Y-100849619D02*
X162328571Y-100992476D01*
X162328571Y-100992476D02*
X162233333Y-101087714D01*
X162233333Y-101087714D02*
X162138095Y-101135333D01*
X163328571Y-100849619D02*
X163423809Y-100849619D01*
X163423809Y-100849619D02*
X163519047Y-100897238D01*
X163519047Y-100897238D02*
X163566666Y-100944857D01*
X163566666Y-100944857D02*
X163614285Y-101040095D01*
X163614285Y-101040095D02*
X163661904Y-101230571D01*
X163661904Y-101230571D02*
X163661904Y-101468666D01*
X163661904Y-101468666D02*
X163614285Y-101659142D01*
X163614285Y-101659142D02*
X163566666Y-101754380D01*
X163566666Y-101754380D02*
X163519047Y-101802000D01*
X163519047Y-101802000D02*
X163423809Y-101849619D01*
X163423809Y-101849619D02*
X163328571Y-101849619D01*
X163328571Y-101849619D02*
X163233333Y-101802000D01*
X163233333Y-101802000D02*
X163185714Y-101754380D01*
X163185714Y-101754380D02*
X163138095Y-101659142D01*
X163138095Y-101659142D02*
X163090476Y-101468666D01*
X163090476Y-101468666D02*
X163090476Y-101230571D01*
X163090476Y-101230571D02*
X163138095Y-101040095D01*
X163138095Y-101040095D02*
X163185714Y-100944857D01*
X163185714Y-100944857D02*
X163233333Y-100897238D01*
X163233333Y-100897238D02*
X163328571Y-100849619D01*
X154657142Y-111474380D02*
X154609523Y-111522000D01*
X154609523Y-111522000D02*
X154466666Y-111569619D01*
X154466666Y-111569619D02*
X154371428Y-111569619D01*
X154371428Y-111569619D02*
X154228571Y-111522000D01*
X154228571Y-111522000D02*
X154133333Y-111426761D01*
X154133333Y-111426761D02*
X154085714Y-111331523D01*
X154085714Y-111331523D02*
X154038095Y-111141047D01*
X154038095Y-111141047D02*
X154038095Y-110998190D01*
X154038095Y-110998190D02*
X154085714Y-110807714D01*
X154085714Y-110807714D02*
X154133333Y-110712476D01*
X154133333Y-110712476D02*
X154228571Y-110617238D01*
X154228571Y-110617238D02*
X154371428Y-110569619D01*
X154371428Y-110569619D02*
X154466666Y-110569619D01*
X154466666Y-110569619D02*
X154609523Y-110617238D01*
X154609523Y-110617238D02*
X154657142Y-110664857D01*
X155609523Y-111569619D02*
X155038095Y-111569619D01*
X155323809Y-111569619D02*
X155323809Y-110569619D01*
X155323809Y-110569619D02*
X155228571Y-110712476D01*
X155228571Y-110712476D02*
X155133333Y-110807714D01*
X155133333Y-110807714D02*
X155038095Y-110855333D01*
X156466666Y-110902952D02*
X156466666Y-111569619D01*
X156228571Y-110522000D02*
X155990476Y-111236285D01*
X155990476Y-111236285D02*
X156609523Y-111236285D01*
X133525809Y-82388333D02*
X133525809Y-82721666D01*
X134049619Y-82721666D02*
X133049619Y-82721666D01*
X133049619Y-82721666D02*
X133049619Y-82245476D01*
X133144857Y-81912142D02*
X133097238Y-81864523D01*
X133097238Y-81864523D02*
X133049619Y-81769285D01*
X133049619Y-81769285D02*
X133049619Y-81531190D01*
X133049619Y-81531190D02*
X133097238Y-81435952D01*
X133097238Y-81435952D02*
X133144857Y-81388333D01*
X133144857Y-81388333D02*
X133240095Y-81340714D01*
X133240095Y-81340714D02*
X133335333Y-81340714D01*
X133335333Y-81340714D02*
X133478190Y-81388333D01*
X133478190Y-81388333D02*
X134049619Y-81959761D01*
X134049619Y-81959761D02*
X134049619Y-81340714D01*
X130133333Y-97054380D02*
X130085714Y-97102000D01*
X130085714Y-97102000D02*
X129942857Y-97149619D01*
X129942857Y-97149619D02*
X129847619Y-97149619D01*
X129847619Y-97149619D02*
X129704762Y-97102000D01*
X129704762Y-97102000D02*
X129609524Y-97006761D01*
X129609524Y-97006761D02*
X129561905Y-96911523D01*
X129561905Y-96911523D02*
X129514286Y-96721047D01*
X129514286Y-96721047D02*
X129514286Y-96578190D01*
X129514286Y-96578190D02*
X129561905Y-96387714D01*
X129561905Y-96387714D02*
X129609524Y-96292476D01*
X129609524Y-96292476D02*
X129704762Y-96197238D01*
X129704762Y-96197238D02*
X129847619Y-96149619D01*
X129847619Y-96149619D02*
X129942857Y-96149619D01*
X129942857Y-96149619D02*
X130085714Y-96197238D01*
X130085714Y-96197238D02*
X130133333Y-96244857D01*
X130514286Y-96244857D02*
X130561905Y-96197238D01*
X130561905Y-96197238D02*
X130657143Y-96149619D01*
X130657143Y-96149619D02*
X130895238Y-96149619D01*
X130895238Y-96149619D02*
X130990476Y-96197238D01*
X130990476Y-96197238D02*
X131038095Y-96244857D01*
X131038095Y-96244857D02*
X131085714Y-96340095D01*
X131085714Y-96340095D02*
X131085714Y-96435333D01*
X131085714Y-96435333D02*
X131038095Y-96578190D01*
X131038095Y-96578190D02*
X130466667Y-97149619D01*
X130466667Y-97149619D02*
X131085714Y-97149619D01*
X120125809Y-82388333D02*
X120125809Y-82721666D01*
X120649619Y-82721666D02*
X119649619Y-82721666D01*
X119649619Y-82721666D02*
X119649619Y-82245476D01*
X120649619Y-81340714D02*
X120649619Y-81912142D01*
X120649619Y-81626428D02*
X119649619Y-81626428D01*
X119649619Y-81626428D02*
X119792476Y-81721666D01*
X119792476Y-81721666D02*
X119887714Y-81816904D01*
X119887714Y-81816904D02*
X119935333Y-81912142D01*
X109238095Y-95749619D02*
X109238095Y-96559142D01*
X109238095Y-96559142D02*
X109285714Y-96654380D01*
X109285714Y-96654380D02*
X109333333Y-96702000D01*
X109333333Y-96702000D02*
X109428571Y-96749619D01*
X109428571Y-96749619D02*
X109619047Y-96749619D01*
X109619047Y-96749619D02*
X109714285Y-96702000D01*
X109714285Y-96702000D02*
X109761904Y-96654380D01*
X109761904Y-96654380D02*
X109809523Y-96559142D01*
X109809523Y-96559142D02*
X109809523Y-95749619D01*
X110809523Y-96749619D02*
X110238095Y-96749619D01*
X110523809Y-96749619D02*
X110523809Y-95749619D01*
X110523809Y-95749619D02*
X110428571Y-95892476D01*
X110428571Y-95892476D02*
X110333333Y-95987714D01*
X110333333Y-95987714D02*
X110238095Y-96035333D01*
X124533333Y-100434380D02*
X124485714Y-100482000D01*
X124485714Y-100482000D02*
X124342857Y-100529619D01*
X124342857Y-100529619D02*
X124247619Y-100529619D01*
X124247619Y-100529619D02*
X124104762Y-100482000D01*
X124104762Y-100482000D02*
X124009524Y-100386761D01*
X124009524Y-100386761D02*
X123961905Y-100291523D01*
X123961905Y-100291523D02*
X123914286Y-100101047D01*
X123914286Y-100101047D02*
X123914286Y-99958190D01*
X123914286Y-99958190D02*
X123961905Y-99767714D01*
X123961905Y-99767714D02*
X124009524Y-99672476D01*
X124009524Y-99672476D02*
X124104762Y-99577238D01*
X124104762Y-99577238D02*
X124247619Y-99529619D01*
X124247619Y-99529619D02*
X124342857Y-99529619D01*
X124342857Y-99529619D02*
X124485714Y-99577238D01*
X124485714Y-99577238D02*
X124533333Y-99624857D01*
X125104762Y-99958190D02*
X125009524Y-99910571D01*
X125009524Y-99910571D02*
X124961905Y-99862952D01*
X124961905Y-99862952D02*
X124914286Y-99767714D01*
X124914286Y-99767714D02*
X124914286Y-99720095D01*
X124914286Y-99720095D02*
X124961905Y-99624857D01*
X124961905Y-99624857D02*
X125009524Y-99577238D01*
X125009524Y-99577238D02*
X125104762Y-99529619D01*
X125104762Y-99529619D02*
X125295238Y-99529619D01*
X125295238Y-99529619D02*
X125390476Y-99577238D01*
X125390476Y-99577238D02*
X125438095Y-99624857D01*
X125438095Y-99624857D02*
X125485714Y-99720095D01*
X125485714Y-99720095D02*
X125485714Y-99767714D01*
X125485714Y-99767714D02*
X125438095Y-99862952D01*
X125438095Y-99862952D02*
X125390476Y-99910571D01*
X125390476Y-99910571D02*
X125295238Y-99958190D01*
X125295238Y-99958190D02*
X125104762Y-99958190D01*
X125104762Y-99958190D02*
X125009524Y-100005809D01*
X125009524Y-100005809D02*
X124961905Y-100053428D01*
X124961905Y-100053428D02*
X124914286Y-100148666D01*
X124914286Y-100148666D02*
X124914286Y-100339142D01*
X124914286Y-100339142D02*
X124961905Y-100434380D01*
X124961905Y-100434380D02*
X125009524Y-100482000D01*
X125009524Y-100482000D02*
X125104762Y-100529619D01*
X125104762Y-100529619D02*
X125295238Y-100529619D01*
X125295238Y-100529619D02*
X125390476Y-100482000D01*
X125390476Y-100482000D02*
X125438095Y-100434380D01*
X125438095Y-100434380D02*
X125485714Y-100339142D01*
X125485714Y-100339142D02*
X125485714Y-100148666D01*
X125485714Y-100148666D02*
X125438095Y-100053428D01*
X125438095Y-100053428D02*
X125390476Y-100005809D01*
X125390476Y-100005809D02*
X125295238Y-99958190D01*
X123049619Y-105966666D02*
X122573428Y-106299999D01*
X123049619Y-106538094D02*
X122049619Y-106538094D01*
X122049619Y-106538094D02*
X122049619Y-106157142D01*
X122049619Y-106157142D02*
X122097238Y-106061904D01*
X122097238Y-106061904D02*
X122144857Y-106014285D01*
X122144857Y-106014285D02*
X122240095Y-105966666D01*
X122240095Y-105966666D02*
X122382952Y-105966666D01*
X122382952Y-105966666D02*
X122478190Y-106014285D01*
X122478190Y-106014285D02*
X122525809Y-106061904D01*
X122525809Y-106061904D02*
X122573428Y-106157142D01*
X122573428Y-106157142D02*
X122573428Y-106538094D01*
X123049619Y-105490475D02*
X123049619Y-105299999D01*
X123049619Y-105299999D02*
X123002000Y-105204761D01*
X123002000Y-105204761D02*
X122954380Y-105157142D01*
X122954380Y-105157142D02*
X122811523Y-105061904D01*
X122811523Y-105061904D02*
X122621047Y-105014285D01*
X122621047Y-105014285D02*
X122240095Y-105014285D01*
X122240095Y-105014285D02*
X122144857Y-105061904D01*
X122144857Y-105061904D02*
X122097238Y-105109523D01*
X122097238Y-105109523D02*
X122049619Y-105204761D01*
X122049619Y-105204761D02*
X122049619Y-105395237D01*
X122049619Y-105395237D02*
X122097238Y-105490475D01*
X122097238Y-105490475D02*
X122144857Y-105538094D01*
X122144857Y-105538094D02*
X122240095Y-105585713D01*
X122240095Y-105585713D02*
X122478190Y-105585713D01*
X122478190Y-105585713D02*
X122573428Y-105538094D01*
X122573428Y-105538094D02*
X122621047Y-105490475D01*
X122621047Y-105490475D02*
X122668666Y-105395237D01*
X122668666Y-105395237D02*
X122668666Y-105204761D01*
X122668666Y-105204761D02*
X122621047Y-105109523D01*
X122621047Y-105109523D02*
X122573428Y-105061904D01*
X122573428Y-105061904D02*
X122478190Y-105014285D01*
X153299619Y-97866666D02*
X152823428Y-98199999D01*
X153299619Y-98438094D02*
X152299619Y-98438094D01*
X152299619Y-98438094D02*
X152299619Y-98057142D01*
X152299619Y-98057142D02*
X152347238Y-97961904D01*
X152347238Y-97961904D02*
X152394857Y-97914285D01*
X152394857Y-97914285D02*
X152490095Y-97866666D01*
X152490095Y-97866666D02*
X152632952Y-97866666D01*
X152632952Y-97866666D02*
X152728190Y-97914285D01*
X152728190Y-97914285D02*
X152775809Y-97961904D01*
X152775809Y-97961904D02*
X152823428Y-98057142D01*
X152823428Y-98057142D02*
X152823428Y-98438094D01*
X152728190Y-97295237D02*
X152680571Y-97390475D01*
X152680571Y-97390475D02*
X152632952Y-97438094D01*
X152632952Y-97438094D02*
X152537714Y-97485713D01*
X152537714Y-97485713D02*
X152490095Y-97485713D01*
X152490095Y-97485713D02*
X152394857Y-97438094D01*
X152394857Y-97438094D02*
X152347238Y-97390475D01*
X152347238Y-97390475D02*
X152299619Y-97295237D01*
X152299619Y-97295237D02*
X152299619Y-97104761D01*
X152299619Y-97104761D02*
X152347238Y-97009523D01*
X152347238Y-97009523D02*
X152394857Y-96961904D01*
X152394857Y-96961904D02*
X152490095Y-96914285D01*
X152490095Y-96914285D02*
X152537714Y-96914285D01*
X152537714Y-96914285D02*
X152632952Y-96961904D01*
X152632952Y-96961904D02*
X152680571Y-97009523D01*
X152680571Y-97009523D02*
X152728190Y-97104761D01*
X152728190Y-97104761D02*
X152728190Y-97295237D01*
X152728190Y-97295237D02*
X152775809Y-97390475D01*
X152775809Y-97390475D02*
X152823428Y-97438094D01*
X152823428Y-97438094D02*
X152918666Y-97485713D01*
X152918666Y-97485713D02*
X153109142Y-97485713D01*
X153109142Y-97485713D02*
X153204380Y-97438094D01*
X153204380Y-97438094D02*
X153252000Y-97390475D01*
X153252000Y-97390475D02*
X153299619Y-97295237D01*
X153299619Y-97295237D02*
X153299619Y-97104761D01*
X153299619Y-97104761D02*
X153252000Y-97009523D01*
X153252000Y-97009523D02*
X153204380Y-96961904D01*
X153204380Y-96961904D02*
X153109142Y-96914285D01*
X153109142Y-96914285D02*
X152918666Y-96914285D01*
X152918666Y-96914285D02*
X152823428Y-96961904D01*
X152823428Y-96961904D02*
X152775809Y-97009523D01*
X152775809Y-97009523D02*
X152728190Y-97104761D01*
X114249619Y-100566666D02*
X113773428Y-100899999D01*
X114249619Y-101138094D02*
X113249619Y-101138094D01*
X113249619Y-101138094D02*
X113249619Y-100757142D01*
X113249619Y-100757142D02*
X113297238Y-100661904D01*
X113297238Y-100661904D02*
X113344857Y-100614285D01*
X113344857Y-100614285D02*
X113440095Y-100566666D01*
X113440095Y-100566666D02*
X113582952Y-100566666D01*
X113582952Y-100566666D02*
X113678190Y-100614285D01*
X113678190Y-100614285D02*
X113725809Y-100661904D01*
X113725809Y-100661904D02*
X113773428Y-100757142D01*
X113773428Y-100757142D02*
X113773428Y-101138094D01*
X113249619Y-99661904D02*
X113249619Y-100138094D01*
X113249619Y-100138094D02*
X113725809Y-100185713D01*
X113725809Y-100185713D02*
X113678190Y-100138094D01*
X113678190Y-100138094D02*
X113630571Y-100042856D01*
X113630571Y-100042856D02*
X113630571Y-99804761D01*
X113630571Y-99804761D02*
X113678190Y-99709523D01*
X113678190Y-99709523D02*
X113725809Y-99661904D01*
X113725809Y-99661904D02*
X113821047Y-99614285D01*
X113821047Y-99614285D02*
X114059142Y-99614285D01*
X114059142Y-99614285D02*
X114154380Y-99661904D01*
X114154380Y-99661904D02*
X114202000Y-99709523D01*
X114202000Y-99709523D02*
X114249619Y-99804761D01*
X114249619Y-99804761D02*
X114249619Y-100042856D01*
X114249619Y-100042856D02*
X114202000Y-100138094D01*
X114202000Y-100138094D02*
X114154380Y-100185713D01*
X180719619Y-80683333D02*
X181433904Y-80683333D01*
X181433904Y-80683333D02*
X181576761Y-80730952D01*
X181576761Y-80730952D02*
X181672000Y-80826190D01*
X181672000Y-80826190D02*
X181719619Y-80969047D01*
X181719619Y-80969047D02*
X181719619Y-81064285D01*
X181719619Y-79683333D02*
X181719619Y-80254761D01*
X181719619Y-79969047D02*
X180719619Y-79969047D01*
X180719619Y-79969047D02*
X180862476Y-80064285D01*
X180862476Y-80064285D02*
X180957714Y-80159523D01*
X180957714Y-80159523D02*
X181005333Y-80254761D01*
X104524167Y-113822000D02*
X104667024Y-113869619D01*
X104667024Y-113869619D02*
X104905119Y-113869619D01*
X104905119Y-113869619D02*
X105000357Y-113822000D01*
X105000357Y-113822000D02*
X105047976Y-113774380D01*
X105047976Y-113774380D02*
X105095595Y-113679142D01*
X105095595Y-113679142D02*
X105095595Y-113583904D01*
X105095595Y-113583904D02*
X105047976Y-113488666D01*
X105047976Y-113488666D02*
X105000357Y-113441047D01*
X105000357Y-113441047D02*
X104905119Y-113393428D01*
X104905119Y-113393428D02*
X104714643Y-113345809D01*
X104714643Y-113345809D02*
X104619405Y-113298190D01*
X104619405Y-113298190D02*
X104571786Y-113250571D01*
X104571786Y-113250571D02*
X104524167Y-113155333D01*
X104524167Y-113155333D02*
X104524167Y-113060095D01*
X104524167Y-113060095D02*
X104571786Y-112964857D01*
X104571786Y-112964857D02*
X104619405Y-112917238D01*
X104619405Y-112917238D02*
X104714643Y-112869619D01*
X104714643Y-112869619D02*
X104952738Y-112869619D01*
X104952738Y-112869619D02*
X105095595Y-112917238D01*
X105428929Y-112869619D02*
X105667024Y-113869619D01*
X105667024Y-113869619D02*
X105857500Y-113155333D01*
X105857500Y-113155333D02*
X106047976Y-113869619D01*
X106047976Y-113869619D02*
X106286072Y-112869619D01*
X107190833Y-113869619D02*
X106619405Y-113869619D01*
X106905119Y-113869619D02*
X106905119Y-112869619D01*
X106905119Y-112869619D02*
X106809881Y-113012476D01*
X106809881Y-113012476D02*
X106714643Y-113107714D01*
X106714643Y-113107714D02*
X106619405Y-113155333D01*
X166133333Y-98854380D02*
X166085714Y-98902000D01*
X166085714Y-98902000D02*
X165942857Y-98949619D01*
X165942857Y-98949619D02*
X165847619Y-98949619D01*
X165847619Y-98949619D02*
X165704762Y-98902000D01*
X165704762Y-98902000D02*
X165609524Y-98806761D01*
X165609524Y-98806761D02*
X165561905Y-98711523D01*
X165561905Y-98711523D02*
X165514286Y-98521047D01*
X165514286Y-98521047D02*
X165514286Y-98378190D01*
X165514286Y-98378190D02*
X165561905Y-98187714D01*
X165561905Y-98187714D02*
X165609524Y-98092476D01*
X165609524Y-98092476D02*
X165704762Y-97997238D01*
X165704762Y-97997238D02*
X165847619Y-97949619D01*
X165847619Y-97949619D02*
X165942857Y-97949619D01*
X165942857Y-97949619D02*
X166085714Y-97997238D01*
X166085714Y-97997238D02*
X166133333Y-98044857D01*
X166990476Y-97949619D02*
X166800000Y-97949619D01*
X166800000Y-97949619D02*
X166704762Y-97997238D01*
X166704762Y-97997238D02*
X166657143Y-98044857D01*
X166657143Y-98044857D02*
X166561905Y-98187714D01*
X166561905Y-98187714D02*
X166514286Y-98378190D01*
X166514286Y-98378190D02*
X166514286Y-98759142D01*
X166514286Y-98759142D02*
X166561905Y-98854380D01*
X166561905Y-98854380D02*
X166609524Y-98902000D01*
X166609524Y-98902000D02*
X166704762Y-98949619D01*
X166704762Y-98949619D02*
X166895238Y-98949619D01*
X166895238Y-98949619D02*
X166990476Y-98902000D01*
X166990476Y-98902000D02*
X167038095Y-98854380D01*
X167038095Y-98854380D02*
X167085714Y-98759142D01*
X167085714Y-98759142D02*
X167085714Y-98521047D01*
X167085714Y-98521047D02*
X167038095Y-98425809D01*
X167038095Y-98425809D02*
X166990476Y-98378190D01*
X166990476Y-98378190D02*
X166895238Y-98330571D01*
X166895238Y-98330571D02*
X166704762Y-98330571D01*
X166704762Y-98330571D02*
X166609524Y-98378190D01*
X166609524Y-98378190D02*
X166561905Y-98425809D01*
X166561905Y-98425809D02*
X166514286Y-98521047D01*
D13*
%TO.C,U11*%
X111000000Y-125000000D02*
X111000000Y-135000000D01*
X111000000Y-135000000D02*
X113000000Y-135000000D01*
X113000000Y-121500000D02*
X113000000Y-125000000D01*
X113000000Y-121500000D02*
X177000000Y-121500000D01*
X113000000Y-125000000D02*
X111000000Y-125000000D01*
X113000000Y-135000000D02*
X113000000Y-138500000D01*
X177000000Y-121500000D02*
X177000000Y-138500000D01*
X177000000Y-138500000D02*
X113000000Y-138500000D01*
%TO.C,BT1*%
X115900000Y-67800000D02*
X124100000Y-67800000D01*
X124100000Y-52200000D01*
X115900000Y-52200000D01*
X115900000Y-67800000D01*
D14*
%TO.C,J2*%
X101110000Y-79690000D02*
X110230000Y-79690000D01*
X101110000Y-95190000D02*
X101110000Y-79690000D01*
X102420000Y-80990000D02*
X108920000Y-80990000D01*
X102420000Y-93890000D02*
X102420000Y-80990000D01*
X108920000Y-80990000D02*
X108920000Y-85390000D01*
X108920000Y-85390000D02*
X108920000Y-85390000D01*
X108920000Y-85390000D02*
X110230000Y-85390000D01*
X108920000Y-89490000D02*
X108920000Y-93890000D01*
X108920000Y-93890000D02*
X102420000Y-93890000D01*
X110230000Y-79690000D02*
X110230000Y-95190000D01*
X110230000Y-89490000D02*
X108920000Y-89490000D01*
X110230000Y-95190000D02*
X101110000Y-95190000D01*
X110620000Y-89980000D02*
X111620000Y-90480000D01*
X111620000Y-89480000D02*
X110620000Y-89980000D01*
X111620000Y-90480000D02*
X111620000Y-89480000D01*
%TO.C,U6*%
X184540000Y-97740000D02*
X184895000Y-97740000D01*
X184540000Y-99750000D02*
X184540000Y-97740000D01*
X184540000Y-99750000D02*
X184540000Y-101760000D01*
X184540000Y-101760000D02*
X184895000Y-101760000D01*
X184895000Y-101760000D02*
X184895000Y-103225000D01*
X188860000Y-97740000D02*
X188505000Y-97740000D01*
X188860000Y-99750000D02*
X188860000Y-97740000D01*
X188860000Y-99750000D02*
X188860000Y-101760000D01*
X188860000Y-101760000D02*
X188505000Y-101760000D01*
%TO.C,C12*%
X128132500Y-109611252D02*
X128132500Y-109088748D01*
X129602500Y-109611252D02*
X129602500Y-109088748D01*
%TO.C,C10*%
X149261252Y-97665000D02*
X148738748Y-97665000D01*
X149261252Y-99135000D02*
X148738748Y-99135000D01*
%TO.C,F5*%
X173590000Y-84286252D02*
X173590000Y-81513748D01*
X177010000Y-84286252D02*
X177010000Y-81513748D01*
%TO.C,F4*%
X157325000Y-70755000D02*
X158700000Y-70755000D01*
X157325000Y-77005000D02*
X157325000Y-70755000D01*
X157325000Y-77005000D02*
X158700000Y-77005000D01*
X157325000Y-87105000D02*
X157325000Y-93355000D01*
X157325000Y-87105000D02*
X158900000Y-87105000D01*
X158000000Y-87105000D02*
X158000000Y-77005000D01*
X158900000Y-93355000D02*
X157325000Y-93355000D01*
X162100000Y-93355000D02*
X163675000Y-93355000D01*
X163000000Y-87105000D02*
X163000000Y-77005000D01*
X163675000Y-70755000D02*
X162300000Y-70755000D01*
X163675000Y-77005000D02*
X162300000Y-77005000D01*
X163675000Y-77005000D02*
X163675000Y-70755000D01*
X163675000Y-87105000D02*
X162100000Y-87105000D01*
X163675000Y-93355000D02*
X163675000Y-87105000D01*
%TO.C,C5*%
X172011252Y-95540000D02*
X170588748Y-95540000D01*
X172011252Y-98260000D02*
X170588748Y-98260000D01*
%TO.C,BT2*%
D13*
X129400000Y-67800000D02*
X137600000Y-67800000D01*
X137600000Y-52200000D01*
X129400000Y-52200000D01*
X129400000Y-67800000D01*
D14*
%TO.C,C4*%
X157038748Y-97665000D02*
X157561252Y-97665000D01*
X157038748Y-99135000D02*
X157561252Y-99135000D01*
%TO.C,BT3*%
D13*
X142900000Y-67800000D02*
X151100000Y-67800000D01*
X151100000Y-52200000D01*
X142900000Y-52200000D01*
X142900000Y-67800000D01*
%TO.C,BT4*%
X156400000Y-67800000D02*
X164600000Y-67800000D01*
X164600000Y-52200000D01*
X156400000Y-52200000D01*
X156400000Y-67800000D01*
D14*
%TO.C,U7*%
X179740000Y-97740000D02*
X180095000Y-97740000D01*
X179740000Y-99750000D02*
X179740000Y-97740000D01*
X179740000Y-99750000D02*
X179740000Y-101760000D01*
X179740000Y-101760000D02*
X180095000Y-101760000D01*
X180095000Y-101760000D02*
X180095000Y-103225000D01*
X184060000Y-97740000D02*
X183705000Y-97740000D01*
X184060000Y-99750000D02*
X184060000Y-97740000D01*
X184060000Y-99750000D02*
X184060000Y-101760000D01*
X184060000Y-101760000D02*
X183705000Y-101760000D01*
%TO.C,F3*%
X143825000Y-70755000D02*
X145200000Y-70755000D01*
X143825000Y-77005000D02*
X143825000Y-70755000D01*
X143825000Y-77005000D02*
X145200000Y-77005000D01*
X143825000Y-87105000D02*
X143825000Y-93355000D01*
X143825000Y-87105000D02*
X145400000Y-87105000D01*
X144500000Y-87105000D02*
X144500000Y-77005000D01*
X145400000Y-93355000D02*
X143825000Y-93355000D01*
X148600000Y-93355000D02*
X150175000Y-93355000D01*
X149500000Y-87105000D02*
X149500000Y-77005000D01*
X150175000Y-70755000D02*
X148800000Y-70755000D01*
X150175000Y-77005000D02*
X148800000Y-77005000D01*
X150175000Y-77005000D02*
X150175000Y-70755000D01*
X150175000Y-87105000D02*
X148600000Y-87105000D01*
X150175000Y-93355000D02*
X150175000Y-87105000D01*
D10*
%TO.C,U5*%
X164400000Y-86250000D02*
X176200000Y-86250000D01*
X164400000Y-92950000D02*
X164400000Y-86250000D01*
X166300000Y-94950000D02*
X176200000Y-94950000D01*
X176200000Y-86250000D02*
X176200000Y-94950000D01*
D14*
%TO.C,U8*%
X132067500Y-107790000D02*
X131267500Y-107790000D01*
X132067500Y-107790000D02*
X132867500Y-107790000D01*
X132067500Y-110910000D02*
X131267500Y-110910000D01*
X132067500Y-110910000D02*
X133867500Y-110910000D01*
%TO.C,C9*%
X138361252Y-97665000D02*
X137838748Y-97665000D01*
X138361252Y-99135000D02*
X137838748Y-99135000D01*
%TO.C,J3*%
D13*
X168900000Y-67800000D02*
X177100000Y-67800000D01*
X177100000Y-52200000D01*
X168900000Y-52200000D01*
X168900000Y-67800000D01*
D14*
%TO.C,C1*%
X116433748Y-97665000D02*
X116956252Y-97665000D01*
X116433748Y-99135000D02*
X116956252Y-99135000D01*
%TO.C,C11*%
X123932500Y-109611252D02*
X123932500Y-109088748D01*
X125402500Y-109611252D02*
X125402500Y-109088748D01*
%TO.C,R12*%
X105372936Y-95965000D02*
X105827064Y-95965000D01*
X105372936Y-97435000D02*
X105827064Y-97435000D01*
%TO.C,R11*%
X172227064Y-98865000D02*
X171772936Y-98865000D01*
X172227064Y-100335000D02*
X171772936Y-100335000D01*
%TO.C,U10*%
X143140000Y-100590000D02*
X143140000Y-100825000D01*
X143140000Y-113610000D02*
X143140000Y-113375000D01*
X147000000Y-100590000D02*
X143140000Y-100590000D01*
X147000000Y-100590000D02*
X150860000Y-100590000D01*
X147000000Y-113610000D02*
X143140000Y-113610000D01*
X147000000Y-113610000D02*
X150860000Y-113610000D01*
X150860000Y-100590000D02*
X150860000Y-100825000D01*
X150860000Y-113375000D02*
X152675000Y-113375000D01*
X150860000Y-113610000D02*
X150860000Y-113375000D01*
%TO.C,U4*%
X151740000Y-91900000D02*
X151740000Y-89950000D01*
X151740000Y-91900000D02*
X151740000Y-93850000D01*
X156860000Y-91900000D02*
X156860000Y-88450000D01*
X156860000Y-91900000D02*
X156860000Y-93850000D01*
%TO.C,R3*%
X174465000Y-97472936D02*
X174465000Y-97927064D01*
X175935000Y-97472936D02*
X175935000Y-97927064D01*
%TO.C,R6*%
X126765000Y-97927064D02*
X126765000Y-97472936D01*
X128235000Y-97927064D02*
X128235000Y-97472936D01*
%TO.C,C15*%
X135532500Y-109611252D02*
X135532500Y-109088748D01*
X137002500Y-109611252D02*
X137002500Y-109088748D01*
%TO.C,C7*%
X111356252Y-97665000D02*
X110833748Y-97665000D01*
X111356252Y-99135000D02*
X110833748Y-99135000D01*
%TO.C,R7*%
X140165000Y-97927064D02*
X140165000Y-97472936D01*
X141635000Y-97927064D02*
X141635000Y-97472936D01*
%TO.C,U2*%
X124740000Y-91900000D02*
X124740000Y-89950000D01*
X124740000Y-91900000D02*
X124740000Y-93850000D01*
X129860000Y-91900000D02*
X129860000Y-88450000D01*
X129860000Y-91900000D02*
X129860000Y-93850000D01*
%TO.C,U9*%
X122140000Y-112665000D02*
X122615000Y-112665000D01*
X122140000Y-113140000D02*
X122140000Y-112665000D01*
X122140000Y-117410000D02*
X122140000Y-117885000D01*
X122140000Y-117885000D02*
X122615000Y-117885000D01*
X127360000Y-113140000D02*
X127360000Y-112665000D01*
X127360000Y-117410000D02*
X127360000Y-117885000D01*
X127360000Y-117885000D02*
X126885000Y-117885000D01*
%TO.C,R1*%
X177265000Y-104227064D02*
X177265000Y-103772936D01*
X178735000Y-104227064D02*
X178735000Y-103772936D01*
%TO.C,U3*%
X138140000Y-91900000D02*
X138140000Y-89950000D01*
X138140000Y-91900000D02*
X138140000Y-93850000D01*
X143260000Y-91900000D02*
X143260000Y-88450000D01*
X143260000Y-91900000D02*
X143260000Y-93850000D01*
%TO.C,R4*%
X176865000Y-97472936D02*
X176865000Y-97927064D01*
X178335000Y-97472936D02*
X178335000Y-97927064D01*
%TO.C,C16*%
X168761252Y-98865000D02*
X168238748Y-98865000D01*
X168761252Y-100335000D02*
X168238748Y-100335000D01*
%TO.C,C13*%
X126032500Y-109611252D02*
X126032500Y-109088748D01*
X127502500Y-109611252D02*
X127502500Y-109088748D01*
D13*
%TO.C,BZ1*%
X155500000Y-109200000D02*
X156500000Y-109200000D01*
X156000000Y-108700000D02*
X156000000Y-109700000D01*
X166000000Y-109200000D02*
G75*
G02*
X157000000Y-109200000I-4500000J0D01*
G01*
X157000000Y-109200000D02*
G75*
G02*
X166000000Y-109200000I4500000J0D01*
G01*
D14*
%TO.C,C3*%
X143438748Y-97665000D02*
X143961252Y-97665000D01*
X143438748Y-99135000D02*
X143961252Y-99135000D01*
%TO.C,R2*%
X184665000Y-105727064D02*
X184665000Y-105272936D01*
X186135000Y-105727064D02*
X186135000Y-105272936D01*
%TO.C,R10*%
X162627064Y-98865000D02*
X162172936Y-98865000D01*
X162627064Y-100335000D02*
X162172936Y-100335000D01*
%TO.C,C14*%
X155038748Y-112065000D02*
X155561252Y-112065000D01*
X155038748Y-113535000D02*
X155561252Y-113535000D01*
%TO.C,F2*%
X130325000Y-70755000D02*
X131700000Y-70755000D01*
X130325000Y-77005000D02*
X130325000Y-70755000D01*
X130325000Y-77005000D02*
X131700000Y-77005000D01*
X130325000Y-87105000D02*
X130325000Y-93355000D01*
X130325000Y-87105000D02*
X131900000Y-87105000D01*
X131000000Y-87105000D02*
X131000000Y-77005000D01*
X131900000Y-93355000D02*
X130325000Y-93355000D01*
X135100000Y-93355000D02*
X136675000Y-93355000D01*
X136000000Y-87105000D02*
X136000000Y-77005000D01*
X136675000Y-70755000D02*
X135300000Y-70755000D01*
X136675000Y-77005000D02*
X135300000Y-77005000D01*
X136675000Y-77005000D02*
X136675000Y-70755000D01*
X136675000Y-87105000D02*
X135100000Y-87105000D01*
X136675000Y-93355000D02*
X136675000Y-87105000D01*
%TO.C,C2*%
X130038748Y-97665000D02*
X130561252Y-97665000D01*
X130038748Y-99135000D02*
X130561252Y-99135000D01*
%TO.C,F1*%
X116825000Y-70755000D02*
X118200000Y-70755000D01*
X116825000Y-77005000D02*
X116825000Y-70755000D01*
X116825000Y-77005000D02*
X118200000Y-77005000D01*
X116825000Y-87105000D02*
X116825000Y-93355000D01*
X116825000Y-87105000D02*
X118400000Y-87105000D01*
X117500000Y-87105000D02*
X117500000Y-77005000D01*
X118400000Y-93355000D02*
X116825000Y-93355000D01*
X121600000Y-93355000D02*
X123175000Y-93355000D01*
X122500000Y-87105000D02*
X122500000Y-77005000D01*
X123175000Y-70755000D02*
X121800000Y-70755000D01*
X123175000Y-77005000D02*
X121800000Y-77005000D01*
X123175000Y-77005000D02*
X123175000Y-70755000D01*
X123175000Y-87105000D02*
X121600000Y-87105000D01*
X123175000Y-93355000D02*
X123175000Y-87105000D01*
%TO.C,U1*%
X111235000Y-91900000D02*
X111235000Y-89950000D01*
X111235000Y-91900000D02*
X111235000Y-93850000D01*
X116355000Y-91900000D02*
X116355000Y-88450000D01*
X116355000Y-91900000D02*
X116355000Y-93850000D01*
%TO.C,C8*%
X124961252Y-97665000D02*
X124438748Y-97665000D01*
X124961252Y-99135000D02*
X124438748Y-99135000D01*
%TO.C,R9*%
X121832500Y-109122936D02*
X121832500Y-109577064D01*
X123302500Y-109122936D02*
X123302500Y-109577064D01*
%TO.C,R8*%
X153765000Y-97927064D02*
X153765000Y-97472936D01*
X155235000Y-97927064D02*
X155235000Y-97472936D01*
%TO.C,R5*%
X113160000Y-97927064D02*
X113160000Y-97472936D01*
X114630000Y-97927064D02*
X114630000Y-97472936D01*
%TO.C,J1*%
X176900000Y-93590000D02*
X177500000Y-93890000D01*
X176900000Y-94190000D02*
X176900000Y-93590000D01*
X176900000Y-94190000D02*
X177500000Y-93890000D01*
X177700000Y-69180000D02*
X189700000Y-69200000D01*
X177700000Y-95300000D02*
X177700000Y-69180000D01*
X188200000Y-71950000D02*
X188200000Y-69950000D01*
X188200000Y-75450000D02*
X188200000Y-73450000D01*
X188200000Y-78950000D02*
X188200000Y-76950000D01*
X188200000Y-82450000D02*
X188200000Y-80450000D01*
X188200000Y-85950000D02*
X188200000Y-83950000D01*
X188200000Y-89450000D02*
X188200000Y-87450000D01*
X188200000Y-92950000D02*
X188200000Y-90950000D01*
X189700000Y-69180000D02*
X189700000Y-95300000D01*
X189700000Y-69700000D02*
X188200000Y-69950000D01*
X189700000Y-72200000D02*
X188200000Y-71950000D01*
X189700000Y-73200000D02*
X188200000Y-73450000D01*
X189700000Y-75700000D02*
X188200000Y-75450000D01*
X189700000Y-76700000D02*
X188200000Y-76950000D01*
X189700000Y-79200000D02*
X188200000Y-78950000D01*
X189700000Y-80200000D02*
X188200000Y-80450000D01*
X189700000Y-82700000D02*
X188200000Y-82450000D01*
X189700000Y-83700000D02*
X188200000Y-83950000D01*
X189700000Y-86200000D02*
X188200000Y-85950000D01*
X189700000Y-87200000D02*
X188200000Y-87450000D01*
X189700000Y-89700000D02*
X188200000Y-89450000D01*
X189700000Y-90700000D02*
X188200000Y-90950000D01*
X189700000Y-93200000D02*
X188200000Y-92950000D01*
X189700000Y-95300000D02*
X177700000Y-95300000D01*
%TO.C,SW1*%
X100907500Y-112420000D02*
X100907500Y-99960000D01*
X103827500Y-101745000D02*
X103827500Y-103015000D01*
X103827500Y-103015000D02*
X107887500Y-103015000D01*
X103827500Y-104285000D02*
X103827500Y-105555000D01*
X103827500Y-105555000D02*
X107887500Y-105555000D01*
X103827500Y-106825000D02*
X103827500Y-108095000D01*
X103827500Y-108095000D02*
X107887500Y-108095000D01*
X103827500Y-109365000D02*
X103827500Y-110635000D01*
X103827500Y-110635000D02*
X107887500Y-110635000D01*
X106534167Y-103015000D02*
X106534167Y-101745000D01*
X106534167Y-105555000D02*
X106534167Y-104285000D01*
X106534167Y-108095000D02*
X106534167Y-106825000D01*
X106534167Y-110635000D02*
X106534167Y-109365000D01*
X107887500Y-101745000D02*
X103827500Y-101745000D01*
X107887500Y-101815000D02*
X106534167Y-101815000D01*
X107887500Y-101935000D02*
X106534167Y-101935000D01*
X107887500Y-102055000D02*
X106534167Y-102055000D01*
X107887500Y-102175000D02*
X106534167Y-102175000D01*
X107887500Y-102295000D02*
X106534167Y-102295000D01*
X107887500Y-102415000D02*
X106534167Y-102415000D01*
X107887500Y-102535000D02*
X106534167Y-102535000D01*
X107887500Y-102655000D02*
X106534167Y-102655000D01*
X107887500Y-102775000D02*
X106534167Y-102775000D01*
X107887500Y-102895000D02*
X106534167Y-102895000D01*
X107887500Y-103015000D02*
X107887500Y-101745000D01*
X107887500Y-104285000D02*
X103827500Y-104285000D01*
X107887500Y-104355000D02*
X106534167Y-104355000D01*
X107887500Y-104475000D02*
X106534167Y-104475000D01*
X107887500Y-104595000D02*
X106534167Y-104595000D01*
X107887500Y-104715000D02*
X106534167Y-104715000D01*
X107887500Y-104835000D02*
X106534167Y-104835000D01*
X107887500Y-104955000D02*
X106534167Y-104955000D01*
X107887500Y-105075000D02*
X106534167Y-105075000D01*
X107887500Y-105195000D02*
X106534167Y-105195000D01*
X107887500Y-105315000D02*
X106534167Y-105315000D01*
X107887500Y-105435000D02*
X106534167Y-105435000D01*
X107887500Y-105555000D02*
X107887500Y-104285000D01*
X107887500Y-106825000D02*
X103827500Y-106825000D01*
X107887500Y-106895000D02*
X106534167Y-106895000D01*
X107887500Y-107015000D02*
X106534167Y-107015000D01*
X107887500Y-107135000D02*
X106534167Y-107135000D01*
X107887500Y-107255000D02*
X106534167Y-107255000D01*
X107887500Y-107375000D02*
X106534167Y-107375000D01*
X107887500Y-107495000D02*
X106534167Y-107495000D01*
X107887500Y-107615000D02*
X106534167Y-107615000D01*
X107887500Y-107735000D02*
X106534167Y-107735000D01*
X107887500Y-107855000D02*
X106534167Y-107855000D01*
X107887500Y-107975000D02*
X106534167Y-107975000D01*
X107887500Y-108095000D02*
X107887500Y-106825000D01*
X107887500Y-109365000D02*
X103827500Y-109365000D01*
X107887500Y-109435000D02*
X106534167Y-109435000D01*
X107887500Y-109555000D02*
X106534167Y-109555000D01*
X107887500Y-109675000D02*
X106534167Y-109675000D01*
X107887500Y-109795000D02*
X106534167Y-109795000D01*
X107887500Y-109915000D02*
X106534167Y-109915000D01*
X107887500Y-110035000D02*
X106534167Y-110035000D01*
X107887500Y-110155000D02*
X106534167Y-110155000D01*
X107887500Y-110275000D02*
X106534167Y-110275000D01*
X107887500Y-110395000D02*
X106534167Y-110395000D01*
X107887500Y-110515000D02*
X106534167Y-110515000D01*
X107887500Y-110635000D02*
X107887500Y-109365000D01*
X110807500Y-99960000D02*
X100907500Y-99960000D01*
X110807500Y-112420000D02*
X100907500Y-112420000D01*
X110807500Y-112420000D02*
X110807500Y-99960000D01*
X111047500Y-112660000D02*
X109663500Y-112660000D01*
X111047500Y-112660000D02*
X111047500Y-111277000D01*
%TO.C,C6*%
X166038748Y-95965000D02*
X166561252Y-95965000D01*
X166038748Y-97435000D02*
X166561252Y-97435000D01*
%TD*%
M02*
