%TF.GenerationSoftware,KiCad,Pcbnew,8.0.1*%
%TF.CreationDate,2024-04-25T22:53:37+02:00*%
%TF.ProjectId,xt60_parallelizer,78743630-5f70-4617-9261-6c6c656c697a,rev?*%
%TF.SameCoordinates,Original*%
%TF.FileFunction,Soldermask,Bot*%
%TF.FilePolarity,Negative*%
%FSLAX46Y46*%
G04 Gerber Fmt 4.6, Leading zero omitted, Abs format (unit mm)*
G04 Created by KiCad (PCBNEW 8.0.1) date 2024-04-25 22:53:37*
%MOMM*%
%LPD*%
G01*
G04 APERTURE LIST*
G04 Aperture macros list*
%AMRoundRect*
0 Rectangle with rounded corners*
0 $1 Rounding radius*
0 $2 $3 $4 $5 $6 $7 $8 $9 X,Y pos of 4 corners*
0 Add a 4 corners polygon primitive as box body*
4,1,4,$2,$3,$4,$5,$6,$7,$8,$9,$2,$3,0*
0 Add four circle primitives for the rounded corners*
1,1,$1+$1,$2,$3*
1,1,$1+$1,$4,$5*
1,1,$1+$1,$6,$7*
1,1,$1+$1,$8,$9*
0 Add four rect primitives between the rounded corners*
20,1,$1+$1,$2,$3,$4,$5,0*
20,1,$1+$1,$4,$5,$6,$7,0*
20,1,$1+$1,$6,$7,$8,$9,0*
20,1,$1+$1,$8,$9,$2,$3,0*%
G04 Aperture macros list end*
%ADD10C,1.900000*%
%ADD11C,3.200000*%
%ADD12C,6.000000*%
%ADD13RoundRect,0.250000X0.600000X0.600000X-0.600000X0.600000X-0.600000X-0.600000X0.600000X-0.600000X0*%
%ADD14C,1.700000*%
%ADD15RoundRect,0.675000X-0.675000X0.675000X-0.675000X-0.675000X0.675000X-0.675000X0.675000X0.675000X0*%
%ADD16C,2.700000*%
%ADD17R,1.700000X1.700000*%
%ADD18C,1.300000*%
%ADD19RoundRect,0.250000X1.400000X-0.650000X1.400000X0.650000X-1.400000X0.650000X-1.400000X-0.650000X0*%
%ADD20O,3.300000X1.800000*%
%ADD21R,2.000000X2.000000*%
%ADD22C,2.000000*%
G04 APERTURE END LIST*
D10*
%TO.C,U11*%
X132300000Y-141150000D03*
X134840000Y-141150000D03*
X137380000Y-141150000D03*
X139920000Y-141150000D03*
X142460000Y-141150000D03*
X145000000Y-141150000D03*
X147540000Y-141150000D03*
X150080000Y-141150000D03*
X152620000Y-141150000D03*
X155160000Y-141150000D03*
X157700000Y-141150000D03*
X157700000Y-118850000D03*
X155160000Y-118850000D03*
X152620000Y-118850000D03*
X150080000Y-118850000D03*
X147540000Y-118850000D03*
X145000000Y-118850000D03*
X142460000Y-118850000D03*
X139920000Y-118850000D03*
X137380000Y-118850000D03*
X134840000Y-118850000D03*
X132300000Y-118850000D03*
%TD*%
D11*
%TO.C,H3*%
X105000000Y-140000000D03*
%TD*%
D12*
%TO.C,BT1*%
X120000000Y-63600000D03*
X120000000Y-56400000D03*
%TD*%
D13*
%TO.C,J2*%
X106940000Y-89980000D03*
D14*
X104400000Y-89980000D03*
X106940000Y-87440000D03*
X104400000Y-87440000D03*
X106940000Y-84900000D03*
X104400000Y-84900000D03*
%TD*%
D15*
%TO.C,F4*%
X160500000Y-70500000D03*
X160500000Y-77260000D03*
D16*
X160500000Y-86850000D03*
X160500000Y-93610000D03*
%TD*%
D12*
%TO.C,BT2*%
X133500000Y-63600000D03*
X133500000Y-56400000D03*
%TD*%
%TO.C,BT3*%
X147000000Y-63600000D03*
X147000000Y-56400000D03*
%TD*%
%TO.C,BT4*%
X160500000Y-63600000D03*
X160500000Y-56400000D03*
%TD*%
D15*
%TO.C,F3*%
X147000000Y-70500000D03*
X147000000Y-77260000D03*
D16*
X147000000Y-86850000D03*
X147000000Y-93610000D03*
%TD*%
D11*
%TO.C,H2*%
X182500000Y-57500000D03*
%TD*%
D17*
%TO.C,U5*%
X172840000Y-92850000D03*
D14*
X170300000Y-92850000D03*
X167760000Y-92850000D03*
%TD*%
D11*
%TO.C,H1*%
X107500000Y-57500000D03*
%TD*%
D12*
%TO.C,J3*%
X173000000Y-63600000D03*
X173000000Y-56400000D03*
%TD*%
D18*
%TO.C,BZ1*%
X159000000Y-109200000D03*
X164000000Y-109200000D03*
%TD*%
D15*
%TO.C,F2*%
X133500000Y-70500000D03*
X133500000Y-77260000D03*
D16*
X133500000Y-86850000D03*
X133500000Y-93610000D03*
%TD*%
D15*
%TO.C,F1*%
X120000000Y-70500000D03*
X120000000Y-77260000D03*
D16*
X120000000Y-86850000D03*
X120000000Y-93610000D03*
%TD*%
D19*
%TO.C,J1*%
X185000000Y-92000000D03*
D20*
X185000000Y-88500000D03*
X185000000Y-85000000D03*
X185000000Y-81500000D03*
X185000000Y-78000000D03*
X185000000Y-74500000D03*
X185000000Y-71000000D03*
%TD*%
D21*
%TO.C,SW1*%
X109667500Y-110000000D03*
D22*
X109667500Y-107460000D03*
X109667500Y-104920000D03*
X109667500Y-102380000D03*
X102047500Y-102380000D03*
X102047500Y-104920000D03*
X102047500Y-107460000D03*
X102047500Y-110000000D03*
%TD*%
D11*
%TO.C,H4*%
X185000000Y-140000000D03*
%TD*%
G36*
X175843039Y-61619685D02*
G01*
X175888794Y-61672489D01*
X175900000Y-61724000D01*
X175900000Y-80048638D01*
X175880315Y-80115677D01*
X175863681Y-80136319D01*
X172036319Y-83963681D01*
X171974996Y-83997166D01*
X171948638Y-84000000D01*
X154200000Y-84000000D01*
X154200000Y-87076000D01*
X154180315Y-87143039D01*
X154127511Y-87188794D01*
X154076000Y-87200000D01*
X150224000Y-87200000D01*
X150156961Y-87180315D01*
X150111206Y-87127511D01*
X150100000Y-87076000D01*
X150100000Y-84000000D01*
X140700000Y-84000000D01*
X140700000Y-87076000D01*
X140680315Y-87143039D01*
X140627511Y-87188794D01*
X140576000Y-87200000D01*
X136624000Y-87200000D01*
X136556961Y-87180315D01*
X136511206Y-87127511D01*
X136500000Y-87076000D01*
X136500000Y-84000000D01*
X127200000Y-84000000D01*
X127200000Y-87076000D01*
X127180315Y-87143039D01*
X127127511Y-87188794D01*
X127076000Y-87200000D01*
X123224000Y-87200000D01*
X123156961Y-87180315D01*
X123111206Y-87127511D01*
X123100000Y-87076000D01*
X123100000Y-84000000D01*
X113700000Y-84000000D01*
X113700000Y-87076000D01*
X113680315Y-87143039D01*
X113627511Y-87188794D01*
X113576000Y-87200000D01*
X110824000Y-87200000D01*
X110756961Y-87180315D01*
X110711206Y-87127511D01*
X110700000Y-87076000D01*
X110700000Y-80224000D01*
X110719685Y-80156961D01*
X110772489Y-80111206D01*
X110824000Y-80100000D01*
X166700000Y-80100000D01*
X166700000Y-61724000D01*
X166719685Y-61656961D01*
X166772489Y-61611206D01*
X166824000Y-61600000D01*
X175776000Y-61600000D01*
X175843039Y-61619685D01*
G37*
G36*
X175843039Y-52219685D02*
G01*
X175888794Y-52272489D01*
X175900000Y-52324000D01*
X175900000Y-58776000D01*
X175880315Y-58843039D01*
X175827511Y-58888794D01*
X175776000Y-58900000D01*
X116024000Y-58900000D01*
X115956961Y-58880315D01*
X115911206Y-58827511D01*
X115900000Y-58776000D01*
X115900000Y-52324000D01*
X115919685Y-52256961D01*
X115972489Y-52211206D01*
X116024000Y-52200000D01*
X175776000Y-52200000D01*
X175843039Y-52219685D01*
G37*
G36*
X163943039Y-61619685D02*
G01*
X163988794Y-61672489D01*
X164000000Y-61724000D01*
X164000000Y-76876000D01*
X163980315Y-76943039D01*
X163927511Y-76988794D01*
X163876000Y-77000000D01*
X156524000Y-77000000D01*
X156456961Y-76980315D01*
X156411206Y-76927511D01*
X156400000Y-76876000D01*
X156400000Y-61724000D01*
X156419685Y-61656961D01*
X156472489Y-61611206D01*
X156524000Y-61600000D01*
X163876000Y-61600000D01*
X163943039Y-61619685D01*
G37*
G36*
X137543039Y-61619685D02*
G01*
X137588794Y-61672489D01*
X137600000Y-61724000D01*
X137600000Y-76876000D01*
X137580315Y-76943039D01*
X137527511Y-76988794D01*
X137476000Y-77000000D01*
X129524000Y-77000000D01*
X129456961Y-76980315D01*
X129411206Y-76927511D01*
X129400000Y-76876000D01*
X129400000Y-61724000D01*
X129419685Y-61656961D01*
X129472489Y-61611206D01*
X129524000Y-61600000D01*
X137476000Y-61600000D01*
X137543039Y-61619685D01*
G37*
G36*
X151043039Y-61619685D02*
G01*
X151088794Y-61672489D01*
X151100000Y-61724000D01*
X151100000Y-76876000D01*
X151080315Y-76943039D01*
X151027511Y-76988794D01*
X150976000Y-77000000D01*
X143024000Y-77000000D01*
X142956961Y-76980315D01*
X142911206Y-76927511D01*
X142900000Y-76876000D01*
X142900000Y-61724000D01*
X142919685Y-61656961D01*
X142972489Y-61611206D01*
X143024000Y-61600000D01*
X150976000Y-61600000D01*
X151043039Y-61619685D01*
G37*
G36*
X124043039Y-61619685D02*
G01*
X124088794Y-61672489D01*
X124100000Y-61724000D01*
X124100000Y-76876000D01*
X124080315Y-76943039D01*
X124027511Y-76988794D01*
X123976000Y-77000000D01*
X116024000Y-77000000D01*
X115956961Y-76980315D01*
X115911206Y-76927511D01*
X115900000Y-76876000D01*
X115900000Y-61724000D01*
X115919685Y-61656961D01*
X115972489Y-61611206D01*
X116024000Y-61600000D01*
X123976000Y-61600000D01*
X124043039Y-61619685D01*
G37*
M02*
