%TF.GenerationSoftware,KiCad,Pcbnew,8.0.1*%
%TF.CreationDate,2024-04-25T22:53:37+02:00*%
%TF.ProjectId,xt60_parallelizer,78743630-5f70-4617-9261-6c6c656c697a,rev?*%
%TF.SameCoordinates,Original*%
%TF.FileFunction,Soldermask,Top*%
%TF.FilePolarity,Negative*%
%FSLAX46Y46*%
G04 Gerber Fmt 4.6, Leading zero omitted, Abs format (unit mm)*
G04 Created by KiCad (PCBNEW 8.0.1) date 2024-04-25 22:53:37*
%MOMM*%
%LPD*%
G01*
G04 APERTURE LIST*
G04 Aperture macros list*
%AMRoundRect*
0 Rectangle with rounded corners*
0 $1 Rounding radius*
0 $2 $3 $4 $5 $6 $7 $8 $9 X,Y pos of 4 corners*
0 Add a 4 corners polygon primitive as box body*
4,1,4,$2,$3,$4,$5,$6,$7,$8,$9,$2,$3,0*
0 Add four circle primitives for the rounded corners*
1,1,$1+$1,$2,$3*
1,1,$1+$1,$4,$5*
1,1,$1+$1,$6,$7*
1,1,$1+$1,$8,$9*
0 Add four rect primitives between the rounded corners*
20,1,$1+$1,$2,$3,$4,$5,0*
20,1,$1+$1,$4,$5,$6,$7,0*
20,1,$1+$1,$6,$7,$8,$9,0*
20,1,$1+$1,$8,$9,$2,$3,0*%
G04 Aperture macros list end*
%ADD10C,1.900000*%
%ADD11C,3.200000*%
%ADD12C,6.000000*%
%ADD13RoundRect,0.250000X0.600000X0.600000X-0.600000X0.600000X-0.600000X-0.600000X0.600000X-0.600000X0*%
%ADD14C,1.700000*%
%ADD15RoundRect,0.137500X0.137500X-0.587500X0.137500X0.587500X-0.137500X0.587500X-0.137500X-0.587500X0*%
%ADD16RoundRect,0.250000X0.475000X-0.250000X0.475000X0.250000X-0.475000X0.250000X-0.475000X-0.250000X0*%
%ADD17RoundRect,0.250000X0.250000X0.475000X-0.250000X0.475000X-0.250000X-0.475000X0.250000X-0.475000X0*%
%ADD18RoundRect,0.250000X1.450000X-0.312500X1.450000X0.312500X-1.450000X0.312500X-1.450000X-0.312500X0*%
%ADD19RoundRect,0.675000X-0.675000X0.675000X-0.675000X-0.675000X0.675000X-0.675000X0.675000X0.675000X0*%
%ADD20C,2.700000*%
%ADD21RoundRect,0.250000X0.325000X1.100000X-0.325000X1.100000X-0.325000X-1.100000X0.325000X-1.100000X0*%
%ADD22RoundRect,0.250000X-0.250000X-0.475000X0.250000X-0.475000X0.250000X0.475000X-0.250000X0.475000X0*%
%ADD23R,1.700000X1.700000*%
%ADD24RoundRect,0.150000X0.512500X0.150000X-0.512500X0.150000X-0.512500X-0.150000X0.512500X-0.150000X0*%
%ADD25RoundRect,0.250000X-0.262500X-0.450000X0.262500X-0.450000X0.262500X0.450000X-0.262500X0.450000X0*%
%ADD26RoundRect,0.250000X0.262500X0.450000X-0.262500X0.450000X-0.262500X-0.450000X0.262500X-0.450000X0*%
%ADD27RoundRect,0.150000X0.875000X0.150000X-0.875000X0.150000X-0.875000X-0.150000X0.875000X-0.150000X0*%
%ADD28RoundRect,0.150000X-0.150000X0.825000X-0.150000X-0.825000X0.150000X-0.825000X0.150000X0.825000X0*%
%ADD29RoundRect,0.250000X-0.450000X0.262500X-0.450000X-0.262500X0.450000X-0.262500X0.450000X0.262500X0*%
%ADD30RoundRect,0.250000X0.450000X-0.262500X0.450000X0.262500X-0.450000X0.262500X-0.450000X-0.262500X0*%
%ADD31RoundRect,0.062500X-0.062500X0.312500X-0.062500X-0.312500X0.062500X-0.312500X0.062500X0.312500X0*%
%ADD32RoundRect,0.062500X-0.312500X0.062500X-0.312500X-0.062500X0.312500X-0.062500X0.312500X0.062500X0*%
%ADD33R,3.650000X3.650000*%
%ADD34C,1.300000*%
%ADD35RoundRect,0.250000X1.400000X-0.650000X1.400000X0.650000X-1.400000X0.650000X-1.400000X-0.650000X0*%
%ADD36O,3.300000X1.800000*%
%ADD37R,2.000000X2.000000*%
%ADD38C,2.000000*%
G04 APERTURE END LIST*
D10*
%TO.C,U11*%
X132300000Y-141150000D03*
X134840000Y-141150000D03*
X137380000Y-141150000D03*
X139920000Y-141150000D03*
X142460000Y-141150000D03*
X145000000Y-141150000D03*
X147540000Y-141150000D03*
X150080000Y-141150000D03*
X152620000Y-141150000D03*
X155160000Y-141150000D03*
X157700000Y-141150000D03*
X157700000Y-118850000D03*
X155160000Y-118850000D03*
X152620000Y-118850000D03*
X150080000Y-118850000D03*
X147540000Y-118850000D03*
X145000000Y-118850000D03*
X142460000Y-118850000D03*
X139920000Y-118850000D03*
X137380000Y-118850000D03*
X134840000Y-118850000D03*
X132300000Y-118850000D03*
%TD*%
D11*
%TO.C,H3*%
X105000000Y-140000000D03*
%TD*%
D12*
%TO.C,BT1*%
X120000000Y-63600000D03*
X120000000Y-56400000D03*
%TD*%
D13*
%TO.C,J2*%
X106940000Y-89980000D03*
D14*
X104400000Y-89980000D03*
X106940000Y-87440000D03*
X104400000Y-87440000D03*
X106940000Y-84900000D03*
X104400000Y-84900000D03*
%TD*%
D15*
%TO.C,U6*%
X185430000Y-102500000D03*
X187970000Y-102500000D03*
X187970000Y-97000000D03*
X185430000Y-97000000D03*
%TD*%
D16*
%TO.C,C12*%
X128867500Y-110300000D03*
X128867500Y-108400000D03*
%TD*%
D17*
%TO.C,C10*%
X149950000Y-98400000D03*
X148050000Y-98400000D03*
%TD*%
D18*
%TO.C,F5*%
X175300000Y-85037500D03*
X175300000Y-80762500D03*
%TD*%
D19*
%TO.C,F4*%
X160500000Y-70500000D03*
X160500000Y-77260000D03*
D20*
X160500000Y-86850000D03*
X160500000Y-93610000D03*
%TD*%
D21*
%TO.C,C5*%
X172775000Y-96900000D03*
X169825000Y-96900000D03*
%TD*%
D12*
%TO.C,BT2*%
X133500000Y-63600000D03*
X133500000Y-56400000D03*
%TD*%
D22*
%TO.C,C4*%
X156350000Y-98400000D03*
X158250000Y-98400000D03*
%TD*%
D12*
%TO.C,BT3*%
X147000000Y-63600000D03*
X147000000Y-56400000D03*
%TD*%
%TO.C,BT4*%
X160500000Y-63600000D03*
X160500000Y-56400000D03*
%TD*%
D15*
%TO.C,U7*%
X180630000Y-102500000D03*
X183170000Y-102500000D03*
X183170000Y-97000000D03*
X180630000Y-97000000D03*
%TD*%
D19*
%TO.C,F3*%
X147000000Y-70500000D03*
X147000000Y-77260000D03*
D20*
X147000000Y-86850000D03*
X147000000Y-93610000D03*
%TD*%
D11*
%TO.C,H2*%
X182500000Y-57500000D03*
%TD*%
D23*
%TO.C,U5*%
X172840000Y-92850000D03*
D14*
X170300000Y-92850000D03*
X167760000Y-92850000D03*
%TD*%
D24*
%TO.C,U8*%
X133205000Y-110300000D03*
X133205000Y-109350000D03*
X133205000Y-108400000D03*
X130930000Y-108400000D03*
X130930000Y-110300000D03*
%TD*%
D17*
%TO.C,C9*%
X139050000Y-98400000D03*
X137150000Y-98400000D03*
%TD*%
D11*
%TO.C,H1*%
X107500000Y-57500000D03*
%TD*%
D12*
%TO.C,J3*%
X173000000Y-63600000D03*
X173000000Y-56400000D03*
%TD*%
D22*
%TO.C,C1*%
X115745000Y-98400000D03*
X117645000Y-98400000D03*
%TD*%
D16*
%TO.C,C11*%
X124667500Y-110300000D03*
X124667500Y-108400000D03*
%TD*%
D25*
%TO.C,R12*%
X104687500Y-96700000D03*
X106512500Y-96700000D03*
%TD*%
D26*
%TO.C,R11*%
X172912500Y-99600000D03*
X171087500Y-99600000D03*
%TD*%
D27*
%TO.C,U10*%
X151650000Y-112815000D03*
X151650000Y-111545000D03*
X151650000Y-110275000D03*
X151650000Y-109005000D03*
X151650000Y-107735000D03*
X151650000Y-106465000D03*
X151650000Y-105195000D03*
X151650000Y-103925000D03*
X151650000Y-102655000D03*
X151650000Y-101385000D03*
X142350000Y-101385000D03*
X142350000Y-102655000D03*
X142350000Y-103925000D03*
X142350000Y-105195000D03*
X142350000Y-106465000D03*
X142350000Y-107735000D03*
X142350000Y-109005000D03*
X142350000Y-110275000D03*
X142350000Y-111545000D03*
X142350000Y-112815000D03*
%TD*%
D28*
%TO.C,U4*%
X156205000Y-89425000D03*
X154935000Y-89425000D03*
X153665000Y-89425000D03*
X152395000Y-89425000D03*
X152395000Y-94375000D03*
X153665000Y-94375000D03*
X154935000Y-94375000D03*
X156205000Y-94375000D03*
%TD*%
D29*
%TO.C,R3*%
X175200000Y-96787500D03*
X175200000Y-98612500D03*
%TD*%
D30*
%TO.C,R6*%
X127500000Y-98612500D03*
X127500000Y-96787500D03*
%TD*%
D16*
%TO.C,C15*%
X136267500Y-110300000D03*
X136267500Y-108400000D03*
%TD*%
D17*
%TO.C,C7*%
X112045000Y-98400000D03*
X110145000Y-98400000D03*
%TD*%
D30*
%TO.C,R7*%
X140900000Y-98612500D03*
X140900000Y-96787500D03*
%TD*%
D28*
%TO.C,U2*%
X129205000Y-89425000D03*
X127935000Y-89425000D03*
X126665000Y-89425000D03*
X125395000Y-89425000D03*
X125395000Y-94375000D03*
X126665000Y-94375000D03*
X127935000Y-94375000D03*
X129205000Y-94375000D03*
%TD*%
D31*
%TO.C,U9*%
X126500000Y-112800000D03*
X126000000Y-112800000D03*
X125500000Y-112800000D03*
X125000000Y-112800000D03*
X124500000Y-112800000D03*
X124000000Y-112800000D03*
X123500000Y-112800000D03*
X123000000Y-112800000D03*
D32*
X122275000Y-113525000D03*
X122275000Y-114025000D03*
X122275000Y-114525000D03*
X122275000Y-115025000D03*
X122275000Y-115525000D03*
X122275000Y-116025000D03*
X122275000Y-116525000D03*
X122275000Y-117025000D03*
D31*
X123000000Y-117750000D03*
X123500000Y-117750000D03*
X124000000Y-117750000D03*
X124500000Y-117750000D03*
X125000000Y-117750000D03*
X125500000Y-117750000D03*
X126000000Y-117750000D03*
X126500000Y-117750000D03*
D32*
X127225000Y-117025000D03*
X127225000Y-116525000D03*
X127225000Y-116025000D03*
X127225000Y-115525000D03*
X127225000Y-115025000D03*
X127225000Y-114525000D03*
X127225000Y-114025000D03*
X127225000Y-113525000D03*
D33*
X124750000Y-115275000D03*
%TD*%
D30*
%TO.C,R1*%
X178000000Y-104912500D03*
X178000000Y-103087500D03*
%TD*%
D28*
%TO.C,U3*%
X142605000Y-89425000D03*
X141335000Y-89425000D03*
X140065000Y-89425000D03*
X138795000Y-89425000D03*
X138795000Y-94375000D03*
X140065000Y-94375000D03*
X141335000Y-94375000D03*
X142605000Y-94375000D03*
%TD*%
D29*
%TO.C,R4*%
X177600000Y-96787500D03*
X177600000Y-98612500D03*
%TD*%
D17*
%TO.C,C16*%
X169450000Y-99600000D03*
X167550000Y-99600000D03*
%TD*%
D16*
%TO.C,C13*%
X126767500Y-110300000D03*
X126767500Y-108400000D03*
%TD*%
D34*
%TO.C,BZ1*%
X159000000Y-109200000D03*
X164000000Y-109200000D03*
%TD*%
D22*
%TO.C,C3*%
X142750000Y-98400000D03*
X144650000Y-98400000D03*
%TD*%
D30*
%TO.C,R2*%
X185400000Y-106412500D03*
X185400000Y-104587500D03*
%TD*%
D26*
%TO.C,R10*%
X163312500Y-99600000D03*
X161487500Y-99600000D03*
%TD*%
D22*
%TO.C,C14*%
X154350000Y-112800000D03*
X156250000Y-112800000D03*
%TD*%
D19*
%TO.C,F2*%
X133500000Y-70500000D03*
X133500000Y-77260000D03*
D20*
X133500000Y-86850000D03*
X133500000Y-93610000D03*
%TD*%
D22*
%TO.C,C2*%
X129350000Y-98400000D03*
X131250000Y-98400000D03*
%TD*%
D19*
%TO.C,F1*%
X120000000Y-70500000D03*
X120000000Y-77260000D03*
D20*
X120000000Y-86850000D03*
X120000000Y-93610000D03*
%TD*%
D28*
%TO.C,U1*%
X115700000Y-89425000D03*
X114430000Y-89425000D03*
X113160000Y-89425000D03*
X111890000Y-89425000D03*
X111890000Y-94375000D03*
X113160000Y-94375000D03*
X114430000Y-94375000D03*
X115700000Y-94375000D03*
%TD*%
D17*
%TO.C,C8*%
X125650000Y-98400000D03*
X123750000Y-98400000D03*
%TD*%
D29*
%TO.C,R9*%
X122567500Y-108437500D03*
X122567500Y-110262500D03*
%TD*%
D30*
%TO.C,R8*%
X154500000Y-98612500D03*
X154500000Y-96787500D03*
%TD*%
%TO.C,R5*%
X113895000Y-98612500D03*
X113895000Y-96787500D03*
%TD*%
D35*
%TO.C,J1*%
X185000000Y-92000000D03*
D36*
X185000000Y-88500000D03*
X185000000Y-85000000D03*
X185000000Y-81500000D03*
X185000000Y-78000000D03*
X185000000Y-74500000D03*
X185000000Y-71000000D03*
%TD*%
D37*
%TO.C,SW1*%
X109667500Y-110000000D03*
D38*
X109667500Y-107460000D03*
X109667500Y-104920000D03*
X109667500Y-102380000D03*
X102047500Y-102380000D03*
X102047500Y-104920000D03*
X102047500Y-107460000D03*
X102047500Y-110000000D03*
%TD*%
D22*
%TO.C,C6*%
X165350000Y-96700000D03*
X167250000Y-96700000D03*
%TD*%
D11*
%TO.C,H4*%
X185000000Y-140000000D03*
%TD*%
G36*
X117143039Y-85519685D02*
G01*
X117188794Y-85572489D01*
X117200000Y-85624000D01*
X117200000Y-90876000D01*
X117180315Y-90943039D01*
X117127511Y-90988794D01*
X117076000Y-91000000D01*
X114624000Y-91000000D01*
X114556961Y-90980315D01*
X114511206Y-90927511D01*
X114500000Y-90876000D01*
X114500000Y-85624000D01*
X114519685Y-85556961D01*
X114572489Y-85511206D01*
X114624000Y-85500000D01*
X117076000Y-85500000D01*
X117143039Y-85519685D01*
G37*
G36*
X130643039Y-85519685D02*
G01*
X130688794Y-85572489D01*
X130700000Y-85624000D01*
X130700000Y-90876000D01*
X130680315Y-90943039D01*
X130627511Y-90988794D01*
X130576000Y-91000000D01*
X128124000Y-91000000D01*
X128056961Y-90980315D01*
X128011206Y-90927511D01*
X128000000Y-90876000D01*
X128000000Y-85624000D01*
X128019685Y-85556961D01*
X128072489Y-85511206D01*
X128124000Y-85500000D01*
X130576000Y-85500000D01*
X130643039Y-85519685D01*
G37*
G36*
X126643039Y-84619685D02*
G01*
X126688794Y-84672489D01*
X126700000Y-84724000D01*
X126700000Y-90876000D01*
X126680315Y-90943039D01*
X126627511Y-90988794D01*
X126576000Y-91000000D01*
X124024000Y-91000000D01*
X123956961Y-90980315D01*
X123911206Y-90927511D01*
X123900000Y-90876000D01*
X123900000Y-84724000D01*
X123919685Y-84656961D01*
X123972489Y-84611206D01*
X124024000Y-84600000D01*
X126576000Y-84600000D01*
X126643039Y-84619685D01*
G37*
G36*
X113043039Y-84619685D02*
G01*
X113088794Y-84672489D01*
X113100000Y-84724000D01*
X113100000Y-90876000D01*
X113080315Y-90943039D01*
X113027511Y-90988794D01*
X112976000Y-91000000D01*
X111451362Y-91000000D01*
X111384323Y-90980315D01*
X111363681Y-90963681D01*
X110936319Y-90536319D01*
X110902834Y-90474996D01*
X110900000Y-90448638D01*
X110900000Y-84724000D01*
X110919685Y-84656961D01*
X110972489Y-84611206D01*
X111024000Y-84600000D01*
X112976000Y-84600000D01*
X113043039Y-84619685D01*
G37*
G36*
X157643039Y-85519685D02*
G01*
X157688794Y-85572489D01*
X157700000Y-85624000D01*
X157700000Y-90876000D01*
X157680315Y-90943039D01*
X157627511Y-90988794D01*
X157576000Y-91000000D01*
X155124000Y-91000000D01*
X155056961Y-90980315D01*
X155011206Y-90927511D01*
X155000000Y-90876000D01*
X155000000Y-85624000D01*
X155019685Y-85556961D01*
X155072489Y-85511206D01*
X155124000Y-85500000D01*
X157576000Y-85500000D01*
X157643039Y-85519685D01*
G37*
G36*
X144043039Y-85519685D02*
G01*
X144088794Y-85572489D01*
X144100000Y-85624000D01*
X144100000Y-90876000D01*
X144080315Y-90943039D01*
X144027511Y-90988794D01*
X143976000Y-91000000D01*
X141524000Y-91000000D01*
X141456961Y-90980315D01*
X141411206Y-90927511D01*
X141400000Y-90876000D01*
X141400000Y-85624000D01*
X141419685Y-85556961D01*
X141472489Y-85511206D01*
X141524000Y-85500000D01*
X143976000Y-85500000D01*
X144043039Y-85519685D01*
G37*
G36*
X139943039Y-84619685D02*
G01*
X139988794Y-84672489D01*
X140000000Y-84724000D01*
X140000000Y-90876000D01*
X139980315Y-90943039D01*
X139927511Y-90988794D01*
X139876000Y-91000000D01*
X137324000Y-91000000D01*
X137256961Y-90980315D01*
X137211206Y-90927511D01*
X137200000Y-90876000D01*
X137200000Y-84724000D01*
X137219685Y-84656961D01*
X137272489Y-84611206D01*
X137324000Y-84600000D01*
X139876000Y-84600000D01*
X139943039Y-84619685D01*
G37*
G36*
X153543039Y-84619685D02*
G01*
X153588794Y-84672489D01*
X153600000Y-84724000D01*
X153600000Y-90876000D01*
X153580315Y-90943039D01*
X153527511Y-90988794D01*
X153476000Y-91000000D01*
X150924000Y-91000000D01*
X150856961Y-90980315D01*
X150811206Y-90927511D01*
X150800000Y-90876000D01*
X150800000Y-84724000D01*
X150819685Y-84656961D01*
X150872489Y-84611206D01*
X150924000Y-84600000D01*
X153476000Y-84600000D01*
X153543039Y-84619685D01*
G37*
M02*
